<?xml version="1.0" encoding="UTF-8"?>
<svg width="11px" height="20px" viewBox="0 0 11 20" version="1.1" xmlns="http://www.w3.org/2000/svg" xmlns:xlink="http://www.w3.org/1999/xlink">
    <!-- Generator: Sketch 43.1 (39012) - http://www.bohemiancoding.com/sketch -->
    <title>Shape</title>
    <desc>Created with Sketch.</desc>
    <defs></defs>
    <g id="Page-1" stroke="none" stroke-width="1" fill="none" fill-rule="evenodd">
        <g id="MD" transform="translate(-864.000000, -3109.000000)" fill-rule="nonzero" fill="#585858">
            <g id="Info-Block" transform="translate(163.000000, 2772.000000)">
                <g id="Right-Price" transform="translate(685.000000, 313.000000)">
                    <g id="Title" transform="translate(16.000000, 23.000000)">
                        <path d="M5.43313741,9.45233084 C4.27762189,9.45233084 3.29445987,8.48290014 3.29445987,7.3435231 C3.29445987,6.20414606 4.27762189,5.23471535 5.43313741,5.23471535 C6.58865293,5.23471535 7.57181495,6.20414606 7.57181495,7.3435231 L10.866008,7.3435231 C10.866008,4.97953278 9.26199986,2.93886141 7.07156291,2.24145007 L7.07156291,1 L3.79444511,1 L3.79444511,2.24145007 C1.60400816,2.93886141 0,4.97953278 0,7.3435231 C0,10.268652 2.46630928,12.7176155 5.45021268,12.7176155 C6.6057282,12.7176155 7.58889022,13.6870462 7.58889022,14.8264232 C7.58889022,15.9658003 6.6057282,16.935231 5.45021268,16.935231 C4.29469716,16.935231 3.31153514,15.9658003 3.31153514,14.8264232 L0,14.8264232 C0,17.1904136 1.60400816,19.2310849 3.79444511,19.9284963 L3.79444511,21 L7.08863818,21 L7.08863818,19.9284963 C9.27907513,19.2310849 10.8830833,17.1904136 10.8830833,14.8264232 C10.8833501,11.8844575 8.41704081,9.45233084 5.43313741,9.45233084 Z" id="Shape"></path>
                    </g>
                </g>
            </g>
        </g>
    </g>
</svg>