<?xml version="1.0" encoding="UTF-8"?>
<svg width="15px" height="13px" viewBox="0 0 15 13" version="1.1" xmlns="http://www.w3.org/2000/svg" xmlns:xlink="http://www.w3.org/1999/xlink">
    <!-- Generator: Sketch 43.1 (39012) - http://www.bohemiancoding.com/sketch -->
    <title>icon</title>
    <desc>Created with Sketch.</desc>
    <defs></defs>
    <g id="Page-1" stroke="none" stroke-width="1" fill="none" fill-rule="evenodd">
        <g id="MD" transform="translate(-375.000000, -441.000000)" fill="#FFFFFF">
            <g id="Header" transform="translate(-261.000000, 0.000000)">
                <g id="For-Business" transform="translate(491.000000, 258.000000)">
                    <g id="Details-Button" transform="translate(0.000000, 165.869018)">
                        <g id="icon" transform="translate(145.703920, 18.000032)">
                            <path d="M13.6436882,4.91061848 L8.9308549,0.188271449 C8.91917999,0.176572818 8.90597395,0.166216654 8.89168336,0.158034006 C8.43100314,-0.105408917 7.92406988,-0.0267787798 7.59838472,0.299568252 L7.36724714,0.531175558 C7.35563603,0.542874188 7.34517328,0.556107065 7.33707102,0.570490627 C7.07416239,1.03204314 7.15276065,1.54000661 7.47838202,1.86628971 L9.2414839,3.63303857 C9.26100587,3.65253629 9.27650861,3.67618926 9.28499365,3.70252716 C9.43364133,4.16324862 9.12231056,4.52590615 8.74635314,4.52590615 L0.180801517,4.52590615 C0.0809587598,4.52590615 0,4.60702944 0,4.7070751 L0,6.56082853 C0,6.66093812 0.0809587598,6.74199748 0.180801517,6.74199748 L8.87235278,6.74199748 C8.89997701,6.74199748 8.92766503,6.7477509 8.95222699,6.76034451 C9.38241211,6.98089245 9.41820239,7.45791528 9.15242288,7.72423492 L7.36750233,9.51271894 C7.35582743,9.52441757 7.34542847,9.53771437 7.33726241,9.55203401 C7.07448138,10.0137783 7.15314344,10.5218057 7.47895619,10.8480888 L7.709392,11.0788651 C7.7210669,11.0905637 7.73427294,11.1008559 7.74862733,11.1091025 C8.20911617,11.3724176 8.71604942,11.2937874 9.04160699,10.9675043 L13.7546955,6.24592442 C13.7663704,6.23416186 13.7767694,6.22092898 13.7849354,6.20654542 C14.0478441,5.74499291 13.9693096,5.23696551 13.6436882,4.91061848" id="Fill-1"></path>
                        </g>
                    </g>
                </g>
            </g>
        </g>
    </g>
</svg>