<?xml version="1.0" encoding="UTF-8"?>
<svg width="19px" height="19px" viewBox="0 0 19 19" version="1.1" xmlns="http://www.w3.org/2000/svg" xmlns:xlink="http://www.w3.org/1999/xlink">
    <!-- Generator: Sketch 43.1 (39012) - http://www.bohemiancoding.com/sketch -->
    <title>Shape</title>
    <desc>Created with Sketch.</desc>
    <defs></defs>
    <g id="Page-1" stroke="none" stroke-width="1">
        <g id="LG" transform="translate(-1131.000000, -290.000000)">
            <g id="PopUp">
                <g id="Top" transform="translate(710.000000, 283.000000)">
                    <g id="Close" transform="translate(421.000000, 7.000000)">
                        <path d="M11.1744536,9.49526029 L18.6420352,2.02767871 C19.105988,1.56412178 19.105988,0.811979868 18.6420352,0.348422933 C18.1780824,-0.115529866 17.4267322,-0.115529866 16.9627794,0.348422933 L9.49519782,7.81600451 L2.02722038,0.348422933 C1.56326758,-0.115529866 0.811917399,-0.115529866 0.347964599,0.348422933 C-0.1159882,0.811979868 -0.1159882,1.56412178 0.347964599,2.02767871 L7.81594204,9.49526029 L0.347964599,16.9628419 C-0.1159882,17.4263988 -0.1159882,18.1785407 0.347964599,18.6420976 C0.579940999,18.8736782 0.883964676,18.9896664 1.18759249,18.9896664 C1.4912203,18.9896664 1.79524398,18.8736782 2.02722038,18.6417018 L9.49519782,11.1741202 L16.9627794,18.6417018 C17.1947558,18.8736782 17.4987795,18.9896664 17.8024073,18.9896664 C18.1060351,18.9896664 18.4100588,18.8736782 18.6420352,18.6417018 C19.105988,18.1781448 19.105988,17.4260029 18.6420352,16.962446 L11.1744536,9.49526029 Z" id="Shape"></path>
                    </g>
                </g>
            </g>
        </g>
    </g>
</svg>