<?xml version="1.0" encoding="UTF-8"?>
<svg width="66px" height="66px" viewBox="0 0 66 66" version="1.1" xmlns="http://www.w3.org/2000/svg" xmlns:xlink="http://www.w3.org/1999/xlink">
    <!-- Generator: Sketch 43.1 (39012) - http://www.bohemiancoding.com/sketch -->
    <title>icon</title>
    <desc>Created with Sketch.</desc>
    <defs></defs>
    <g id="Page-1" stroke="none" stroke-width="1" fill="none" fill-rule="evenodd">
        <g id="MD" transform="translate(-667.000000, -8252.000000)">
            <g id="Partners" transform="translate(-264.000000, 7757.000000)">
                <g id="info-block" transform="translate(494.000000, 466.000000)">
                    <g id="icon" transform="translate(437.000000, 29.048500)">
                        <rect id="SVGCleanerId_0" fill="#4580E0" fill-rule="nonzero" x="7.208" y="12.5736667" width="51.5125" height="33.3791667"></rect>
                        <polygon id="Shape" fill="#FFFFFF" fill-rule="nonzero" points="64.905 1.03433333 1.03433333 1.03433333 1.03433333 8.44716667 3.09233333 8.44716667 3.09233333 50.0686667 62.8471667 50.0686667 62.8471667 8.44716667 64.905 8.44716667"></polygon>
                        <rect id="SVGCleanerId_0_1_" fill="#2FC0FF" fill-rule="nonzero" x="7" y="12.9515" width="51.5125" height="33.3791667"></rect>
                        <path d="M33.2953269,29.0616961 C32.0271843,29.0616961 30.9430299,27.9878248 30.9430299,26.7196822 C30.9430299,25.4515396 32.0169012,24.3776683 33.2953269,24.3776683 C34.5737526,24.3776683 35.6476239,25.4515396 35.6476239,26.7196822 L37.6009369,26.7196822 C37.6009369,24.6640129 36.1385229,23.0071693 34.277125,22.5162703 L34.277125,20.9515 L32.323812,20.9515 L32.323812,22.5162703 C30.3704989,23.0071693 29,24.6640129 29,26.7196822 C29,29.0616961 30.953313,31.0252922 33.30561,31.0252922 C34.5737526,31.0252922 35.657907,32.0991635 35.657907,33.3775892 C35.657907,34.6560149 34.5840357,35.7196031 33.30561,35.7196031 C32.0374674,35.7196031 30.953313,34.6457318 30.953313,33.3775892 L29,33.3775892 C29,35.4332585 30.462414,37.090102 32.323812,37.5810011 L32.323812,38.9515 L34.277125,38.9515 L34.277125,37.5810011 C36.230438,37.090102 37.6009369,35.4332585 37.6009369,33.3775892 C37.6009369,31.0150091 35.6476239,29.0616961 33.2953269,29.0616961 Z" id="Shape" fill="#FFFFFF" fill-rule="nonzero"></path>
                        <path d="M49.4817443,21.6373909 C48.7490397,21.6373909 48.1226395,21.016932 48.1226395,20.2842274 C48.1226395,19.5515228 48.7430984,18.9310638 49.4817443,18.9310638 C50.2203903,18.9310638 50.8408492,19.5515228 50.8408492,20.2842274 L51.96943,20.2842274 C51.96943,19.0965073 51.1244798,18.13922 50.0490054,17.8555895 L50.0490054,16.9515 L48.9204246,16.9515 L48.9204246,17.8555895 C47.7918438,18.13922 47,19.0965073 47,20.2842274 C47,21.6373909 48.1285808,22.771913 49.4876857,22.771913 C50.2203903,22.771913 50.8467906,23.392372 50.8467906,24.1310179 C50.8467906,24.8696639 50.2263316,25.4841815 49.4876857,25.4841815 C48.7549811,25.4841815 48.1285808,24.8637225 48.1285808,24.1310179 L47,24.1310179 C47,25.3187379 47.8449503,26.2760253 48.9204246,26.5596558 L48.9204246,27.3514996 L50.0490054,27.3514996 L50.0490054,26.5596558 C51.1775862,26.2760253 51.96943,25.3187379 51.96943,24.1310179 C51.96943,22.7659717 50.8408492,21.6373909 49.4817443,21.6373909 Z" id="Shape" fill="#FFFFFF"></path>
                        <path d="M18.2431151,27.1868244 C17.5808628,27.1868244 17.0146934,26.626025 17.0146934,25.9637728 C17.0146934,25.3015206 17.5754928,24.7407211 18.2431151,24.7407211 C18.9107374,24.7407211 19.4715368,25.3015206 19.4715368,25.9637728 L20.4916002,25.9637728 C20.4916002,24.8902566 19.7278952,24.0250162 18.7558318,23.7686578 L18.7558318,22.9515 L17.7357684,22.9515 L17.7357684,23.7686578 C16.715705,24.0250162 16,24.8902566 16,25.9637728 C16,27.1868244 17.0200634,28.2122579 18.2484851,28.2122579 C18.9107374,28.2122579 19.4769068,28.7730573 19.4769068,29.4406796 C19.4769068,30.1083019 18.9161074,30.6637313 18.2484851,30.6637313 C17.5862329,30.6637313 17.0200634,30.1029319 17.0200634,29.4406796 L16,29.4406796 C16,30.5141958 16.763705,31.3794363 17.7357684,31.6357946 L17.7357684,32.3514996 L18.7558318,32.3514996 L18.7558318,31.6357946 C19.7758952,31.3794363 20.4916002,30.5141958 20.4916002,29.4406796 C20.4916002,28.2068879 19.4715368,27.1868244 18.2431151,27.1868244 Z" id="Shape" fill="#FFFFFF"></path>
                        <g id="Group" fill-rule="nonzero" fill="#193651">
                            <path d="M0,0 L0,9.4815 L2.05783333,9.4815 L2.05783333,51.103 L31.9353333,51.103 L31.9353333,55.639 C29.565,56.1561667 27.8086667,58.2141667 27.8086667,60.6921667 C27.8086667,63.5796667 30.179,65.8423333 32.9588333,65.8423333 C35.8463333,65.8423333 38.109,63.472 38.109,60.6921667 C38.109,58.214 36.773,56.3608333 33.9823333,55.639 L33.9823333,51.006 L63.86,51.006 L63.86,9.4815 L65.9395,9.4815 L65.9395,0 L0,0 Z M36.062,60.7891667 C36.062,62.5453333 34.6181667,63.8815 32.9696667,63.8815 C31.2135,63.8815 29.8773333,62.4376667 29.8773333,60.7891667 C29.8773333,59.033 31.3211667,57.6968333 32.9696667,57.6968333 C34.726,57.5891667 35.9541667,59.033 36.062,60.7891667 Z M61.8235,49.0451667 L4.12666667,49.0451667 L4.12666667,9.4815 L61.8236667,9.4815 L61.8236667,49.0451667 L61.8235,49.0451667 Z M63.8815,7.41283333 L2.05783333,7.41283333 L2.05783333,2.05783333 L63.8813333,2.05783333 L63.8815,7.41283333 L63.8815,7.41283333 Z" id="Shape"></path>
                            <rect id="Rectangle-path" x="25.1366667" y="3.70633333" width="2.05783333" height="2.05783333"></rect>
                            <rect id="Rectangle-path" x="31.9353333" y="3.70633333" width="2.05783333" height="2.05783333"></rect>
                            <rect id="Rectangle-path" x="38.734" y="3.70633333" width="2.05783333" height="2.05783333"></rect>
                        </g>
                    </g>
                </g>
            </g>
        </g>
    </g>
</svg>