<?xml version="1.0" encoding="UTF-8"?>
<svg width="50px" height="50px" viewBox="0 0 50 50" version="1.1" xmlns="http://www.w3.org/2000/svg" xmlns:xlink="http://www.w3.org/1999/xlink">
    <!-- Generator: Sketch 43.1 (39012) - http://www.bohemiancoding.com/sketch -->
    <title>flaticon1491910535-svg</title>
    <desc>Created with Sketch.</desc>
    <defs></defs>
    <g id="Page-1" stroke="none" stroke-width="1" fill="none" fill-rule="evenodd">
        <g id="MD" transform="translate(-311.000000, -866.000000)" fill-rule="nonzero">
            <g id="Benefits" transform="translate(279.000000, 843.000000)">
                <g id="Expirience">
                    <g id="flaticon1491910535-svg" transform="translate(32.030556, 23.000126)">
                        <path d="M49.1704545,21.1405303 C49.1704545,27.0746212 44.3301768,31.914899 38.3960859,31.914899 L34.1842172,31.914899 C36.0534091,29.8824495 37.0737374,27.1561869 37.0737374,24.185101 C37.0737374,17.3123737 31.294697,11.6965909 24.275,12.0883838 C18.0306818,12.3986111 12.9536616,17.6306818 12.7986111,23.875 C12.7170455,26.8380051 13.7372475,29.5723485 15.3698232,31.6782828 C15.435101,31.7598485 15.492298,31.8333333 15.5493687,31.9150253 L11.5416667,31.9150253 C5.60757576,31.9150253 0.76729798,27.0747475 0.76729798,21.1406566 C0.76729798,15.2065657 5.5260101,10.4478535 11.460101,10.3662879 C13.2558081,5.13421717 18.0962121,1.23257576 23.8670455,0.840782828 C24.2588384,0.759217172 24.5690657,0.759217172 24.9608586,0.759217172 L26.0546717,0.759217172 C28.0055556,0.914267677 29.8747475,1.46123737 31.5152778,2.31818182 C33.0742424,1.37954545 34.8700758,0.759217172 36.8208333,0.759217172 C42.1263889,0.759217172 46.4198232,5.05265152 46.4198232,10.439899 C46.4198232,11.5337121 46.2647727,12.5458333 45.9545455,13.4844697 C47.9215909,15.4431818 49.1704545,18.1776515 49.1704545,21.1405303 Z" id="Shape" fill="#E1E6E9"></path>
                        <g id="Group" transform="translate(12.794058, 12.069078)" fill="#FFFFFF">
                            <path d="M24.2796798,12.1160231 C24.2796798,5.25137665 18.5006394,-0.372486984 11.4809424,0.0193059448 C5.23662425,0.329533218 0.159604046,5.56160392 0.00455354102,11.8057958 C-0.0770121155,14.7688009 0.943189905,17.5031443 2.58384647,19.6090787 C4.61629597,22.1883716 5.8651596,25.3881191 5.8651596,28.7427908 L5.8651596,33.9748615 L18.272104,33.9748615 L18.272104,28.8243564 C18.272104,25.5430433 19.2842253,22.3434221 21.3983667,19.8456948 C23.2675586,17.8134979 24.2796798,15.0872352 24.2796798,12.1160231 Z" id="Shape"></path>
                            <path d="M12.6482404,37.0931696 L11.7911697,37.0931696 C10.2322051,37.0931696 8.98334142,35.8443059 8.98334142,34.2853413 L8.98334142,33.975114 L15.4642758,33.975114 L15.4642758,34.2853413 C15.3825838,35.8443059 14.1337202,37.0931696 12.6482404,37.0931696 Z" id="Shape"></path>
                        </g>
                        <path d="M46.8359848,13.2638889 C47.0727273,12.3252525 47.2277778,11.394697 47.2277778,10.4560606 C47.2277778,4.6770202 42.5425505,0 36.845202,0 C34.967803,0 33.0986111,0.546843434 31.4579545,1.48560606 C29.7438131,0.702020202 27.9481061,0.236742424 26.152399,0.0816919192 C25.3688131,-0.000126262626 24.5933081,-0.000126262626 23.8914141,0.0814393939 C18.0388889,0.473232323 13.0435606,4.21982323 10.9376263,9.60707071 C4.84027778,9.98257576 0,15.059596 0,21.1405303 C0,27.539899 5.15050505,32.690404 11.5498737,32.690404 L15.2147727,32.690404 C16.545202,34.567803 17.4022727,36.5185606 17.7940657,38.6244949 L16.7819444,38.6244949 L16.7819444,40.1834596 L17.9491162,40.1834596 L17.9491162,41.897601 L16.7002525,41.897601 L16.7002525,43.4565657 L17.9491162,43.4565657 L17.9491162,45.252399 L16.7002525,45.252399 L16.7002525,46.8113636 L17.9491162,46.8113636 L20.9936869,46.8113636 C21.2304293,48.6070707 22.7078283,49.9376263 24.5035354,49.9376263 L25.3606061,49.9376263 C27.1563131,49.9376263 28.6419192,48.5337121 28.8704545,46.8113636 L31.9150253,46.8113636 L33.1638889,46.8113636 L33.1638889,45.252399 L31.9150253,45.252399 L31.9150253,43.5382576 L33.1638889,43.5382576 L33.1638889,41.9792929 L31.9150253,41.9792929 L31.9150253,40.2651515 L33.1638889,40.2651515 L33.1638889,38.7061869 L32.0782828,38.7061869 C32.3885101,36.5186869 33.3271465,34.4127525 34.5760101,32.772096 L38.322601,32.772096 C44.7219697,32.772096 49.8724747,27.6215909 49.8724747,21.2222222 C49.9540404,18.1776515 48.8602273,15.4431818 46.8359848,13.2638889 Z M25.442298,48.3867424 L24.5852273,48.3867424 C23.6465909,48.3867424 22.7895202,47.6847222 22.6343434,46.8277778 L27.3930556,46.8277778 C27.1645202,47.6848485 26.3809343,48.3867424 25.442298,48.3867424 Z M30.3642677,45.2606061 L19.589899,45.2606061 L19.589899,43.5464646 L30.4377525,43.5464646 L30.4377525,45.2606061 L30.3642677,45.2606061 Z M30.3642677,41.9873737 L19.589899,41.9873737 L19.589899,40.2732323 L30.4377525,40.2732323 C30.4376263,40.420202 30.3642677,41.9873737 30.3642677,41.9873737 Z M30.6008838,38.6244949 L19.3530303,38.6244949 C18.9612374,35.9717172 17.8674242,33.4739899 16.0717172,31.2130051 C14.4310606,29.1070707 13.5739899,26.5277778 13.6556818,23.875 C13.8107323,18.0224747 18.4959596,13.182197 24.3484848,12.872096 C30.902904,12.5618687 36.2901515,17.7123737 36.2901515,24.1934343 C36.2901515,26.8462121 35.3515152,29.4255051 33.6373737,31.4498737 C32.004798,33.4739899 30.9111111,35.9717172 30.6008838,38.6244949 Z M38.4041667,31.1314394 L35.8248737,31.1314394 C37.155303,29.0989899 37.8573232,26.6829545 37.8573232,24.1852273 C37.8573232,16.8472222 31.694697,10.9131313 24.275,11.3049242 C17.6388889,11.6967172 12.2517677,17.1574495 12.0965909,23.7934343 C12.0150253,26.3727273 12.7169192,28.9439394 14.1290404,31.1314394 L11.5497475,31.1314394 C6.00744949,31.1314394 1.55896465,26.6829545 1.55896465,21.1406566 C1.55896465,15.6800505 6.00744949,11.2314394 11.4681818,11.1498737 L12.0150253,11.1498737 L12.1700758,10.6030303 C13.9657828,5.5260101 18.5694444,1.94267677 23.9565657,1.55088384 C24.3483586,1.55088384 28.0949495,1.55088384 31.1395202,3.0364899 L31.5313131,3.27323232 L31.9231061,3.0364899 C33.4087121,2.09785354 35.0493687,1.55088384 36.8368687,1.55088384 C41.7506313,1.55088384 45.7339646,5.53409091 45.7339646,10.4479798 C45.7339646,11.3866162 45.5789141,12.3171717 45.2686869,13.2558081 L45.1136364,13.7210859 L45.4238636,14.0313131 C47.3747475,15.9005051 48.3868687,18.479798 48.3868687,21.1325758 C48.3950758,26.6828283 43.9464646,31.1314394 38.4041667,31.1314394 Z" id="Shape" fill="#193651"></path>
                        <path d="M24.9770202,32.8536616 C20.2183081,32.8536616 16.3901515,29.0255051 16.3901515,24.2667929 C16.3901515,19.5080808 20.2183081,15.6799242 24.9770202,15.6799242 C29.7357323,15.6799242 33.5638889,19.5080808 33.5638889,24.2667929 C33.5638889,28.9520202 29.7357323,32.8536616 24.9770202,32.8536616 Z" id="Shape" fill="#FFBE00"></path>
                        <g id="Group" transform="translate(8.741919, 7.950126)" fill="#193651">
                            <rect id="Rectangle-path" x="15.6147727" y="0" width="1.55896465" height="1.71414141"></rect>
                            <rect id="Rectangle-path" transform="translate(8.669798, 2.841434) rotate(59.999272) translate(-8.669798, -2.841434) " x="7.81280913" y="2.06196854" width="1.71397744" height="1.55893035"></rect>
                            <rect id="Rectangle-path" transform="translate(3.034534, 8.442138) rotate(30.000728) translate(-3.034534, -8.442138) " x="2.17754524" y="7.66267233" width="1.71397744" height="1.55893035"></rect>
                            <rect id="Rectangle-path" x="-1.77635684e-15" y="15.3045455" width="1.71414141" height="1.55896465"></rect>
                            <rect id="Rectangle-path" x="30.6743687" y="15.3045455" width="1.71414141" height="1.55896465"></rect>
                            <rect id="Rectangle-path" transform="translate(29.466538, 8.367891) rotate(60.007099) translate(-29.466538, -8.367891) " x="28.6869812" y="7.51080739" width="1.55911369" height="1.71416646"></rect>
                            <rect id="Rectangle-path" transform="translate(23.744262, 2.808808) rotate(29.992901) translate(-23.744262, -2.808808) " x="22.964705" y="1.95172509" width="1.55911369" height="1.71416646"></rect>
                            <rect id="Rectangle-path" x="11.084596" y="15.3780303" width="1.55896465" height="1.71414141"></rect>
                            <rect id="Rectangle-path" x="15.4515152" y="15.3780303" width="1.55896465" height="1.71414141"></rect>
                            <rect id="Rectangle-path" x="19.8265152" y="15.3780303" width="1.55896465" height="1.71414141"></rect>
                        </g>
                    </g>
                </g>
            </g>
        </g>
    </g>
</svg>