<?xml version="1.0" encoding="UTF-8"?>
<svg width="50px" height="50px" viewBox="0 0 50 50" version="1.1" xmlns="http://www.w3.org/2000/svg" xmlns:xlink="http://www.w3.org/1999/xlink">
    <!-- Generator: Sketch 43.1 (39012) - http://www.bohemiancoding.com/sketch -->
    <title>flaticon1492332235-svg</title>
    <desc>Created with Sketch.</desc>
    <defs></defs>
    <g id="Page-1" stroke="none" stroke-width="1" fill="none" fill-rule="evenodd">
        <g id="MD" transform="translate(-797.000000, -8549.000000)" fill-rule="nonzero">
            <g id="Partners" transform="translate(-264.000000, 7757.000000)">
                <g id="partner-ico" transform="translate(1014.000000, 769.000000)">
                    <g id="flaticon1492332235-svg" transform="translate(47.000000, 23.004040)">
                        <g id="Group" transform="translate(15.924874, 23.418056)" fill="#193651">
                            <rect id="Rectangle-path" x="16.5453283" y="0" width="1.55896465" height="1.55896465"></rect>
                            <rect id="Rectangle-path" x="8.26856061" y="13.5823232" width="1.55896465" height="1.55896465"></rect>
                            <rect id="Rectangle-path" x="0" y="0" width="1.55896465" height="1.55896465"></rect>
                        </g>
                        <g id="Group" transform="translate(17.092172, 3.983207)" fill="#FDBF5E">
                            <path d="M7.88484848,15.9167929 C11.1661616,15.9167929 14.0474747,14.2761364 15.769697,11.7049242 C14.0555556,9.20719697 11.1660354,7.5665404 7.88484848,7.5665404 C4.60366162,7.5665404 1.72222222,9.20719697 0,11.7049242 C1.72222222,14.2843434 4.60353535,15.9167929 7.88484848,15.9167929 Z" id="Shape"></path>
                            <ellipse id="Oval" cx="7.88484848" cy="2.96300505" rx="2.96300505" ry="2.96300505"></ellipse>
                        </g>
                        <g id="Group" transform="translate(2.497727, 33.253788)" fill="#F16051">
                            <path d="M7.88484848,15.9167929 C11.1661616,15.9167929 14.0474747,14.2761364 15.769697,11.7049242 C14.0555556,9.20719697 11.1660354,7.5665404 7.88484848,7.5665404 C4.60366162,7.5665404 1.72222222,9.20719697 0,11.7049242 C1.64065657,14.2842172 4.53017677,15.9167929 7.88484848,15.9167929 Z" id="Shape"></path>
                            <ellipse id="Oval" cx="7.88484848" cy="2.96300505" rx="2.96300505" ry="2.96300505"></ellipse>
                        </g>
                        <g id="Group" transform="translate(31.686616, 33.253788)" fill="#2EA2DB">
                            <path d="M7.88484848,15.9167929 C11.1661616,15.9167929 14.0474747,14.2761364 15.769697,11.7049242 C14.0555556,9.20719697 11.1660354,7.5665404 7.88484848,7.5665404 C4.60353535,7.5665404 1.72222222,9.20719697 0,11.7049242 C1.72222222,14.2842172 4.61174242,15.9167929 7.88484848,15.9167929 Z" id="Shape"></path>
                            <ellipse id="Oval" cx="7.88484848" cy="2.96300505" rx="2.96300505" ry="2.96300505"></ellipse>
                        </g>
                        <path d="M39.5714646,29.2705808 C36.8369949,29.2705808 34.4209596,30.3643939 32.5435606,32.0050505 L25.7525253,28.1032828 L25.7525253,20.6917929 C31.0580808,20.3 35.3515152,15.8515152 35.3515152,10.3907828 C35.3597222,4.60366162 30.6744949,0 24.9770202,0 C19.2795455,0 14.5944444,4.60366162 14.5944444,10.3825758 C14.5944444,15.8431818 18.8063131,20.2917929 24.1934343,20.6835859 L24.1934343,28.0950758 L17.4022727,31.9967172 C15.5330808,30.2825758 13.1088384,29.2622475 10.3743687,29.2622475 C4.60366162,29.2705808 0,33.8741162 0,39.5714646 C0,45.3505051 4.60366162,49.9540404 10.3825758,49.9540404 C16.0799242,49.9540404 20.7651515,45.3503788 20.7651515,39.5714646 C20.7651515,37.1554293 19.9080808,34.967803 18.5041667,33.172096 L25.0585859,29.4255051 L31.6130051,33.172096 C30.2090909,34.967803 29.3520202,37.155303 29.3520202,39.5714646 C29.3520202,45.2688131 33.9556818,49.9540404 39.734596,49.9540404 C45.3584596,49.9540404 49.9621212,45.3503788 49.9621212,39.5714646 C49.9540404,33.8741162 45.3505051,29.2705808 39.5714646,29.2705808 Z M10.3825758,48.3950758 C5.46881313,48.3950758 1.55896465,44.4934343 1.55896465,39.5714646 C1.55896465,34.7311869 5.46060606,30.7478535 10.3825758,30.7478535 C15.2228535,30.7478535 19.2061869,34.6494949 19.2061869,39.5714646 C19.1246212,44.4934343 15.2229798,48.3950758 10.3825758,48.3950758 Z M16.1534091,10.382702 C16.1534091,5.46893939 20.1366162,1.55909091 24.9770202,1.55909091 C29.8174242,1.55909091 33.8006313,5.46073232 33.8006313,10.382702 C33.8006313,15.2229798 29.8989899,19.2063131 24.9770202,19.2063131 C20.1367424,19.1246212 16.1534091,15.2229798 16.1534091,10.382702 Z M39.5714646,48.3950758 C34.7311869,48.3950758 30.7478535,44.4934343 30.7478535,39.5714646 C30.7478535,34.7311869 34.6494949,30.7478535 39.5714646,30.7478535 C44.4117424,30.7478535 48.3950758,34.6494949 48.3950758,39.5714646 C48.3950758,44.4934343 44.4934343,48.3950758 39.5714646,48.3950758 Z" id="Shape" fill="#193651"></path>
                    </g>
                </g>
            </g>
        </g>
    </g>
</svg>