<?xml version="1.0" encoding="UTF-8"?>
<svg width="90px" height="82px" viewBox="0 0 90 82" version="1.1" xmlns="http://www.w3.org/2000/svg" xmlns:xlink="http://www.w3.org/1999/xlink">
    <!-- Generator: Sketch 43.1 (39012) - http://www.bohemiancoding.com/sketch -->
    <title>icon</title>
    <desc>Created with Sketch.</desc>
    <defs></defs>
    <g id="Page-1" stroke="none" stroke-width="1" fill="none" fill-rule="evenodd">
        <g id="MD" transform="translate(-655.000000, -2973.000000)" fill-rule="nonzero">
            <g id="Info-Block" transform="translate(163.000000, 2772.000000)">
                <g id="icon" transform="translate(491.779243, 200.096233)">
                    <rect id="Rectangle-path" fill="#FFFFFF" x="9.26345788" y="26.2298049" width="70.6196739" height="44.7652663"></rect>
                    <rect id="Rectangle-path" fill="#2EA2DB" x="14.6990421" y="31.6653891" width="59.7344185" height="33.8797908"></rect>
                    <path d="M1.58675136,70.9950712 C1.58675136,76.8433592 8.03965353,81.4678429 13.7457514,81.4678429 L77.8343601,81.4678429 C83.4121345,81.4678429 88.0368383,76.8433592 88.0368383,70.9950712 L1.58675136,70.9950712 Z" id="Shape" fill="#FFFFFF"></path>
                    <g id="Group" transform="translate(37.423064, 74.808454)" fill="#193651">
                        <rect id="Rectangle-path" x="6.39488462e-15" y="0" width="2.71768207" height="2.71768207"></rect>
                        <rect id="Rectangle-path" x="6.94398913" y="0" width="2.71768207" height="2.71768207"></rect>
                        <rect id="Rectangle-path" x="14.0158614" y="0" width="2.71768207" height="2.71768207"></rect>
                    </g>
                    <polygon id="Shape" fill="#FFFFFF" points="36.7400666 2.28197879 24.0904198 14.9318456 24.0904198 56.025919 65.0420829 56.025919 65.0420829 2.28197879"></polygon>
                    <polygon id="Shape" fill="#D3D7DA" points="36.7400666 2.28197879 23.2650122 15.7429462 36.7400666 15.7429462"></polygon>
                    <path d="M81.2350394,24.8638103 L66.2658872,24.8638103 L66.2658872,0.915984221 L36.1994796,0.915984221 L22.7244253,14.3910386 L22.7244253,24.8638103 L7.75505299,24.8638103 L7.75505299,69.4866663 L0.220756793,69.4866663 L0.220756793,70.8526609 C0.220756793,77.3839462 7.34256929,82.6914272 13.7457514,82.6914272 L77.8343601,82.6914272 C84.2232351,82.6914272 89.4028329,77.3839462 89.4028329,70.8526609 L89.4028329,69.4866663 L81.2352595,69.4866663 L81.2350394,24.8638103 Z M25.4421073,15.4726527 L37.2808736,3.6338864 L63.5479851,3.6338864 L63.5479851,54.6599244 L25.4421073,54.6599244 L25.4421073,15.4726527 Z M10.6151454,27.5817125 L22.8666155,27.5817125 L22.8666155,57.3778266 L66.4080774,57.3778266 L66.4080774,27.5817125 L78.6595476,27.5817125 L78.6595476,69.4868864 L10.6151454,69.4868864 L10.6151454,27.5817125 Z M77.8341399,79.9737451 L13.7457514,79.9737451 C9.39156114,79.9737451 3.76384647,76.5728456 3.08084918,72.2188755 L86.5425204,72.2188755 C85.8595231,76.7009489 82.1883302,79.9737451 77.8341399,79.9737451 Z" id="Shape" fill="#193651"></path>
                    <g id="Group" transform="translate(33.211284, 33.031384)" fill="#193651">
                        <rect id="Rectangle-path" x="-6.39488462e-15" y="0" width="22.7240217" height="2.71768207"></rect>
                        <rect id="Rectangle-path" x="-6.39488462e-15" y="7.48457609" width="22.7240217" height="2.71768207"></rect>
                    </g>
                </g>
            </g>
        </g>
    </g>
</svg>