<?xml version="1.0" encoding="UTF-8"?>
<svg width="49px" height="50px" viewBox="0 0 49 50" version="1.1" xmlns="http://www.w3.org/2000/svg" xmlns:xlink="http://www.w3.org/1999/xlink">
    <!-- Generator: Sketch 43.1 (39012) - http://www.bohemiancoding.com/sketch -->
    <title>flaticon1492332246-svg</title>
    <desc>Created with Sketch.</desc>
    <defs></defs>
    <g id="Page-1" stroke="none" stroke-width="1" fill="none" fill-rule="evenodd">
        <g id="MD" transform="translate(-1040.000000, -8548.000000)" fill-rule="nonzero">
            <g id="Partners" transform="translate(-264.000000, 7757.000000)">
                <g id="percent-ico" transform="translate(1248.000000, 768.000000)">
                    <g id="flaticon1492332246-svg" transform="translate(56.076582, 23.000000)">
                        <path d="M25.0321519,0.78556962 L25.0321519,0.78556962 C17.364557,0.78556962 11.104557,7.0456962 11.104557,14.7131646 L11.104557,14.7131646 C11.104557,22.3807595 17.3646835,28.6407595 25.0321519,28.6407595 L25.0321519,28.6407595 C32.6997468,28.6407595 38.9597468,22.3806329 38.9597468,14.7131646 L38.9597468,14.7131646 C38.9679747,7.0456962 32.7078481,0.78556962 25.0321519,0.78556962 Z" id="Shape" fill="#FFFFFF"></path>
                        <path d="M25.0321519,29.4182278 C16.8981013,29.4182278 10.3189873,22.8472152 10.3189873,14.7050633 C10.3189873,6.56291139 16.8981013,0 25.0321519,0 C33.1662025,0 39.7453165,6.57101266 39.7453165,14.7131646 C39.7453165,22.8553165 33.1743038,29.4182278 25.0321519,29.4182278 Z M25.0321519,1.56291139 C17.7573418,1.56291139 11.8901266,7.43025316 11.8901266,14.7049367 C11.8901266,21.9796203 17.7574684,27.846962 25.0321519,27.846962 C32.3068354,27.846962 38.1741772,21.9797468 38.1741772,14.7050633 C38.1741772,7.43037975 32.3150633,1.56291139 25.0321519,1.56291139 Z" id="Shape" fill="#193651"></path>
                        <path d="M25.0321519,25.5067089 C19.083038,25.5067089 14.2305063,20.6541772 14.2305063,14.7050633 C14.2305063,8.75594937 19.083038,3.90341772 25.0321519,3.90341772 C30.9812658,3.90341772 35.8337975,8.75594937 35.8337975,14.7050633 C35.8337975,20.6541772 30.9812658,25.5067089 25.0321519,25.5067089 Z" id="Shape" fill="#FDBF5E"></path>
                        <rect id="Rectangle-path" fill="#FFFFFF" x="0.777468354" y="28.6408861" width="7.43025316" height="17.135443"></rect>
                        <g id="Group" transform="translate(0.000000, 7.520253)" fill="#193651">
                            <path d="M25.0321519,6.48924051 C24.0174684,6.48924051 23.15,5.63 23.15,4.61531646 C23.15,3.60063291 24.0092405,2.74139241 25.0321519,2.74139241 C26.0550633,2.74139241 26.9143038,3.60063291 26.9143038,4.61531646 L28.4772152,4.61531646 C28.4772152,2.97050633 27.3070886,1.64481013 25.8177215,1.25202532 L25.8177215,0 L24.2548101,0 L24.2548101,1.25202532 C22.6918987,1.64481013 21.5953165,2.97050633 21.5953165,4.61531646 C21.5953165,6.48924051 23.1582278,8.06037975 25.0403797,8.06037975 C26.0550633,8.06037975 26.9225316,8.91962025 26.9225316,9.94253165 C26.9225316,10.965443 26.0632911,11.8164557 25.0403797,11.8164557 C24.0256962,11.8164557 23.1582278,10.9572152 23.1582278,9.94253165 L21.5953165,9.94253165 C21.5953165,11.5873418 22.765443,12.913038 24.2548101,13.3058228 L24.2548101,14.4024051 L25.8177215,14.4024051 L25.8177215,13.3058228 C27.3806329,12.913038 28.4772152,11.5873418 28.4772152,9.94253165 C28.4772152,8.0521519 26.9143038,6.48924051 25.0321519,6.48924051 Z" id="Shape"></path>
                            <rect id="Rectangle-path" x="3.6743038" y="24.5656962" width="1.56291139" height="1.56291139"></rect>
                            <rect id="Rectangle-path" x="3.6743038" y="28.9436709" width="1.56291139" height="1.56291139"></rect>
                            <rect id="Rectangle-path" x="3.6743038" y="33.3297468" width="1.56291139" height="1.56291139"></rect>
                            <rect id="Rectangle-path" x="31.5294937" y="6.33367089" width="1.56291139" height="1.71848101"></rect>
                            <rect id="Rectangle-path" x="16.98" y="6.33367089" width="1.56291139" height="1.71848101"></rect>
                            <path d="M48.5094937,28.2398734 C47.7239241,26.5950633 45.85,25.8177215 44.2051899,26.4396203 L33.5672152,30.0401266 C33.6489873,29.8027848 33.6489873,29.4918987 33.6489873,29.1808861 C33.6489873,27.1432911 32.0041772,25.5067089 29.9748101,25.5067089 L22.07,25.5067089 C21.8326582,25.5067089 21.5217722,25.4249367 21.2844304,25.3512658 L16.194557,22.6917722 L16.1127848,22.61 C15.6463291,22.454557 15.1717722,22.3726582 14.7053165,22.3726582 L8.99329114,22.3726582 L8.99329114,20.2613924 L0,20.2613924 L0,38.9597468 L9.00139241,38.9597468 L9.00139241,37.3149367 L10.9572152,37.3149367 L25.5149367,42.1674684 C26.0631646,42.3229114 26.611519,42.478481 27.2334177,42.478481 C28.0926582,42.478481 28.9518987,42.2411392 29.7374684,41.8483544 L47.0283544,32.691519 C48.5912658,31.9222785 49.2950633,29.9583544 48.5094937,28.2398734 Z M7.43025316,37.4703797 L7.43025316,37.5521519 L1.56303797,37.5521519 L1.56303797,21.8979747 L7.43037975,21.8979747 L7.43037975,37.4703797 L7.43025316,37.4703797 Z M46.2426582,31.4475949 L28.9517722,40.5226582 C28.0107595,40.9891139 26.9141772,41.0708861 25.8994937,40.76 L11.1126582,35.8337975 L8.91962025,35.8337975 L8.91962025,24.0174684 L14.6313924,24.0174684 C14.9424051,24.0174684 15.1796203,24.0992405 15.4906329,24.1729114 L20.5805063,26.8324051 L20.6622785,26.9141772 C21.0550633,27.0696203 21.521519,27.151519 21.9960759,27.151519 L29.9008861,27.151519 C31.0710127,27.151519 32.0121519,28.0925316 32.0121519,29.2627848 C32.0121519,29.8846835 31.7011392,30.4329114 31.3083544,30.8256962 L29.8189873,31.3739241 L23.4034177,31.3739241 C21.7586076,31.3739241 20.4329114,32.7077215 20.4329114,34.3444304 L21.9958228,34.3444304 C21.9958228,33.5588608 22.6177215,32.936962 23.4032911,32.936962 L29.9006329,32.936962 C30.6862025,32.936962 31.39,32.6996203 32.0118987,32.2331646 L44.6139241,27.9288608 C45.5549367,27.6178481 46.5697468,28.0106329 46.9625316,28.9435443 C47.4946835,29.8029114 47.1837975,30.9812658 46.2426582,31.4475949 Z" id="Shape"></path>
                        </g>
                    </g>
                </g>
            </g>
        </g>
    </g>
</svg>