<?xml version="1.0" encoding="UTF-8"?>
<svg width="50px" height="50px" viewBox="0 0 50 50" version="1.1" xmlns="http://www.w3.org/2000/svg" xmlns:xlink="http://www.w3.org/1999/xlink">
    <!-- Generator: Sketch 43.1 (39012) - http://www.bohemiancoding.com/sketch -->
    <title>flaticon1491910992-svg</title>
    <desc>Created with Sketch.</desc>
    <defs></defs>
    <g id="Page-1" stroke="none" stroke-width="1" fill="none" fill-rule="evenodd">
        <g id="MD" transform="translate(-554.000000, -866.000000)" fill-rule="nonzero">
            <g id="Benefits" transform="translate(279.000000, 843.000000)">
                <g id="Orders" transform="translate(236.000000, 0.000000)">
                    <g id="flaticon1491910992-svg" transform="translate(39.000000, 23.000000)">
                        <path d="M29.8174242,49.1704545 L26.2748737,41.3998737 C27.3522727,40.910101 28.1032828,39.8244949 28.1032828,38.5593434 C28.1032828,36.8371212 26.7074495,35.4330808 24.9770202,35.4330808 C23.254798,35.4330808 21.8507576,36.8289141 21.8507576,38.5593434 C21.8507576,39.8244949 22.6016414,40.910101 23.6791667,41.3998737 L20.1366162,49.1704545 L29.8174242,49.1704545 Z" id="Shape" fill="#FFFFFF"></path>
                        <circle id="Oval" fill="#D3D7DA" cx="24.9770202" cy="8.66035354" r="7.88484848"></circle>
                        <circle id="Oval" fill="#FDBF5E" cx="41.2936869" cy="22.7895202" r="7.88484848"></circle>
                        <g id="Group" transform="translate(5.534091, 35.433081)" fill="#FFFFFF">
                            <ellipse id="Oval" cx="19.4429293" cy="3.12626263" rx="3.12626263" ry="3.12626263"></ellipse>
                            <ellipse id="Oval" cx="3.12626263" cy="3.12626263" rx="3.12626263" ry="3.12626263"></ellipse>
                        </g>
                        <path d="M42.0691919,26.7727273 L40.510101,26.7727273 L40.510101,22.7895202 L41.2936869,22.7895202 C42.1507576,22.7895202 42.9343434,22.0875 42.9343434,21.1488636 C42.9343434,20.2917929 42.1507576,19.5082071 41.2936869,19.5082071 C40.4366162,19.5082071 39.6530303,20.2102273 39.6530303,21.1488636 L38.0940657,21.1488636 C38.0940657,19.3531566 39.4979798,17.9492424 41.2936869,17.9492424 C43.0893939,17.9492424 44.4933081,19.3531566 44.4933081,21.1488636 C44.4933081,22.6344697 43.4811869,23.8833333 42.0772727,24.2751263 L42.0772727,26.7728535 L42.0691919,26.7728535 L42.0691919,26.7727273 Z" id="SVGCleanerId_0" fill="#193651"></path>
                        <g id="Group" transform="translate(16.316667, 29.890783)" fill="#193651">
                            <rect id="Rectangle-path" x="15.7617424" y="0" width="1.55896465" height="1.55896465"></rect>
                            <rect id="Rectangle-path" x="15.7617424" y="5.93409091" width="1.55896465" height="1.55896465"></rect>
                            <rect id="Rectangle-path" x="15.7617424" y="11.9416667" width="1.55896465" height="1.55896465"></rect>
                            <rect id="Rectangle-path" x="0" y="0" width="1.55896465" height="1.55896465"></rect>
                            <rect id="Rectangle-path" x="0" y="5.93409091" width="1.55896465" height="1.55896465"></rect>
                            <rect id="Rectangle-path" x="0" y="11.9416667" width="1.55896465" height="1.55896465"></rect>
                        </g>
                        <circle id="Oval" fill="#4FBF9F" cx="8.66035354" cy="22.7895202" r="7.88484848"></circle>
                        <circle id="Oval" fill="#FDBF5E" cx="41.2936869" cy="22.7895202" r="7.88484848"></circle>
                        <path d="M46.1258838,49.1704545 L42.5833333,41.3998737 C43.6607323,40.910101 44.4117424,39.8244949 44.4117424,38.5593434 C44.4117424,36.8371212 43.0159091,35.4330808 41.2854798,35.4330808 C39.5632576,35.4330808 38.1592172,36.8289141 38.1592172,38.5593434 C38.1592172,39.8244949 38.910101,40.910101 39.9876263,41.3998737 L36.4450758,49.1704545 L46.1258838,49.1704545 Z" id="Shape" fill="#FFFFFF"></path>
                        <path d="M49.9540404,22.7160354 C49.9540404,17.9573232 46.052399,14.0556818 41.2936869,14.0556818 C36.5349747,14.0556818 32.6333333,17.9573232 32.6333333,22.7160354 C32.6333333,27.2135101 36.1186869,30.9438131 40.5183081,31.3436869 L40.5183081,34.7392677 C38.7551768,35.0983586 37.3839646,36.6492424 37.3839646,38.5593434 C37.3839646,39.8897727 38.0125,40.9753788 39.0246212,41.6856061 L35.2045455,49.9541667 L47.3012626,49.9541667 L43.5546717,41.677399 C44.4933081,40.9753788 45.1953283,39.8 45.1953283,38.5511364 C45.1953283,36.6982323 43.8729798,35.0902778 42.0772727,34.7310606 L42.0772727,31.3436869 C46.4686869,30.9438131 49.9540404,27.2135101 49.9540404,22.7160354 Z M34.1842172,22.7895202 C34.1842172,18.8878788 37.3838384,15.6882576 41.2854798,15.6882576 C45.1871212,15.6882576 48.3867424,18.8878788 48.3867424,22.7895202 C48.3867424,26.6911616 45.1871212,29.8907828 41.2854798,29.8907828 C37.3838384,29.8907828 34.1842172,26.6911616 34.1842172,22.7895202 Z M44.8770202,48.3950758 L37.6205808,48.3950758 L40.4284091,42.3059343 C40.7386364,42.3875 41.9140152,42.3875 42.1425505,42.3059343 L44.8770202,48.3950758 Z M43.6281566,38.5593434 C43.6281566,39.8897727 42.6160354,40.9020202 41.2854798,40.9020202 C39.9550505,40.8204545 38.942803,39.8082071 38.942803,38.5593434 C38.942803,37.3104798 39.9549242,36.2166667 41.2854798,36.2166667 C42.5425505,36.2166667 43.6281566,37.2289141 43.6281566,38.5593434 Z" id="Shape" fill="#193651"></path>
                        <path d="M13.5006313,49.1704545 L9.95808081,41.3998737 C11.0354798,40.910101 11.7864899,39.8244949 11.7864899,38.5593434 C11.7864899,36.8371212 10.3906566,35.4330808 8.66022727,35.4330808 C6.92979798,35.4330808 5.53396465,36.8289141 5.53396465,38.5593434 C5.53396465,39.8244949 6.28484848,40.910101 7.36237374,41.3998737 L3.82007576,49.1704545 L13.5006313,49.1704545 Z" id="Shape" fill="#FFFFFF"></path>
                        <path d="M42.0691919,26.7727273 L40.510101,26.7727273 L40.510101,22.7895202 L41.2936869,22.7895202 C42.1507576,22.7895202 42.9343434,22.0875 42.9343434,21.1488636 C42.9343434,20.2917929 42.1507576,19.5082071 41.2936869,19.5082071 C40.4366162,19.5082071 39.6530303,20.2102273 39.6530303,21.1488636 L38.0940657,21.1488636 C38.0940657,19.3531566 39.4979798,17.9492424 41.2936869,17.9492424 C43.0893939,17.9492424 44.4933081,19.3531566 44.4933081,21.1488636 C44.4933081,22.6344697 43.4811869,23.8833333 42.0772727,24.2751263 L42.0772727,26.7728535 L42.0691919,26.7728535 L42.0691919,26.7727273 Z" id="SVGCleanerId_0_1_" fill="#193651"></path>
                        <g id="Group" fill="#193651">
                            <path d="M8.66035354,21.6222222 C8.1135101,21.6222222 7.64823232,21.1569444 7.64823232,20.610101 C7.64823232,20.0632576 8.1135101,19.5979798 8.66035354,19.5979798 C9.20719697,19.5979798 9.67247475,20.0632576 9.67247475,20.610101 L11.2314394,20.610101 C11.2314394,19.4755051 10.4723485,18.4960859 9.43573232,18.1613636 L9.43573232,17.5655303 L7.88484848,17.5655303 L7.88484848,18.1613636 C6.84823232,18.4960859 6.08914141,19.4755051 6.08914141,20.610101 C6.08914141,22.0140152 7.25631313,23.1893939 8.66843434,23.1893939 C9.21527778,23.1893939 9.68055556,23.6546717 9.68055556,24.2015152 C9.68055556,24.7483586 9.21527778,25.2136364 8.66843434,25.2136364 C8.12159091,25.2136364 7.65631313,24.7483586 7.65631313,24.2015152 L6.08914141,24.2015152 C6.08914141,25.3361111 6.84823232,26.3155303 7.88484848,26.6502525 L7.88484848,27.1645202 L9.44381313,27.1645202 L9.44381313,26.6502525 C10.4804293,26.3155303 11.2395202,25.3361111 11.2395202,24.2015152 C11.2396465,22.7895202 10.0724747,21.6222222 8.66035354,21.6222222 Z" id="Shape"></path>
                            <rect id="Rectangle-path" x="22.1691919" y="7.88484848" width="1.55896465" height="1.55896465"></rect>
                            <rect id="Rectangle-path" x="26.2258838" y="7.88484848" width="1.55896465" height="1.55896465"></rect>
                            <path d="M33.6373737,8.66035354 C33.6373737,3.90164141 29.7357323,0 24.9770202,0 C20.2183081,0 16.3166667,3.90164141 16.3166667,8.74191919 C16.3166667,13.2393939 19.8020202,16.969697 24.2016414,17.3695707 L24.2016414,34.7474747 C22.4385101,35.1310606 21.1570707,36.6656566 21.1570707,38.5593434 C21.1570707,39.8897727 21.777399,40.9753788 22.7977273,41.6856061 L18.8878788,49.9541667 L31.0662879,49.9541667 L27.319697,41.677399 C28.2583333,40.9753788 28.9603535,39.8 28.9603535,38.5511364 C28.9603535,36.6737374 27.5972222,35.0494949 25.7607323,34.7147727 L25.7607323,17.369697 C30.1602273,16.969697 33.6373737,13.2395202 33.6373737,8.66035354 Z M28.5685606,48.3950758 L21.3121212,48.3950758 L24.1199495,42.3059343 C24.4301768,42.3875 25.6055556,42.3875 25.8340909,42.3059343 L28.5685606,48.3950758 Z M27.319697,38.5593434 C27.319697,39.8897727 26.3075758,40.9020202 24.9770202,40.9020202 C23.6464646,40.9020202 22.6343434,39.8082071 22.6343434,38.5593434 C22.6343434,37.3104798 23.6464646,36.2166667 24.9770202,36.2166667 C26.3075758,36.2166667 27.319697,37.2289141 27.319697,38.5593434 Z M24.9770202,15.7698232 C21.0753788,15.7698232 17.8757576,12.570202 17.8757576,8.66856061 C17.8757576,4.76691919 21.0753788,1.56729798 24.9770202,1.56729798 C28.8786616,1.56729798 32.0782828,4.76691919 32.0782828,8.66856061 C32.0782828,12.570202 28.8786616,15.7698232 24.9770202,15.7698232 Z" id="Shape"></path>
                            <path d="M17.3287879,22.7160354 C17.3287879,17.9573232 13.4271465,14.0556818 8.66843434,14.0556818 C3.90972222,14.0556818 0,17.9492424 0,22.7160354 C0,27.2135101 3.48535354,30.9438131 7.88484848,31.3436869 L7.88484848,34.7392677 C6.12992424,35.0983586 4.75858586,36.6492424 4.75858586,38.5593434 C4.75858586,39.8897727 5.38712121,40.9753788 6.39924242,41.6856061 L2.57916667,49.9541667 L14.6758838,49.9541667 L10.9292929,41.677399 C11.8679293,40.9753788 12.5699495,39.8 12.5699495,38.5511364 C12.5699495,36.6982323 11.247601,35.0902778 9.45189394,34.7310606 L9.45189394,31.3436869 C13.8434343,30.9438131 17.3287879,27.2135101 17.3287879,22.7160354 Z M1.55896465,22.7895202 C1.55896465,18.8878788 4.75858586,15.6882576 8.66022727,15.6882576 C12.5618687,15.6882576 15.7614899,18.8878788 15.7614899,22.7895202 C15.7614899,26.6911616 12.5618687,29.8907828 8.66022727,29.8907828 C4.75858586,29.8907828 1.55896465,26.6911616 1.55896465,22.7895202 Z M12.2517677,48.3950758 L4.99545455,48.3950758 L7.80328283,42.3059343 C8.1135101,42.3875 9.28888889,42.3875 9.51742424,42.3059343 L12.2517677,48.3950758 Z M11.002904,38.5593434 C11.002904,39.8897727 9.99078283,40.9020202 8.66022727,40.9020202 C7.32979798,40.8204545 6.31755051,39.8082071 6.31755051,38.5593434 C6.31755051,37.3104798 7.32967172,36.2166667 8.66022727,36.2166667 C9.90921717,36.2166667 11.002904,37.2289141 11.002904,38.5593434 Z" id="Shape"></path>
                        </g>
                    </g>
                </g>
            </g>
        </g>
    </g>
</svg>