<?xml version="1.0" encoding="UTF-8"?>
<svg width="32px" height="32px" viewBox="0 0 32 32" version="1.1" xmlns="http://www.w3.org/2000/svg" xmlns:xlink="http://www.w3.org/1999/xlink">
    <!-- Generator: Sketch 43.1 (39012) - http://www.bohemiancoding.com/sketch -->
    <title>Skype</title>
    <desc>Created with Sketch.</desc>
    <defs></defs>
    <g id="Page-1" stroke="none" stroke-width="1" fill="none" fill-rule="evenodd">
        <g id="MD" transform="translate(-1071.000000, -6900.000000)" fill-rule="nonzero" fill="#4580E0">
            <g id="About-me-" transform="translate(-264.000000, 6093.000000)">
                <g id="Content" transform="translate(493.000000, 191.000000)">
                    <g id="Info" transform="translate(0.079861, 595.231029)">
                        <g id="skype" transform="translate(816.000000, 20.879828)">
                            <path d="M56.6011323,18.1745998 C56.720297,17.4249469 56.7830348,16.6580198 56.7830348,15.8752211 C56.7830348,7.7390319 50.1497541,1.14385748 41.9665151,1.14385748 C41.18129,1.14385748 40.4077216,1.20815563 39.6544223,1.32530967 C38.2898561,0.485816463 36.6793132,0 34.9533179,0 C30.0086125,0 26,3.98515665 26,8.90208286 C26,10.6178322 26.4889095,12.21783 27.3328631,13.5773189 C27.2160742,14.3282268 27.1517773,15.0927178 27.1517773,15.8755164 C27.1517773,24.0122963 33.7849095,30.6054775 41.9662181,30.6054775 C42.7521114,30.6054775 43.5259026,30.5452395 44.2791276,30.427052 C45.6451044,31.2649211 47.2543109,31.7520664 48.979935,31.7520664 C53.9259768,31.7520664 57.9341439,27.7658762 57.9341439,22.8490977 C57.9345151,21.1326839 57.4459026,19.5330552 56.6011323,18.1745998 Z M49.0010951,22.5752215 C48.3743109,23.4723689 47.453587,24.1734476 46.2505058,24.6775717 C45.0449745,25.1830246 43.6201206,25.434533 41.9746821,25.434533 C40.0025615,25.434533 38.3697448,25.0914127 37.0809095,24.3985281 C36.1673132,23.9023767 35.4242599,23.2368059 34.8530116,22.4068356 C34.2805754,21.5762009 33.990348,20.7627666 33.990348,19.969633 C33.990348,19.501755 34.1698005,19.0948533 34.5191276,18.7631014 C34.8720928,18.4289134 35.3267007,18.2614134 35.8632761,18.2614134 C36.3028121,18.2614134 36.6803527,18.3930364 36.9877309,18.6538462 C37.2928074,18.9145823 37.5487332,19.2936534 37.7580325,19.793865 C38.0089095,20.3733604 38.2813921,20.8577743 38.5713225,21.2443014 C38.859471,21.6260302 39.2650023,21.9447157 39.7902181,22.1941571 C40.3096427,22.4442629 41.0009466,22.5693158 41.8659861,22.5693158 C43.0498376,22.5693158 44.0065708,22.3147069 44.7387842,21.8124284 C45.47471,21.3055729 45.8281949,20.6888717 45.8281949,19.9437218 C45.8281949,19.3493884 45.6376056,18.8773764 45.2467749,18.5093784 C44.8523805,18.136582 44.3430534,17.8526662 43.7109977,17.6546042 C43.0764919,17.4544753 42.224594,17.2422397 41.1570116,17.0186357 C39.723471,16.7075537 38.5245476,16.3454614 37.5536334,15.9296273 C36.5814571,15.5122429 35.8072204,14.9416799 35.2333735,14.2209648 C34.6583387,13.4931629 34.3716009,12.5885595 34.3716009,11.5171204 C34.3716009,10.4954368 34.6743016,9.58175345 35.280297,8.78655288 C35.8859954,7.98913768 36.7623202,7.37878507 37.9049652,6.95364953 C39.0436009,6.52866163 40.3841114,6.31605695 41.9198144,6.31605695 C43.1479165,6.31605695 44.2102274,6.45735047 45.10942,6.73846111 C46.0061624,7.02163873 46.7536705,7.39532099 47.3513503,7.86423243 C47.9452436,8.33211037 48.3822552,8.82560423 48.6590441,9.34345903 C48.9356102,9.86286408 49.0748956,10.3701625 49.0748956,10.8652066 C49.0748956,11.3254809 48.8954432,11.7429391 48.5457448,12.1087963 C48.1961206,12.4751703 47.7488631,12.6619376 47.2265429,12.6602397 C46.7556752,12.6602397 46.3863016,12.5522395 46.1301531,12.3236156 C45.8806868,12.1024477 45.6186729,11.7503212 45.3352761,11.2595587 C44.9770394,10.5747945 44.5479722,10.0412896 44.0490394,9.6597085 C43.5632483,9.28521421 42.7617633,9.09025276 41.6465151,9.09261504 C40.614645,9.09261504 39.7890302,9.30226688 39.165884,9.7122691 C38.538877,10.1288414 38.2391462,10.6121479 38.2377355,11.1784294 C38.2387749,11.5332873 38.3413828,11.8324841 38.5478608,12.0883479 C38.7575313,12.346574 39.0492436,12.5703257 39.4241856,12.7589385 C39.7992761,12.9505042 40.180826,13.0986631 40.564232,13.2052607 C40.9521671,13.3145897 41.5958051,13.4726406 42.4904687,13.6819233 C43.6124733,13.9223586 44.6301624,14.1909934 45.5446497,14.4837678 C46.457355,14.7780186 47.2362691,15.1328765 47.8797587,15.5556497 C48.5283712,15.977168 49.0353225,16.5145854 49.3971972,17.1636941 C49.7616705,17.8138363 49.9432019,18.6079295 49.9432019,19.5423566 C49.9446125,20.6675374 49.6293643,21.6794766 49.0010951,22.5752215 Z" id="Skype"></path>
                        </g>
                    </g>
                </g>
            </g>
        </g>
    </g>
</svg>