<!-- Generated by IcoMoon.io -->
<svg version="1.1" xmlns="http://www.w3.org/2000/svg" width="32" height="32" viewBox="0 0 32 32">
<title>icon-skype</title>
<path d="M30.681 18.285c0.119-0.75 0.182-1.517 0.182-2.299 0-8.136-6.633-14.731-14.817-14.731-0.785 0-1.559 0.064-2.312 0.181-1.365-0.84-2.975-1.325-4.701-1.325-4.945 0-8.953 3.985-8.953 8.902 0 1.716 0.489 3.316 1.333 4.675-0.117 0.751-0.181 1.515-0.181 2.298 0 8.137 6.633 14.73 14.814 14.73 0.786 0 1.56-0.060 2.313-0.178 1.366 0.838 2.975 1.325 4.701 1.325 4.946 0 8.954-3.986 8.954-8.903 0-1.716-0.488-3.316-1.333-4.674zM23.081 22.686c-0.627 0.897-1.547 1.598-2.751 2.102-1.206 0.505-2.63 0.757-4.276 0.757-1.972 0-3.605-0.343-4.894-1.036-0.914-0.496-1.657-1.162-2.228-1.992s-0.863-1.644-0.863-2.437c0-0.468 0.179-0.875 0.529-1.207 0.353-0.334 0.808-0.502 1.344-0.502 0.44 0 0.817 0.132 1.124 0.392 0.305 0.261 0.561 0.64 0.77 1.14 0.251 0.579 0.523 1.064 0.813 1.45 0.288 0.382 0.694 0.7 1.219 0.95 0.519 0.25 1.211 0.375 2.076 0.375 1.184 0 2.141-0.255 2.873-0.757 0.736-0.507 1.089-1.124 1.089-1.869 0-0.594-0.191-1.066-0.581-1.434-0.394-0.373-0.904-0.657-1.536-0.855-0.634-0.2-1.486-0.412-2.554-0.636-1.434-0.311-2.632-0.673-3.603-1.089-0.972-0.417-1.746-0.988-2.32-1.709-0.575-0.728-0.862-1.632-0.862-2.704 0-1.022 0.303-1.935 0.909-2.731 0.606-0.797 1.482-1.408 2.625-1.833 1.139-0.425 2.479-0.638 4.015-0.638 1.228 0 2.29 0.141 3.19 0.422 0.897 0.283 1.644 0.657 2.242 1.126 0.594 0.468 1.031 0.961 1.308 1.479 0.277 0.519 0.416 1.027 0.416 1.522 0 0.46-0.179 0.878-0.529 1.244s-0.797 0.553-1.319 0.551c-0.471 0-0.84-0.108-1.096-0.337-0.249-0.221-0.511-0.573-0.795-1.064-0.358-0.685-0.787-1.218-1.286-1.6-0.486-0.374-1.287-0.569-2.403-0.567-1.032 0-1.857 0.21-2.481 0.62-0.627 0.417-0.927 0.9-0.928 1.466 0.001 0.355 0.104 0.654 0.31 0.91 0.21 0.258 0.501 0.482 0.876 0.671 0.375 0.192 0.757 0.34 1.14 0.446 0.388 0.109 1.032 0.267 1.926 0.477 1.122 0.24 2.14 0.509 3.054 0.802 0.913 0.294 1.692 0.649 2.335 1.072 0.649 0.422 1.156 0.959 1.517 1.608 0.364 0.65 0.546 1.444 0.546 2.379 0.001 1.125-0.314 2.137-0.942 3.033z"></path>
</svg>
