<?xml version="1.0" encoding="UTF-8"?>
<svg width="24px" height="14px" viewBox="0 0 24 14" version="1.1" xmlns="http://www.w3.org/2000/svg" xmlns:xlink="http://www.w3.org/1999/xlink">
    <!-- Generator: Sketch 43.1 (39012) - http://www.bohemiancoding.com/sketch -->
    <title>XMLID_807_</title>
    <desc>Created with Sketch.</desc>
    <defs></defs>
    <g id="Page-1" stroke="none" stroke-width="1" fill="none" fill-rule="evenodd">
        <g id="MD" transform="translate(-1122.000000, -66.000000)" fill-rule="nonzero" fill="#FFFFFF">
            <g id="Header" transform="translate(-261.000000, 0.000000)">
                <g id="VK-Button" transform="translate(1266.000000, 50.000000)">
                    <path d="M137.612066,24.6223738 C138.406505,25.3980066 139.24501,26.1277639 139.957534,26.9816131 C140.272289,27.3610492 140.570282,27.7526033 140.798243,28.1929443 C141.121259,28.8189115 140.828695,29.5077508 140.26741,29.5451279 L136.778361,29.5435541 C135.878479,29.6182295 135.160603,29.2559475 134.556984,28.640682 C134.073915,28.1486426 133.62657,27.6249705 133.162072,27.1163279 C132.971646,26.9084328 132.772328,26.7128131 132.534216,26.5581902 C132.057915,26.249023 131.644485,26.3436852 131.372302,26.8404459 C131.095082,27.3457049 131.03221,27.9051803 131.004984,28.4682754 C130.967607,29.2898623 130.719266,29.5058623 129.89398,29.5434754 C128.130256,29.6266492 126.456393,29.3598164 124.90143,28.4700852 C123.530518,27.685718 122.467436,26.5784131 121.542138,25.3248262 C119.740564,22.8838295 118.360918,20.2015738 117.120944,17.4441705 C116.841836,16.8229246 117.045954,16.4894426 117.73141,16.4776393 C118.869639,16.4555279 120.007711,16.4571016 121.147279,16.4760656 C121.609889,16.4828328 121.916144,16.7481705 122.094767,17.1852066 C122.710584,18.6994098 123.464105,20.1400393 124.409941,21.4753836 C124.661823,21.8308984 124.918662,22.1864131 125.284407,22.4366426 C125.689023,22.7137049 125.997089,22.6218754 126.187436,22.1711475 C126.308223,21.8853508 126.361102,21.5775213 126.388328,21.271423 C126.478505,20.2183344 126.490387,19.1670557 126.332223,18.1176656 C126.235121,17.462741 125.86623,17.0387672 125.212721,16.9148328 C124.879239,16.8516459 124.928892,16.7275541 125.090361,16.5372066 C125.370807,16.208918 125.63457,16.0045639 126.160367,16.0045639 L130.103528,16.0045639 C130.724302,16.127082 130.862164,16.4059541 130.947148,17.0305836 L130.950531,21.410623 C130.943764,21.6524328 131.071318,22.3699934 131.506859,22.5300459 C131.855449,22.6439869 132.08522,22.3651148 132.294374,22.1440787 C133.238479,21.142059 133.912289,19.9578754 134.514256,18.7316721 C134.781403,18.1924984 135.011095,17.6325508 135.233705,17.0730754 C135.398636,16.6579148 135.657443,16.4536393 136.125089,16.4626885 L139.920157,16.4660721 C140.032682,16.4660721 140.146544,16.4677246 140.255528,16.4863738 C140.89503,16.5953574 141.070269,16.8704525 140.872761,17.4949246 C140.561548,18.4746754 139.956039,19.2911475 139.363987,20.1113967 C138.731095,20.9871213 138.054216,21.8328656 137.426597,22.7137836 C136.849967,23.5182164 136.895764,23.9236984 137.612066,24.6223738 L137.612066,24.6223738 Z" id="XMLID_807_"></path>
                </g>
            </g>
        </g>
    </g>
</svg>