<!-- Generated by IcoMoon.io -->
<svg version="1.1" xmlns="http://www.w3.org/2000/svg" width="32" height="32" viewBox="0 0 32 32">
<title>icon-experience</title>
<path fill="#e1e6e9" d="M31.489 13.53c0 3.798-3.098 6.896-6.896 6.896h-2.696c1.196-1.301 1.849-3.046 1.849-4.947 0-4.399-3.699-7.993-8.191-7.742-3.996 0.199-7.246 3.547-7.345 7.543-0.052 1.896 0.601 3.646 1.646 4.994 0.042 0.052 0.078 0.099 0.115 0.151h-2.565c-3.798 0-6.896-3.098-6.896-6.896s3.046-6.843 6.843-6.896c1.149-3.349 4.247-5.846 7.94-6.096 0.251-0.052 0.449-0.052 0.7-0.052h0.7c1.249 0.099 2.445 0.449 3.495 0.998 0.998-0.601 2.147-0.998 3.396-0.998 3.396 0 6.143 2.748 6.143 6.196 0 0.7-0.099 1.348-0.298 1.949 1.259 1.254 2.058 3.004 2.058 4.9z"></path>
<path fill="#fff" d="M23.747 15.479c0-4.393-3.699-7.993-8.191-7.742-3.996 0.199-7.246 3.547-7.345 7.543-0.052 1.896 0.601 3.646 1.651 4.994 1.301 1.651 2.1 3.699 2.1 5.846v3.349h7.94v-3.296c0-2.1 0.648-4.148 2.001-5.746 1.196-1.301 1.844-3.045 1.844-4.947z"></path>
<path fill="#fff" d="M16.303 31.464h-0.549c-0.998 0-1.797-0.799-1.797-1.797v-0.199h4.148v0.199c-0.052 0.998-0.852 1.797-1.802 1.797z"></path>
<path fill="#193651" d="M29.995 8.489c0.151-0.601 0.251-1.196 0.251-1.797 0-3.699-2.999-6.692-6.645-6.692-1.202 0-2.398 0.35-3.448 0.951-1.097-0.501-2.246-0.799-3.396-0.898-0.502-0.052-0.998-0.052-1.447 0-3.746 0.251-6.943 2.649-8.29 6.096-3.902 0.24-7 3.49-7 7.381 0 4.096 3.296 7.392 7.392 7.392h2.346c0.851 1.202 1.4 2.45 1.651 3.798h-0.648v0.998h0.747v1.097h-0.799v0.998h0.799v1.149h-0.799v0.998h2.748c0.152 1.149 1.097 2.001 2.246 2.001h0.549c1.149 0 2.1-0.898 2.246-2.001h2.748v-0.998h-0.799v-1.097h0.799v-0.998h-0.799v-1.097h0.799v-0.998h-0.695c0.199-1.4 0.799-2.748 1.599-3.798h2.398c4.096 0 7.392-3.296 7.392-7.392 0.052-1.949-0.648-3.699-1.943-5.093zM16.303 30.968h-0.549c-0.601 0-1.149-0.449-1.249-0.998h3.046c-0.146 0.549-0.648 0.998-1.248 0.998zM19.453 28.967h-6.896v-1.097h6.943v1.097h-0.047zM19.453 26.872h-6.896v-1.097h6.943c0 0.094-0.047 1.097-0.047 1.097zM19.604 24.72h-7.199c-0.251-1.698-0.951-3.296-2.1-4.743-1.050-1.348-1.599-2.999-1.546-4.696 0.099-3.746 3.098-6.843 6.843-7.042 4.195-0.199 7.643 3.098 7.643 7.246 0 1.698-0.601 3.349-1.698 4.644-1.045 1.295-1.745 2.894-1.943 4.592zM24.598 19.924h-1.651c0.851-1.301 1.301-2.847 1.301-4.446 0-4.696-3.944-8.494-8.693-8.243-4.247 0.251-7.695 3.746-7.794 7.993-0.052 1.651 0.397 3.296 1.301 4.696h-1.651c-3.547 0-6.394-2.847-6.394-6.394 0-3.495 2.847-6.342 6.342-6.394h0.35l0.099-0.35c1.149-3.249 4.096-5.543 7.543-5.793 0.251 0 2.649 0 4.597 0.951l0.251 0.151 0.251-0.151c0.951-0.601 2.001-0.951 3.145-0.951 3.145 0 5.694 2.549 5.694 5.694 0 0.601-0.099 1.196-0.298 1.797l-0.099 0.298 0.199 0.199c1.249 1.196 1.896 2.847 1.896 4.545 0.005 3.552-2.842 6.399-6.389 6.399z"></path>
<path fill="#ffbe00" d="M16.005 21.026c-3.046 0-5.496-2.45-5.496-5.496s2.45-5.496 5.496-5.496c3.046 0 5.496 2.45 5.496 5.496 0 2.999-2.45 5.496-5.496 5.496z"></path>
<path fill="#193651" d="M15.608 5.088h0.998v1.097h-0.998v-1.097z"></path>
<path fill="#193651" d="M11.321 6.182l0.549 0.95-0.864 0.499-0.549-0.95 0.864-0.499z"></path>
<path fill="#193651" d="M7.331 9.785l0.95 0.549-0.499 0.864-0.95-0.549 0.499-0.864z"></path>
<path fill="#193651" d="M5.614 14.883h1.097v0.998h-1.097v-0.998z"></path>
<path fill="#193651" d="M25.246 14.883h1.097v0.998h-1.097v-0.998z"></path>
<path fill="#193651" d="M24.699 9.737l0.499 0.864-0.95 0.548-0.499-0.864 0.95-0.548z"></path>
<path fill="#193651" d="M20.653 6.161l0.864 0.499-0.548 0.95-0.864-0.499 0.548-0.95z"></path>
<path fill="#193651" d="M12.709 14.93h0.998v1.097h-0.998v-1.097z"></path>
<path fill="#193651" d="M15.503 14.93h0.998v1.097h-0.998v-1.097z"></path>
<path fill="#193651" d="M18.303 14.93h0.998v1.097h-0.998v-1.097z"></path>
</svg>
