<?xml version="1.0" encoding="UTF-8"?>
<svg width="51px" height="42px" viewBox="0 0 51 42" version="1.1" xmlns="http://www.w3.org/2000/svg" xmlns:xlink="http://www.w3.org/1999/xlink">
    <!-- Generator: Sketch 43.1 (39012) - http://www.bohemiancoding.com/sketch -->
    <title>icon</title>
    <desc>Created with Sketch.</desc>
    <defs>
        <polygon id="path-1" points="0 37.4526071 50.0390264 37.4526071 50.0390264 0 1.71128644e-21 0 1.71128644e-21 37.4526071"></polygon>
        <polygon id="path-3" points="0 41.3414358 50.0390391 41.3414358 50.0390391 0 0 0"></polygon>
    </defs>
    <g id="Page-1" stroke="none" stroke-width="1" fill="none" fill-rule="evenodd">
        <g id="MD" transform="translate(-764.000000, -257.000000)">
            <g id="Header" transform="translate(-261.000000, 0.000000)">
                <g id="For-Content" transform="translate(1025.000000, 257.000000)">
                    <g id="icon">
                        <polygon id="Fill-1" fill="#FFFFFF" points="46.8464119 40.0241814 2.96736032 40.0241814 1.13643587 34.7345088 48.9298777 34.7345088"></polygon>
                        <polygon id="Fill-2" fill="#FFFFFF" points="3.91439021 34.2307305 45.8362467 34.2307305 45.8362467 4.94861461 3.91439021 4.94861461"></polygon>
                        <polygon id="Fill-3" fill="#E1E6E9" points="43.0105747 28.5750378 43.0105747 31.4572796 7.02836339 31.4572796 7.02836339 7.78889169 21.1502206 7.78889169 43.0105747 7.78889169"></polygon>
                        <polygon id="Fill-4" fill="#193651" points="21.7787833 38.3778338 28.1785587 38.3778338 28.1785587 36.822796 21.7787833 36.822796"></polygon>
                        <polygon id="Fill-5" fill="#193651" points="31.5334437 38.3778338 33.0926337 38.3778338 33.0926337 36.822796 31.5334437 36.822796"></polygon>
                        <polygon id="Fill-6" fill="#193651" points="16.8565007 38.3778338 18.4155644 38.3778338 18.4155644 36.822796 16.8565007 36.822796"></polygon>
                        <g id="Group-24">
                            <g id="Group-9" transform="translate(0.000013, 3.888829)">
                                <mask id="mask-2" fill="white">
                                    <use xlink:href="#path-1"></use>
                                </mask>
                                <g id="Clip-8"></g>
                                <path d="M43.320809,35.8976071 L6.63653293,35.8976071 C4.13864689,35.8976071 2.03257869,33.9516373 1.64076085,31.4603275 L48.398152,31.4603275 C48.0062078,33.9517632 45.9002659,35.8976071 43.320809,35.8976071 L43.320809,35.8976071 Z M4.68552509,1.56335013 L20.4563507,1.56335013 L45.2680288,1.62657431 L45.2798982,25.4677582 L45.2798982,29.9051637 L4.68552509,29.9051637 L4.68552509,1.56335013 Z M20.3747799,0 L3.12646134,0 L3.12646134,29.8968514 L8.47032947e-21,29.8968514 L8.47032947e-21,30.6785894 C8.47032947e-21,34.4156171 2.96319339,37.4526448 6.63653293,37.4526448 L43.4023799,37.4526448 C47.0676381,37.4526448 50.0390391,34.4156171 50.0390391,30.6785894 L50.0390391,29.8968514 L46.8389619,29.8968514 L46.8389619,29.8969773 L46.8389619,25.4598237 L46.9095472,0 L20.3747799,0 Z" id="Fill-7" fill="#193651" mask="url(#mask-2)"></path>
                            </g>
                            <mask id="mask-4" fill="white">
                                <use xlink:href="#path-3"></use>
                            </mask>
                            <g id="Clip-11"></g>
                            <polygon id="Fill-10" fill="#FFFFFF" mask="url(#mask-4)" points="10.6915887 34.3006297 39.2498432 34.3006297 39.2498432 0.589546599 10.6915887 0.589546599"></polygon>
                            <path d="M11.2827878,33.7109572 L38.6650838,33.7109572 L38.6650838,1.17292191 L11.2827878,1.17292191 L11.2827878,33.7109572 Z M10.1065767,34.884131 L39.8410424,34.884131 L39.8410424,0 L10.1065767,0 L10.1065767,34.884131 Z" id="Fill-12" fill="#193651" mask="url(#mask-4)"></path>
                            <polygon id="Fill-13" fill="#FEBE00" mask="url(#mask-4)" points="13.0499456 31.9483627 36.8977998 31.9483627 36.8977998 2.93564232 13.0499456 2.93564232"></polygon>
                            <polygon id="Fill-14" fill="#FFFFFF" mask="url(#mask-4)" points="33.9360964 16.0294081 15.993163 16.0294081 15.993163 21.3173174 33.9360964 21.3173174 34.0099647 21.3173174 34.0099647 16.0294081"></polygon>
                            <path d="M28.5914637,20.7277078 L33.418917,20.7277078 L33.418917,16.6191436 L28.5914637,16.6191436 L28.5914637,20.7277078 Z M22.5877993,20.7277078 L27.4152526,20.7277078 L27.4152526,16.6191436 L22.5877993,16.6191436 L22.5877993,20.7277078 Z M16.5843874,20.7277078 L21.4118407,20.7277078 L21.4118407,16.6191436 L16.5843874,16.6191436 L16.5843874,20.7277078 Z M15.4021153,21.906927 L34.5950019,21.906927 L34.5950019,15.4459698 L15.4021153,15.4459698 L15.4021153,21.906927 Z" id="Fill-15" fill="#4680E0" mask="url(#mask-4)"></path>
                            <polygon id="Fill-16" fill="#FFFFFF" mask="url(#mask-4)" points="15.4021153 6.16599496 21.9967264 6.16599496 21.9967264 4.99307305 15.4021153 4.99307305"></polygon>
                            <polygon id="Fill-17" fill="#FFFFFF" mask="url(#mask-4)" points="15.4021153 9.45163728 34.5394428 9.45163728 34.5394428 8.27871537 15.4021153 8.27871537"></polygon>
                            <polygon id="Fill-18" fill="#FFFFFF" mask="url(#mask-4)" points="15.4021153 12.6821159 34.5394428 12.6821159 34.5394428 11.509194 15.4021153 11.509194"></polygon>
                            <polygon id="Fill-19" fill="#4680E0" mask="url(#mask-4)" points="20.5251682 29.890932 21.7011268 29.890932 21.7011268 28.7180101 20.5251682 28.7180101"></polygon>
                            <polygon id="Fill-20" fill="#4680E0" mask="url(#mask-4)" points="24.4105162 29.890932 25.586601 29.890932 25.586601 28.7180101 24.4105162 28.7180101"></polygon>
                            <polygon id="Fill-21" fill="#4680E0" mask="url(#mask-4)" points="28.2958641 29.890932 29.4718227 29.890932 29.4718227 28.7180101 28.2958641 28.7180101"></polygon>
                            <path d="M40.1466679,17.4419773 C44.4732055,17.4419773 47.9804991,20.9402141 47.9804991,25.2554534 C47.9804991,29.5708186 44.4732055,33.0689295 40.1466679,33.0689295 C35.8202565,33.0689295 32.3129629,29.5708186 32.3129629,25.2554534 C32.3129629,20.9402141 35.8202565,17.4419773 40.1466679,17.4419773" id="Fill-22" fill="#4680E0" mask="url(#mask-4)"></path>
                            <polygon id="Fill-23" fill="#FFFFFF" mask="url(#mask-4)" points="38.8211922 29.7430982 34.9086961 25.0400756 36.1878178 24.0059446 38.9049097 27.3500252 47.2987513 18.2606045 48.4941555 19.2946096"></polygon>
                        </g>
                    </g>
                </g>
            </g>
        </g>
    </g>
</svg>