<?xml version="1.0" encoding="UTF-8"?>
<svg width="51px" height="44px" viewBox="0 0 51 44" version="1.1" xmlns="http://www.w3.org/2000/svg" xmlns:xlink="http://www.w3.org/1999/xlink">
    <!-- Generator: Sketch 43.1 (39012) - http://www.bohemiancoding.com/sketch -->
    <title>icon</title>
    <desc>Created with Sketch.</desc>
    <defs>
        <polygon id="path-1" points="0 38.283637 50.9137828 38.283637 50.9137828 0 1.74120226e-21 0 1.74120226e-21 38.283637"></polygon>
        <polygon id="path-3" points="0 43.490788 50.9137956 43.490788 50.9137956 0 0 0"></polygon>
    </defs>
    <g id="Page-1" stroke="none" stroke-width="1" fill="none" fill-rule="evenodd">
        <g id="MD" transform="translate(-230.000000, -258.000000)">
            <g id="Header" transform="translate(-261.000000, 0.000000)">
                <g id="For-Business" transform="translate(491.000000, 258.000000)">
                    <g id="icon">
                        <polygon id="Fill-1" fill="#FFFFFF" points="47.6653566 42.1443052 3.01923418 42.1443052 1.15630245 36.737261 49.7852444 36.737261"></polygon>
                        <polygon id="Fill-2" fill="#FFFFFF" points="3.98281955 36.2223044 46.6375322 36.2223044 46.6375322 6.29045229 3.98281955 6.29045229"></polygon>
                        <polygon id="Fill-3" fill="#E1E6E9" points="43.7624632 30.4411184 43.7624632 33.3873138 7.1512296 33.3873138 7.1512296 9.19375182 21.5199578 9.19375182 43.7624632 9.19375182"></polygon>
                        <polygon id="Fill-4" fill="#193651" points="22.1595086 40.4614271 28.6711617 40.4614271 28.6711617 38.8718848 22.1595086 38.8718848"></polygon>
                        <polygon id="Fill-5" fill="#193651" points="32.084695 40.4614271 33.6711419 40.4614271 33.6711419 38.8718848 32.084695 38.8718848"></polygon>
                        <polygon id="Fill-6" fill="#193651" points="17.1511773 40.4614271 18.7374958 40.4614271 18.7374958 38.8718848 17.1511773 38.8718848"></polygon>
                        <g id="Group-23">
                            <g id="Group-9" transform="translate(0.000013, 5.207151)">
                                <mask id="mask-2" fill="white">
                                    <use xlink:href="#path-1"></use>
                                </mask>
                                <g id="Clip-8"></g>
                                <path d="M44.078121,36.6941334 L6.75254936,36.6941334 C4.21099657,36.6941334 2.06811117,34.7049848 1.66944378,32.1583957 L49.2442234,32.1583957 C48.8454275,34.7051135 46.7026706,36.6941334 44.078121,36.6941334 L44.078121,36.6941334 Z M4.76743501,1.59803905 L20.813958,1.59803905 L46.059381,1.66266611 L46.0714579,26.0328582 L46.0714579,30.5687247 L4.76743501,30.5687247 L4.76743501,1.59803905 Z M20.7309612,0 L3.18111652,0 L3.18111652,30.5602279 L0,30.5602279 L0,31.3593118 C0,35.1792598 3.0149944,38.2836756 6.75254936,38.2836756 L44.1611178,38.2836756 C47.8904501,38.2836756 50.9137956,35.1792598 50.9137956,31.3593118 L50.9137956,30.5602279 L47.6577764,30.5602279 L47.6577764,30.5603566 L47.6577764,26.0247477 L47.7295956,0 L20.7309612,0 Z" id="Fill-7" fill="#193651" mask="url(#mask-2)"></path>
                            </g>
                            <mask id="mask-4" fill="white">
                                <use xlink:href="#path-3"></use>
                            </mask>
                            <g id="Clip-11"></g>
                            <polygon id="Fill-10" fill="#FFFFFF" mask="url(#mask-4)" points="7.92028636 20.4074724 43.6876762 20.4074724 43.6876762 0.580356083 7.92028636 0.580356083"></polygon>
                            <path d="M10.2247971,15.2028704 L10.2247971,5.77890728 C11.8414364,5.77890728 13.1083585,4.50941053 13.1083585,2.88948582 L38.4934371,2.88948582 C38.4934371,4.50941053 39.7604876,5.77890728 41.3771269,5.77890728 L41.3771269,15.2028704 C39.7604876,15.2028704 38.4934371,16.4722385 38.4934371,18.0922919 L13.1083585,18.0922919 C13.1083585,16.4722385 11.8414364,15.2028704 10.2247971,15.2028704" id="Fill-12" fill="#4FBF9F" mask="url(#mask-4)"></path>
                            <path d="M25.8010006,5.83929881 C28.3497481,5.83929881 30.4159321,7.9096818 30.4159321,10.463609 C30.4159321,13.017665 28.3497481,15.088048 25.8010006,15.088048 C23.252253,15.088048 21.1859405,13.017665 21.1859405,10.463609 C21.1859405,7.9096818 23.252253,5.83929881 25.8010006,5.83929881" id="Fill-13" fill="#FFFFFF" mask="url(#mask-4)"></path>
                            <path d="M36.8164902,9.01887256 C37.6127971,9.01887256 38.2583993,9.66565805 38.2583993,10.463712 C38.2583993,11.2615085 37.6127971,11.9084228 36.8164902,11.9084228 C36.0203117,11.9084228 35.3747095,11.2615085 35.3747095,10.463712 C35.3747095,9.66565805 36.0203117,9.01887256 36.8164902,9.01887256" id="Fill-14" fill="#FFFFFF" mask="url(#mask-4)"></path>
                            <path d="M14.7854467,9.01887256 C15.5817537,9.01887256 16.2273559,9.66565805 16.2273559,10.463712 C16.2273559,11.2615085 15.5817537,11.9084228 14.7854467,11.9084228 C13.9891398,11.9084228 13.343666,11.2615085 13.343666,10.463712 C13.343666,9.66565805 13.9891398,9.01887256 14.7854467,9.01887256" id="Fill-15" fill="#FFFFFF" mask="url(#mask-4)"></path>
                            <path d="M26.2052568,27.1655568 C29.3782792,28.6103962 33.1306091,27.1655568 34.5725182,23.986086 C31.3992389,22.5412465 27.6470374,23.986086 26.2052568,27.1655568" id="Fill-16" fill="#FEBE00" mask="url(#mask-4)"></path>
                            <path d="M17.3191238,29.1906879 C18.5859174,32.4851228 22.2236449,34.1051762 25.5113982,32.8901361 C24.2988224,29.5957013 20.6068771,27.9756478 17.3191238,29.1906879" id="Fill-17" fill="#FEBE00" mask="url(#mask-4)"></path>
                            <path d="M8.49342694,19.8271163 L43.1083686,19.8271163 L43.1083686,1.15453269 L8.49342694,1.15453269 L8.49342694,19.8271163 Z M31.9722767,23.9860345 C32.6058019,23.9860345 33.184981,24.1008698 33.7579931,24.2760838 C32.7747506,26.0654292 30.8744317,27.1655053 28.7992543,27.1655053 C28.1658575,27.1655053 27.5866784,27.0507987 27.0136663,26.875456 C28.0511266,25.0862393 29.8970992,23.9860345 31.9722767,23.9860345 L31.9722767,23.9860345 Z M23.2612079,32.7148063 C21.071428,32.7148063 19.110853,31.4454383 18.127482,29.5352068 C18.5860202,29.4203715 19.110853,29.3598641 19.6296474,29.3598641 C21.8195557,29.3598641 23.7801308,30.6293608 24.7633733,32.5395923 C24.2445789,32.6603496 23.7801308,32.7148063 23.2612079,32.7148063 L23.2612079,32.7148063 Z M44.2606883,20.981649 L44.2606883,0 L7.34123578,0 L7.34123578,20.981649 L25.221783,20.981649 L25.221783,31.167233 C23.936874,29.3538133 21.8254657,28.2112534 19.5692627,28.2112534 C18.7066611,28.2112534 17.8982772,28.3867248 17.0898933,28.6707234 L16.5709704,28.9005228 L16.8003037,29.4203715 C17.8378925,32.0801223 20.4318643,33.8694677 23.2612079,33.8694677 C23.942784,33.8694677 24.5882577,33.7605544 25.221783,33.5732389 L25.221783,35.8338984 L7.92028636,35.8338984 L7.92028636,36.9946105 L43.6876762,36.9946105 L43.6876762,35.8400778 L26.3800126,35.8400778 L26.3800126,27.8547747 C27.1704096,28.1570542 27.9667165,28.3262174 28.8051643,28.3262174 C31.5137385,28.3262174 33.9992749,26.7062927 35.1515945,24.2217559 L35.3807994,23.7019072 L34.862005,23.4722366 C33.9388902,23.0670945 33.0160324,22.8374238 32.0326614,22.8374238 C29.746266,22.8374238 27.6529731,23.9436793 26.3800126,25.726974 L26.3800126,20.9876997 L44.2606883,20.9876997 L44.2606883,20.981649 Z" id="Fill-18" fill="#193651" mask="url(#mask-4)"></path>
                            <path d="M10.2247971,15.2028704 L10.2247971,5.77890728 C11.8414364,5.77890728 13.1083585,4.50941053 13.1083585,2.88948582 L38.4934371,2.88948582 C38.4934371,4.50941053 39.7604876,5.77890728 41.3771269,5.77890728 L41.3771269,15.2028704 C39.7604876,15.2028704 38.4934371,16.4722385 38.4934371,18.0922919 L13.1083585,18.0922919 C13.1083585,16.4722385 11.8414364,15.2028704 10.2247971,15.2028704" id="Fill-19" fill="#4680E0" mask="url(#mask-4)"></path>
                            <path d="M25.8010006,5.83929881 C28.3497481,5.83929881 30.4159321,7.9096818 30.4159321,10.463609 C30.4159321,13.017665 28.3497481,15.088048 25.8010006,15.088048 C23.252253,15.088048 21.1859405,13.017665 21.1859405,10.463609 C21.1859405,7.9096818 23.252253,5.83929881 25.8010006,5.83929881" id="Fill-20" fill="#FFFFFF" mask="url(#mask-4)"></path>
                            <path d="M36.8164902,9.01887256 C37.6127971,9.01887256 38.2583993,9.66565805 38.2583993,10.463712 C38.2583993,11.2615085 37.6127971,11.9084228 36.8164902,11.9084228 C36.0203117,11.9084228 35.3747095,11.2615085 35.3747095,10.463712 C35.3747095,9.66565805 36.0203117,9.01887256 36.8164902,9.01887256" id="Fill-21" fill="#FFFFFF" mask="url(#mask-4)"></path>
                            <path d="M14.7854467,9.01887256 C15.5817537,9.01887256 16.2273559,9.66565805 16.2273559,10.463712 C16.2273559,11.2615085 15.5817537,11.9084228 14.7854467,11.9084228 C13.9891398,11.9084228 13.343666,11.2615085 13.343666,10.463712 C13.343666,9.66565805 13.9891398,9.01887256 14.7854467,9.01887256" id="Fill-22" fill="#FFFFFF" mask="url(#mask-4)"></path>
                        </g>
                    </g>
                </g>
            </g>
        </g>
    </g>
</svg>