<!-- Generated by IcoMoon.io -->
<svg version="1.1" xmlns="http://www.w3.org/2000/svg" width="25" height="32" viewBox="0 0 25 32">
<title>icon-any-complexity</title>
<path fill="#d3d7da" d="M16.522 7.409h5.909l-5.909-5.909z"></path>
<path fill="#193651" d="M22.828 26.483h-20.621v-25.379h14.752l5.869 5.869v19.51zM3 25.69h19.034v-18.4l-5.393-5.393h-13.641v23.793z"></path>
<path fill="#f16051" d="M6.648 10.938c0.555 0.357 1.229 0.555 1.943 0.555 1.745 0 3.212-1.229 3.569-2.895l-3.41-0.436-2.102 2.776z"></path>
<path fill="#fdbf5e" d="M12.279 7.884v-0.198c0-1.903-1.467-3.49-3.371-3.609v3.371l3.371 0.436z"></path>
<path fill="#2ea2db" d="M8.234 4.078c-1.864 0.159-3.371 1.705-3.371 3.609 0 1.11 0.476 2.062 1.229 2.736l2.102-2.816v-3.529h0.040z"></path>
<path fill="#193651" d="M9.345 22.359h0.793v0.793h-0.793v-0.793z"></path>
<path fill="#f16051" d="M5.855 21.803h1.864v1.864h-1.864v-1.864z"></path>
<path fill="#193651" d="M9.345 18.79h0.793v0.793h-0.793v-0.793z"></path>
<path fill="#f16051" d="M5.855 18.234h1.864v1.864h-1.864v-1.864z"></path>
<path fill="#193651" d="M9.345 15.221h0.793v0.793h-0.793v-0.793z"></path>
<path fill="#193651" d="M11.209 22.359h7.931v0.793h-7.931v-0.793z"></path>
<path fill="#193651" d="M11.209 18.79h7.931v0.793h-7.931v-0.793z"></path>
<path fill="#193651" d="M11.209 15.221h7.931v0.793h-7.931v-0.793z"></path>
<path fill="#f16051" d="M5.855 14.666h1.864v1.864h-1.864v-1.864z"></path>
<path fill="#f16051" d="M13.57 10.673h2.98v17.554h-2.98v-17.554z"></path>
<path fill="#fdbf5e" d="M8.17 16.399h2.98v11.827h-2.98v-11.827z"></path>
<path fill="#4fbf9f" d="M2.722 20.45h2.98v7.776h-2.98v-7.776z"></path>
<path fill="#193651" d="M17.018 28.689h-3.91v-22.023h3.91v22.023zM14.038 27.759h2.050v-20.159h-2.050v20.159z"></path>
<path fill="#193651" d="M11.618 28.689h-3.91v-15.874h3.91v15.874zM8.638 27.759h2.050v-14.014h-2.050v14.014z"></path>
<path fill="#193651" d="M6.169 28.689h-3.91v-11.545h3.91v11.545zM3.189 27.759h2.050v-9.685h-2.050v9.685z"></path>
</svg>
