<!-- Generated by IcoMoon.io -->
<svg version="1.1" xmlns="http://www.w3.org/2000/svg" width="32" height="32" viewBox="0 0 32 32">
<title>icon-partners</title>
<path fill="#193651" d="M20.781 14.99h0.998v0.998h-0.998v-0.998z"></path>
<path fill="#193651" d="M15.484 23.683h0.998v0.998h-0.998v-0.998z"></path>
<path fill="#193651" d="M10.192 14.99h0.998v0.998h-0.998v-0.998z"></path>
<path fill="#fdbf5e" d="M15.985 12.739c2.1 0 3.944-1.050 5.046-2.696-1.097-1.599-2.946-2.649-5.046-2.649s-3.944 1.050-5.046 2.649c1.102 1.651 2.946 2.696 5.046 2.696z"></path>
<path fill="#fdbf5e" d="M17.882 4.448c0 1.047-0.849 1.896-1.896 1.896s-1.896-0.849-1.896-1.896c0-1.047 0.849-1.896 1.896-1.896s1.896 0.849 1.896 1.896z"></path>
<path fill="#f16051" d="M6.645 31.472c2.1 0 3.944-1.050 5.046-2.696-1.097-1.599-2.946-2.649-5.046-2.649s-3.944 1.050-5.046 2.649c1.050 1.651 2.899 2.696 5.046 2.696z"></path>
<path fill="#f16051" d="M8.541 23.181c0 1.047-0.849 1.896-1.896 1.896s-1.896-0.849-1.896-1.896c0-1.047 0.849-1.896 1.896-1.896s1.896 0.849 1.896 1.896z"></path>
<path fill="#2ea2db" d="M25.326 31.472c2.1 0 3.944-1.050 5.046-2.696-1.097-1.599-2.946-2.649-5.046-2.649s-3.944 1.050-5.046 2.649c1.102 1.651 2.951 2.696 5.046 2.696z"></path>
<path fill="#2ea2db" d="M27.222 23.181c0 1.047-0.849 1.896-1.896 1.896s-1.896-0.849-1.896-1.896c0-1.047 0.849-1.896 1.896-1.896s1.896 0.849 1.896 1.896z"></path>
<path fill="#193651" d="M25.326 18.736c-1.75 0-3.296 0.7-4.498 1.75l-4.346-2.497v-4.743c3.396-0.251 6.143-3.098 6.143-6.593 0.005-3.704-2.993-6.65-6.64-6.65s-6.645 2.946-6.645 6.645c0 3.495 2.696 6.342 6.143 6.593v4.743l-4.346 2.497c-1.196-1.097-2.748-1.75-4.498-1.75-3.693 0.005-6.64 2.952-6.64 6.598 0 3.699 2.946 6.645 6.645 6.645 3.646 0 6.645-2.946 6.645-6.645 0-1.546-0.549-2.946-1.447-4.096l4.195-2.398 4.195 2.398c-0.898 1.149-1.447 2.549-1.447 4.096 0 3.646 2.946 6.645 6.645 6.645 3.599 0 6.546-2.946 6.546-6.645-0.005-3.646-2.951-6.593-6.65-6.593zM6.645 30.975c-3.145 0-5.647-2.497-5.647-5.647 0-3.098 2.497-5.647 5.647-5.647 3.098 0 5.647 2.497 5.647 5.647-0.052 3.15-2.549 5.647-5.647 5.647zM10.338 6.647c0-3.145 2.549-5.647 5.647-5.647s5.647 2.497 5.647 5.647c0 3.098-2.497 5.647-5.647 5.647-3.098-0.052-5.647-2.549-5.647-5.647zM25.326 30.975c-3.098 0-5.647-2.497-5.647-5.647 0-3.098 2.497-5.647 5.647-5.647 3.098 0 5.647 2.497 5.647 5.647s-2.497 5.647-5.647 5.647z"></path>
</svg>
