<!-- Generated by IcoMoon.io -->
<svg version="1.1" xmlns="http://www.w3.org/2000/svg" width="39" height="32" viewBox="0 0 39 32">
<title>icon-info</title>
<path fill="#fff" d="M35.693 30.495h-33.432l-1.395-4.030h36.414z"></path>
<path fill="#fff" d="M2.982 26.081h31.94v-22.31h-31.94z"></path>
<path fill="#e1e6e9" d="M32.77 21.771v2.196h-27.415v-18.033h27.415z"></path>
<path fill="#193651" d="M16.593 29.24h4.876v-1.185h-4.876z"></path>
<path fill="#193651" d="M24.025 29.24h1.188v-1.185h-1.188z"></path>
<path fill="#193651" d="M12.843 29.24h1.188v-1.185h-1.188z"></path>
<path fill="#193651" d="M33.006 30.313h-27.95c-1.903 0-3.508-1.483-3.806-3.381h35.625c-0.299 1.898-1.903 3.381-3.868 3.381v0zM3.57 4.154h12.016l18.904 0.048 0.009 18.165v3.381h-30.929v-21.594zM15.524 2.963h-13.142v22.779h-2.382v0.596c0 2.847 2.258 5.161 5.056 5.161h28.012c2.793 0 5.056-2.314 5.056-5.161v-0.596h-2.438v-3.381l0.054-19.398h-20.217z"></path>
<path fill="#fff" d="M8.146 26.134h21.759v-25.685h-21.759z"></path>
<path fill="#193651" d="M8.596 25.685v-24.791h20.863v24.791h-20.863zM7.7 26.578h22.655v-26.578h-22.655v26.578z"></path>
<path fill="#febe00" d="M9.943 24.342h18.17v-22.105h-18.17z"></path>
<path fill="#fff" d="M25.856 12.213h-13.671v4.029h13.727v-4.029z"></path>
<path fill="#4680e0" d="M21.784 15.793v-3.13h3.678v3.13h-3.678zM17.21 15.793v-3.13h3.678v3.13h-3.678zM12.636 15.793v-3.13h3.678v3.13h-3.678zM11.735 16.691h14.623v-4.923h-14.623v4.923z"></path>
<path fill="#fff" d="M11.735 4.698h5.024v-0.894h-5.024z"></path>
<path fill="#fff" d="M11.735 7.201h14.581v-0.894h-14.581z"></path>
<path fill="#fff" d="M11.735 9.663h14.581v-0.894h-14.581z"></path>
<path fill="#4680e0" d="M15.638 22.774h0.896v-0.894h-0.896z"></path>
<path fill="#4680e0" d="M18.599 22.774h0.896v-0.894h-0.896z"></path>
<path fill="#4680e0" d="M21.559 22.774h0.896v-0.894h-0.896z"></path>
<path fill="#4680e0" d="M30.588 13.289c3.296 0 5.969 2.665 5.969 5.953s-2.672 5.953-5.969 5.953c-3.296 0-5.969-2.665-5.969-5.953s2.672-5.953 5.969-5.953z"></path>
<path fill="#fff" d="M29.578 22.661l-2.981-3.583 0.975-0.788 2.070 2.548 6.395-6.925 0.911 0.788z"></path>
</svg>
