<!-- Generated by IcoMoon.io -->
<svg version="1.1" xmlns="http://www.w3.org/2000/svg" width="32" height="32" viewBox="0 0 32 32">
<title>icon-orders</title>
<path fill="#fff" d="M19.083 31.469l-2.267-4.973c0.69-0.313 1.17-1.008 1.17-1.818 0-1.102-0.893-2.001-2.001-2.001-1.102 0-2.001 0.893-2.001 2.001 0 0.81 0.481 1.505 1.17 1.818l-2.267 4.973h6.196z"></path>
<path fill="#d3d7da" d="M21.032 5.543c0 2.787-2.259 5.046-5.046 5.046s-5.046-2.259-5.046-5.046c0-2.787 2.259-5.046 5.046-5.046s5.046 2.259 5.046 5.046z"></path>
<path fill="#fff" d="M17.986 24.678c0 1.105-0.896 2.001-2.001 2.001s-2.001-0.896-2.001-2.001c0-1.105 0.896-2.001 2.001-2.001s2.001 0.896 2.001 2.001z"></path>
<path fill="#fff" d="M7.543 24.678c0 1.105-0.896 2.001-2.001 2.001s-2.001-0.896-2.001-2.001c0-1.105 0.896-2.001 2.001-2.001s2.001 0.896 2.001 2.001z"></path>
<path fill="#193651" d="M20.53 19.13h0.998v0.998h-0.998v-0.998z"></path>
<path fill="#193651" d="M20.53 22.928h0.998v0.998h-0.998v-0.998z"></path>
<path fill="#193651" d="M20.53 26.773h0.998v0.998h-0.998v-0.998z"></path>
<path fill="#193651" d="M10.443 19.13h0.998v0.998h-0.998v-0.998z"></path>
<path fill="#193651" d="M10.443 22.928h0.998v0.998h-0.998v-0.998z"></path>
<path fill="#193651" d="M10.443 26.773h0.998v0.998h-0.998v-0.998z"></path>
<path fill="#4fbf9f" d="M10.589 14.585c0 2.787-2.259 5.046-5.046 5.046s-5.046-2.259-5.046-5.046c0-2.787 2.259-5.046 5.046-5.046s5.046 2.259 5.046 5.046z"></path>
<path fill="#fdbf5e" d="M31.474 14.585c0 2.787-2.259 5.046-5.046 5.046s-5.046-2.259-5.046-5.046c0-2.787 2.259-5.046 5.046-5.046s5.046 2.259 5.046 5.046z"></path>
<path fill="#fff" d="M29.521 31.469l-2.267-4.973c0.69-0.313 1.17-1.008 1.17-1.818 0-1.102-0.893-2.001-2.001-2.001-1.102 0-2.001 0.893-2.001 2.001 0 0.81 0.481 1.505 1.17 1.818l-2.267 4.973h6.196z"></path>
<path fill="#193651" d="M31.971 14.538c0-3.046-2.497-5.543-5.543-5.543s-5.543 2.497-5.543 5.543c0 2.878 2.231 5.266 5.046 5.522v2.173c-1.128 0.23-2.006 1.222-2.006 2.445 0 0.851 0.402 1.546 1.050 2.001l-2.445 5.292h7.742l-2.398-5.297c0.601-0.449 1.050-1.202 1.050-2.001 0-1.186-0.846-2.215-1.996-2.445v-2.168c2.811-0.256 5.041-2.643 5.041-5.522zM21.878 14.585c0-2.497 2.048-4.545 4.545-4.545s4.545 2.048 4.545 4.545c0 2.497-2.048 4.545-4.545 4.545s-4.545-2.048-4.545-4.545zM28.721 30.973h-4.644l1.797-3.897c0.199 0.052 0.951 0.052 1.097 0l1.75 3.897zM27.922 24.678c0 0.851-0.648 1.499-1.499 1.499-0.851-0.052-1.499-0.7-1.499-1.499s0.648-1.499 1.499-1.499c0.805 0 1.499 0.648 1.499 1.499z"></path>
<path fill="#fff" d="M8.64 31.469l-2.267-4.973c0.69-0.313 1.17-1.008 1.17-1.818 0-1.102-0.893-2.001-2.001-2.001s-2.001 0.893-2.001 2.001c0 0.81 0.481 1.505 1.17 1.818l-2.267 4.973h6.196z"></path>
<path fill="#193651" d="M26.924 17.135h-0.998v-2.549h0.502c0.549 0 1.050-0.449 1.050-1.050 0-0.549-0.502-1.050-1.050-1.050s-1.050 0.449-1.050 1.050h-0.998c0-1.149 0.898-2.048 2.048-2.048s2.048 0.899 2.048 2.048c0 0.951-0.648 1.75-1.546 2.001v1.599h-0.005z"></path>
<path fill="#193651" d="M5.543 13.838c-0.35 0-0.648-0.298-0.648-0.648s0.298-0.648 0.648-0.648c0.35 0 0.648 0.298 0.648 0.648h0.998c0-0.726-0.486-1.353-1.149-1.567v-0.381h-0.993v0.381c-0.663 0.214-1.149 0.841-1.149 1.567 0 0.899 0.747 1.651 1.651 1.651 0.35 0 0.648 0.298 0.648 0.648s-0.298 0.648-0.648 0.648c-0.35 0-0.648-0.298-0.648-0.648h-1.003c0 0.726 0.486 1.353 1.149 1.567v0.329h0.998v-0.329c0.663-0.214 1.149-0.841 1.149-1.567 0-0.904-0.747-1.651-1.651-1.651z"></path>
<path fill="#193651" d="M14.188 5.046h0.998v0.998h-0.998v-0.998z"></path>
<path fill="#193651" d="M16.785 5.046h0.998v0.998h-0.998v-0.998z"></path>
<path fill="#193651" d="M21.528 5.543c0-3.046-2.497-5.543-5.543-5.543s-5.543 2.497-5.543 5.595c0 2.878 2.231 5.266 5.046 5.522v11.122c-1.128 0.245-1.949 1.228-1.949 2.44 0 0.851 0.397 1.546 1.050 2.001l-2.502 5.292h7.794l-2.398-5.297c0.601-0.449 1.050-1.202 1.050-2.001 0-1.202-0.872-2.241-2.048-2.455v-11.101c2.816-0.256 5.041-2.643 5.041-5.574zM18.284 30.973h-4.644l1.797-3.897c0.199 0.052 0.951 0.052 1.097 0l1.75 3.897zM17.485 24.678c0 0.851-0.648 1.499-1.499 1.499s-1.499-0.7-1.499-1.499c0-0.799 0.648-1.499 1.499-1.499s1.499 0.648 1.499 1.499zM15.985 10.093c-2.497 0-4.545-2.048-4.545-4.545s2.048-4.545 4.545-4.545c2.497 0 4.545 2.048 4.545 4.545s-2.048 4.545-4.545 4.545z"></path>
<path fill="#193651" d="M11.090 14.538c0-3.046-2.497-5.543-5.543-5.543s-5.548 2.492-5.548 5.543c0 2.878 2.231 5.266 5.046 5.522v2.173c-1.123 0.23-2.001 1.222-2.001 2.445 0 0.851 0.402 1.546 1.050 2.001l-2.445 5.292h7.742l-2.398-5.297c0.601-0.449 1.050-1.202 1.050-2.001 0-1.186-0.846-2.215-1.996-2.445v-2.168c2.811-0.256 5.041-2.643 5.041-5.522zM0.998 14.585c0-2.497 2.048-4.545 4.545-4.545s4.545 2.048 4.545 4.545c0 2.497-2.048 4.545-4.545 4.545s-4.545-2.048-4.545-4.545zM7.841 30.973h-4.644l1.797-3.897c0.199 0.052 0.951 0.052 1.097 0l1.75 3.897zM7.042 24.678c0 0.851-0.648 1.499-1.499 1.499-0.851-0.052-1.499-0.7-1.499-1.499s0.648-1.499 1.499-1.499c0.799 0 1.499 0.648 1.499 1.499z"></path>
</svg>
