<?xml version="1.0" encoding="UTF-8"?>
<svg width="14px" height="27px" viewBox="0 0 14 27" version="1.1" xmlns="http://www.w3.org/2000/svg" xmlns:xlink="http://www.w3.org/1999/xlink">
    <!-- Generator: Sketch 43.1 (39012) - http://www.bohemiancoding.com/sketch -->
    <title>Shape</title>
    <desc>Created with Sketch.</desc>
    <defs></defs>
    <g id="Page-1" stroke="none" stroke-width="1" fill="none" fill-rule="evenodd">
        <g id="MD" transform="translate(-730.000000, -6902.000000)" fill-rule="nonzero" fill="#4580E0">
            <g id="About-me-" transform="translate(-264.000000, 6093.000000)">
                <g id="Content" transform="translate(493.000000, 191.000000)">
                    <g id="Info" transform="translate(0.079861, 595.231029)">
                        <g id="Facebook" transform="translate(436.000000, 22.868383)">
                            <path d="M74.060793,8.78719691 L74.060793,6.47648957 C74.060793,6.12960704 74.0781815,5.86092411 74.1135175,5.67112476 C74.1487293,5.48104043 74.2288408,5.29409092 74.3531688,5.10953528 C74.4773105,4.92509363 74.6783344,4.79776277 74.9559299,4.72720073 C75.2338981,4.6565247 75.6032803,4.62130068 76.064449,4.62130068 L78.5819984,4.62130068 L78.5819984,0 L74.5572357,0 C72.228414,0 70.5558232,0.507100544 69.539215,1.52130163 C68.5227309,2.53573071 68.014551,4.02995886 68.014551,6.00455605 L68.014551,8.78713991 L65,8.78713991 L65,13.4087826 L68.0143646,13.4087826 L68.0143646,26.8176221 L74.0607309,26.8176221 L74.0607309,13.4088396 L78.0852452,13.4088396 L78.6172102,8.78719691 L74.060793,8.78719691 L74.060793,8.78719691 Z" id="Shape"></path>
                        </g>
                    </g>
                </g>
            </g>
        </g>
    </g>
</svg>