<!-- Generated by IcoMoon.io -->
<svg version="1.1" xmlns="http://www.w3.org/2000/svg" width="32" height="32" viewBox="0 0 32 32">
<title>icon-cooperation</title>
<path fill="#4580e0" d="M3.495 6.12h24.976v16.184h-24.976v-16.184z"></path>
<path fill="#fff" d="M31.469 0.525h-30.968v3.594h0.998v20.18h28.972v-20.18h0.998z"></path>
<path fill="#2fc0ff" d="M3.394 6.303h24.976v16.184h-24.976v-16.184z"></path>
<path fill="#fff" d="M16.143 14.114c-0.615 0-1.14-0.521-1.14-1.136s0.521-1.136 1.14-1.136c0.62 0 1.14 0.521 1.14 1.136h0.947c0-0.997-0.709-1.8-1.612-2.038v-0.759h-0.947v0.759c-0.947 0.238-1.612 1.041-1.612 2.038 0 1.136 0.947 2.088 2.088 2.088 0.615 0 1.14 0.521 1.14 1.14s-0.521 1.136-1.14 1.136c-0.615 0-1.14-0.521-1.14-1.136h-0.947c0 0.997 0.709 1.8 1.612 2.038v0.664h0.947v-0.664c0.947-0.238 1.612-1.041 1.612-2.038 0-1.146-0.947-2.093-2.088-2.093z"></path>
<path fill="#fff" d="M23.991 10.514c-0.355 0-0.659-0.301-0.659-0.656s0.301-0.656 0.659-0.656c0.358 0 0.659 0.301 0.659 0.656h0.547c0-0.576-0.41-1.040-0.931-1.178v-0.438h-0.547v0.438c-0.547 0.138-0.931 0.602-0.931 1.178 0 0.656 0.547 1.206 1.206 1.206 0.355 0 0.659 0.301 0.659 0.659s-0.301 0.656-0.659 0.656c-0.355 0-0.659-0.301-0.659-0.656h-0.547c0 0.576 0.41 1.040 0.931 1.178v0.384h0.547v-0.384c0.547-0.138 0.931-0.602 0.931-1.178 0-0.662-0.547-1.209-1.206-1.209z"></path>
<path fill="#fff" d="M8.845 13.205c-0.321 0-0.596-0.272-0.596-0.593s0.272-0.593 0.596-0.593c0.324 0 0.596 0.272 0.596 0.593h0.495c0-0.521-0.37-0.94-0.842-1.064v-0.396h-0.495v0.396c-0.495 0.124-0.842 0.544-0.842 1.064 0 0.593 0.495 1.090 1.090 1.090 0.321 0 0.596 0.272 0.596 0.596s-0.272 0.593-0.596 0.593c-0.321 0-0.596-0.272-0.596-0.593h-0.495c0 0.521 0.37 0.94 0.842 1.064v0.347h0.495v-0.347c0.495-0.124 0.842-0.544 0.842-1.064 0-0.598-0.495-1.093-1.090-1.093z"></path>
<path fill="#193651" d="M0 0.024v4.597h0.998v20.18h14.486v2.199c-1.149 0.251-2.001 1.249-2.001 2.45 0 1.4 1.149 2.497 2.497 2.497 1.4 0 2.497-1.149 2.497-2.497 0-1.202-0.648-2.1-2.001-2.45v-2.246h14.486v-20.133h1.008v-4.597h-31.971zM17.485 29.497c0 0.851-0.7 1.499-1.499 1.499-0.851 0-1.499-0.7-1.499-1.499 0-0.851 0.7-1.499 1.499-1.499 0.852-0.052 1.447 0.648 1.499 1.499zM29.975 23.803h-27.974v-19.182h27.974v19.182zM30.973 3.618h-29.975v-2.596h29.975v2.596z"></path>
<path fill="#193651" d="M12.187 1.821h0.998v0.998h-0.998v-0.998z"></path>
<path fill="#193651" d="M15.484 1.821h0.998v0.998h-0.998v-0.998z"></path>
<path fill="#193651" d="M18.78 1.821h0.998v0.998h-0.998v-0.998z"></path>
</svg>
