<!-- Generated by IcoMoon.io -->
<svg version="1.1" xmlns="http://www.w3.org/2000/svg" width="37" height="32" viewBox="0 0 37 32">
<title>icon-business</title>
<path fill="#fff" d="M34.666 30.65h-32.47l-1.355-3.932h35.367z"></path>
<path fill="#fff" d="M2.897 26.343h31.022v-21.769h-31.022z"></path>
<path fill="#e1e6e9" d="M31.827 22.139v2.143h-26.626v-17.595h26.626z"></path>
<path fill="#193651" d="M16.116 29.427h4.736v-1.156h-4.736z"></path>
<path fill="#193651" d="M23.334 29.427h1.154v-1.156h-1.154z"></path>
<path fill="#193651" d="M12.474 29.427h1.154v-1.156h-1.154z"></path>
<path fill="#193651" d="M32.057 30.474h-27.146c-1.848 0-3.407-1.447-3.697-3.299h34.6c-0.29 1.852-1.848 3.299-3.757 3.299v0zM3.467 4.949h11.67l18.36 0.047 0.009 17.724v3.299h-30.039v-21.070zM15.077 3.787h-12.764v22.226h-2.314v0.581c0 2.778 2.193 5.036 4.911 5.036h27.206c2.712 0 4.911-2.258 4.911-5.036v-0.581h-2.368v-3.299l0.052-18.927h-19.635z"></path>
<path fill="#fff" d="M5.76 14.842h26.013v-14.42h-26.013z"></path>
<path fill="#4fbf9f" d="M7.436 11.057v-6.854c1.176 0 2.097-0.923 2.097-2.101h18.462c0 1.178 0.922 2.101 2.097 2.101v6.854c-1.176 0-2.097 0.923-2.097 2.101h-18.462c0-1.178-0.921-2.101-2.097-2.101z"></path>
<path fill="#febe00" d="M19.058 19.757c2.308 1.051 5.037 0 6.085-2.312-2.308-1.051-5.037 0-6.085 2.312z"></path>
<path fill="#febe00" d="M12.596 21.23c0.921 2.396 3.567 3.574 5.958 2.691-0.882-2.396-3.567-3.574-5.958-2.691z"></path>
<path fill="#193651" d="M6.177 14.42v-13.58h25.174v13.58h-25.174zM23.253 17.444c0.461 0 0.882 0.084 1.299 0.211-0.715 1.301-2.097 2.101-3.606 2.101-0.461 0-0.882-0.083-1.299-0.211 0.755-1.301 2.097-2.101 3.606-2.101v0zM16.917 23.793c-1.593 0-3.018-0.923-3.734-2.312 0.333-0.084 0.715-0.128 1.092-0.128 1.593 0 3.019 0.923 3.734 2.313-0.377 0.088-0.715 0.127-1.092 0.127v0zM32.19 15.259v-15.259h-26.851v15.259h13.004v7.408c-0.934-1.319-2.47-2.15-4.111-2.15-0.627 0-1.215 0.128-1.803 0.334l-0.377 0.167 0.167 0.378c0.755 1.934 2.641 3.236 4.699 3.236 0.496 0 0.965-0.079 1.426-0.215v1.644h-12.583v0.844h26.013v-0.84h-12.587v-5.808c0.575 0.22 1.154 0.343 1.764 0.343 1.97 0 3.778-1.178 4.616-2.985l0.167-0.378-0.377-0.167c-0.671-0.295-1.343-0.462-2.058-0.462-1.663 0-3.185 0.805-4.111 2.102v-3.447l13.004-0.004z"></path>
<path fill="#4680e0" d="M7.436 11.057v-6.854c1.176 0 2.097-0.923 2.097-2.101h18.462c0 1.178 0.922 2.101 2.097 2.101v6.854c-1.176 0-2.097 0.923-2.097 2.101h-18.462c0-1.178-0.921-2.101-2.097-2.101z"></path>
<path fill="#fff" d="M18.764 4.247c1.854 0 3.356 1.506 3.356 3.363s-1.503 3.363-3.356 3.363-3.356-1.506-3.356-3.363c0-1.857 1.503-3.363 3.356-3.363z"></path>
<path fill="#fff" d="M26.776 6.559c0.579 0 1.049 0.47 1.049 1.051s-0.47 1.051-1.049 1.051c-0.579 0-1.049-0.47-1.049-1.051s0.47-1.051 1.049-1.051z"></path>
<path fill="#fff" d="M10.753 6.559c0.579 0 1.049 0.47 1.049 1.051s-0.47 1.051-1.049 1.051-1.049-0.47-1.049-1.051c0-0.58 0.469-1.051 1.049-1.051z"></path>
</svg>
