<?xml version="1.0" encoding="UTF-8"?>
<svg width="120px" height="120px" viewBox="0 0 120 120" version="1.1" xmlns="http://www.w3.org/2000/svg" xmlns:xlink="http://www.w3.org/1999/xlink">
    <!-- Generator: Sketch 43.1 (39012) - http://www.bohemiancoding.com/sketch -->
    <title>Group 30</title>
    <desc>Created with Sketch.</desc>
    <defs>
        <circle id="path-1" cx="48" cy="48" r="48"></circle>
        <filter x="-22.9%" y="-14.6%" width="145.8%" height="145.8%" filterUnits="objectBoundingBox" id="filter-2">
            <feOffset dx="0" dy="8" in="SourceAlpha" result="shadowOffsetOuter1"></feOffset>
            <feGaussianBlur stdDeviation="6" in="shadowOffsetOuter1" result="shadowBlurOuter1"></feGaussianBlur>
            <feColorMatrix values="0 0 0 0 0.748325893   0 0 0 0 0.748325893   0 0 0 0 0.748325893  0 0 0 0.35 0" type="matrix" in="shadowBlurOuter1"></feColorMatrix>
        </filter>
    </defs>
    <g id="Page-1" stroke="none" stroke-width="1" fill="none" fill-rule="evenodd">
        <g id="MD" transform="translate(-1004.000000, -839.000000)">
            <g id="Benefits" transform="translate(279.000000, 843.000000)">
                <g id="Language" transform="translate(726.000000, 0.000000)">
                    <g id="Group-30" transform="translate(11.000000, 0.000000)">
                        <g id="Oval-4-Copy-3">
                            <use fill="black" fill-opacity="1" filter="url(#filter-2)" xlink:href="#path-1"></use>
                            <use fill="#FFFFFF" fill-rule="evenodd" xlink:href="#path-1"></use>
                        </g>
                        <g id="flaticon1492341526-svg" transform="translate(22.000000, 23.091447)" fill-rule="nonzero">
                            <path d="M24.8889474,43.5938158 C14.5625,43.5938158 6.18394737,35.2152632 6.18394737,24.8888158 C6.18394737,14.5623684 14.5625,6.18394737 24.8889474,6.18394737 C35.2153947,6.18394737 43.5939474,14.5625 43.5939474,24.8889474 C43.5939474,35.2153947 35.2238158,43.5938158 24.8889474,43.5938158 Z" id="Shape" fill="#2EA2DB"></path>
                            <path d="M24.8889474,9.75644737 L24.8889474,9.75644737 C16.5103947,9.75644737 9.75657895,16.5102632 9.75657895,24.8888158 L9.75657895,24.8888158 C9.75657895,33.2673684 16.5103947,40.0211842 24.8889474,40.0211842 L24.8889474,40.0211842 C33.2675,40.0211842 40.0213158,33.2673684 40.0213158,24.8888158 L40.0213158,24.8888158 C40.0213158,16.5103947 33.2673684,9.75644737 24.8889474,9.75644737 Z" id="Shape" fill="#FFFFFF"></path>
                            <g id="Group" fill="#193651">
                                <path d="M24.8889474,8.94842105 C16.1021053,8.94842105 8.94855263,16.1105263 8.94855263,24.8888158 C8.94855263,33.6671053 16.1022368,40.8292105 24.8889474,40.8292105 C33.6756579,40.8292105 40.8293421,33.6755263 40.8293421,24.8888158 C40.8293421,16.1021053 33.6756579,8.94842105 24.8889474,8.94842105 Z M16.7571053,24.8889474 C16.7571053,23.2643421 16.9186842,21.6310526 17.2419737,20.1680263 L24.0723684,20.1680263 L24.0723684,29.6013158 L17.2419737,29.6013158 C16.9186842,28.1467105 16.7571053,26.5135526 16.7571053,24.8889474 Z M25.7055263,10.6581579 C28.5551316,11.1430263 30.9963158,14.2392105 32.1276316,18.5518421 L25.7055263,18.5518421 L25.7055263,10.6581579 Z M24.0807895,10.6581579 L24.0807895,18.5518421 L17.6586842,18.5518421 C18.79,14.2307895 21.2313158,11.1430263 24.0807895,10.6581579 Z M24.0807895,31.2344737 L24.0807895,39.1281579 C21.2311842,38.6432895 18.79,35.5471053 17.6586842,31.2344737 L24.0807895,31.2344737 L24.0807895,31.2344737 Z M25.7055263,39.1196053 L25.7055263,31.2259211 L32.1276316,31.2259211 C30.9111842,35.5471053 28.5465789,38.6347368 25.7055263,39.1196053 Z M25.7055263,29.6097368 L25.7055263,20.1678947 L32.5359211,20.1678947 C32.8592105,21.6309211 33.0207895,23.2556579 33.0207895,24.8888158 C33.0207895,26.5219737 32.8592105,28.1467105 32.5359211,29.6097368 L25.7055263,29.6097368 L25.7055263,29.6097368 Z M34.1605263,20.1680263 L38.3114474,20.1680263 C38.7963158,21.6310526 39.1280263,23.2557895 39.1280263,24.8889474 C39.1280263,26.5221053 38.8047368,28.1468421 38.3114474,29.6098684 L34.1605263,29.6098684 C34.4072368,28.1468421 34.5688158,26.5221053 34.5688158,24.8889474 C34.6539474,23.2642105 34.4922368,21.6396053 34.1605263,20.1680263 Z M37.6565789,18.5432895 L33.8373684,18.5432895 C33.1057895,15.6936842 31.8809211,13.3375 30.4178947,11.6277632 C33.5906579,13.0143421 36.1935526,15.4556579 37.6565789,18.5432895 Z M19.3598684,11.7128947 C17.8117105,13.4226316 16.6719737,15.7788158 15.9403947,18.6284211 L12.1211842,18.6284211 C13.5842105,15.4556579 16.1871053,13.0143421 19.3598684,11.7128947 Z M11.3897368,20.1680263 L15.5406579,20.1680263 C15.2939474,21.6310526 15.1323684,23.2557895 15.1323684,24.8889474 C15.1323684,26.5221053 15.2939474,28.1468421 15.5406579,29.6098684 L11.3897368,29.6098684 C10.8198684,28.1468421 10.5731579,26.5221053 10.5731579,24.8889474 C10.5731579,23.2557895 10.8197368,21.6396053 11.3897368,20.1680263 Z M12.0361842,31.2344737 L15.8553947,31.2344737 C16.5869737,34.0840789 17.8032895,36.4402632 19.2748684,38.15 C16.1871053,36.7634211 13.5842105,34.3221053 12.0361842,31.2344737 Z M30.4178947,38.0648684 C31.9660526,36.3551316 33.1057895,33.9989474 33.8373684,31.1493421 L37.6565789,31.1493421 C36.1935526,34.3221053 33.5906579,36.7634211 30.4178947,38.0648684 Z" id="Shape"></path>
                                <path d="M4.31263158,14.1542105 L2.84960526,13.4226316 C2.60289474,13.9075 2.36473684,14.4773684 2.11802632,14.9707895 L3.58105263,15.6172368 C3.74263158,15.1323684 3.98934211,14.6390789 4.31263158,14.1542105 Z" id="Shape"></path>
                                <path d="M10.2498684,6.91552632 L9.19513158,5.61407895 C8.71026316,6.02236842 8.30197368,6.34565789 7.89368421,6.75394737 L9.03355263,7.89381579 C9.35671053,7.56197368 9.765,7.23868421 10.2498684,6.91552632 Z" id="Shape"></path>
                                <path d="M5.85223684,11.6278947 L4.55078947,10.6497368 C4.2275,11.0580263 3.98092105,11.5428947 3.65763158,12.0361842 L5.04407895,12.8527632 C5.29078947,12.3593421 5.61407895,11.9596053 5.85223684,11.6278947 Z" id="Shape"></path>
                                <path d="M2.19460526,20.0914474 L0.57,19.7681579 C0.408421053,20.3380263 0.323289474,20.9080263 0.246710526,21.4778947 L1.87131579,21.7246053 C1.87131579,21.2313158 2.03302632,20.6613158 2.19460526,20.0914474 Z" id="Shape"></path>
                                <path d="M7.89368421,9.025 L6.67736842,7.88513158 C6.26907895,8.29342105 5.86078947,8.77828947 5.5375,9.18657895 L6.83894737,10.2413158 C7.16210526,9.84157895 7.48539474,9.43328947 7.89368421,9.025 Z" id="Shape"></path>
                                <path d="M3.01118421,17.1653947 L1.46302632,16.5955263 C1.30144737,17.1653947 1.13973684,17.6502632 0.978157895,18.2201316 L2.52631579,18.6284211 C2.60289474,18.135 2.76447368,17.6501316 3.01118421,17.1653947 Z" id="Shape"></path>
                                <path d="M4.31263158,35.7086842 L2.84960526,36.4402632 C3.09631579,36.9251316 3.33447368,37.4184211 3.66618421,37.9032895 L5.12921053,37.0867105 C4.7975,36.6018421 4.55078947,36.1935526 4.31263158,35.7086842 Z" id="Shape"></path>
                                <path d="M1.62460526,24.8889474 C1.62460526,24.4040789 1.62460526,23.8342105 1.70960526,23.2643421 L0.085,23.1793421 C0,23.7490789 0,24.3189474 0,24.8889474 L0,24.9739474 L1.62460526,24.9739474 L1.62460526,24.8889474 Z" id="Shape"></path>
                                <path d="M3.01118421,32.7825 L1.46302632,33.3523684 C1.62460526,33.8372368 1.87131579,34.4071053 2.10947368,34.9005263 L3.5725,34.2540789 C3.41947368,33.7522368 3.17276316,33.2673684 3.01118421,32.7825 Z" id="Shape"></path>
                                <path d="M1.70973684,26.5985526 L0.0851315789,26.6751316 C0.0851315789,27.245 0.170131579,27.815 0.246710526,28.3848684 L1.87131579,28.1381579 C1.78631579,27.6534211 1.70973684,27.0834211 1.70973684,26.5985526 Z" id="Shape"></path>
                                <path d="M2.19460526,29.7714474 L0.57,30.0947368 C0.655,30.6646053 0.816710526,31.1494737 0.978289474,31.7193421 L2.60289474,31.3110526 C2.44131579,30.8261842 2.27960526,30.2561842 2.19460526,29.7714474 Z" id="Shape"></path>
                                <path d="M46.7665789,17.0802632 L48.3147368,16.5103947 C48.0680263,16.0255263 47.9064474,15.4556579 47.6682895,14.9622368 L46.2052632,15.6086842 C46.3668421,16.1021053 46.605,16.5953947 46.7665789,17.0802632 Z" id="Shape"></path>
                                <path d="M5.85223684,38.3115789 L4.55078947,39.2897368 C4.87407895,39.7746053 5.28236842,40.2678947 5.60552632,40.6761842 L6.82184211,39.5363158 L5.85223684,38.3115789 Z" id="Shape"></path>
                                <path d="M45.4651316,14.1542105 L46.8515789,13.4226316 C46.6048684,12.9377632 46.3667105,12.4444737 46.035,11.9596053 L44.6485526,12.7761842 C44.9802632,13.2610526 45.2269737,13.6607895 45.4651316,14.1542105 Z" id="Shape"></path>
                                <path d="M43.8405263,11.4661842 L45.1419737,10.4880263 C44.8186842,10.0031579 44.4103947,9.50986842 44.0872368,9.10157895 L42.8709211,10.1563158 C43.1940789,10.6581579 43.5172368,11.0578947 43.8405263,11.4661842 Z" id="Shape"></path>
                                <path d="M18.5432895,2.51776316 L18.135,0.969605263 C17.5651316,1.13118421 17.0802632,1.29289474 16.5103947,1.45447368 L17.0802632,3.00263158 C17.5651316,2.84960526 18.0584211,2.67947368 18.5432895,2.51776316 Z" id="Shape"></path>
                                <path d="M41.8075,9.025 L43.0238158,7.88513158 L41.8075,6.66881579 L40.6676316,7.88513158 C41.0760526,8.21684211 41.4843421,8.62513158 41.8075,9.025 Z" id="Shape"></path>
                                <path d="M21.7160526,1.78631579 L21.4693421,0.161710526 C20.8994737,0.246710526 20.3294737,0.408421053 19.7596053,0.485 L20.0828947,2.10960526 C20.6613158,2.03289474 21.1461842,1.94789474 21.7160526,1.78631579 Z" id="Shape"></path>
                                <path d="M37.0101316,44.7336842 L37.8267105,46.1201316 C38.3115789,45.7968421 38.8048684,45.4651316 39.2897368,45.1419737 L38.3115789,43.8405263 C37.9032895,44.1636842 37.495,44.4955263 37.0101316,44.7336842 Z" id="Shape"></path>
                                <path d="M39.5278947,42.9473684 L40.5826316,44.1636842 C41.0675,43.7553947 41.4757895,43.4321053 41.8840789,43.1089474 L40.7442105,41.8926316 C40.3444737,42.2923684 39.9361842,42.6240789 39.5278947,42.9473684 Z" id="Shape"></path>
                                <path d="M36.2785526,2.76447368 L35.5469737,4.2275 C36.0318421,4.47421053 36.4401316,4.79736842 36.9334211,5.04407895 L37.75,3.58105263 C37.2568421,3.33434211 36.7634211,3.01118421 36.2785526,2.76447368 Z" id="Shape"></path>
                                <path d="M39.2047368,4.55078947 L38.2265789,5.85223684 C38.7114474,6.17552632 39.1197368,6.50723684 39.5280263,6.83039474 L40.5827632,5.61407895 C40.0977632,5.20578947 39.6894737,4.8825 39.2047368,4.55078947 Z" id="Shape"></path>
                                <path d="M33.1909211,1.46302632 L32.6210526,3.01118421 C33.1059211,3.17276316 33.5992105,3.33447368 34.0840789,3.58105263 L34.7390789,2.11802632 C34.2456579,1.87131579 33.7522368,1.62460526 33.1909211,1.46302632 Z" id="Shape"></path>
                                <path d="M34.1605263,46.1967105 L34.8069737,47.6597368 C35.3768421,47.4130263 35.8617105,47.1748684 36.3551316,47.0132895 L35.6235526,45.5502632 C35.1388158,45.7969737 34.6539474,45.9585526 34.1605263,46.1967105 Z" id="Shape"></path>
                                <path d="M47.5831579,29.5247368 L49.2077632,29.8480263 C49.3693421,29.3631579 49.4544737,28.7932895 49.4544737,28.2234211 L47.8298684,27.9767105 C47.7448684,28.47 47.6682895,29.0398684 47.5831579,29.5247368 Z" id="Shape"></path>
                                <path d="M31.2344737,47.26 L31.6427632,48.8081579 C32.2126316,48.6465789 32.6975,48.4848684 33.3525,48.3232895 L32.7826316,46.7751316 C32.2126316,46.9281579 31.7193421,47.0982895 31.2344737,47.26 Z" id="Shape"></path>
                                <path d="M46.7665789,32.6123684 L48.3147368,33.1822368 C48.4763158,32.6123684 48.6380263,32.0423684 48.7996053,31.4725 L47.2514474,31.0642105 C47.0982895,31.6427632 46.9367105,32.1276316 46.7665789,32.6123684 Z" id="Shape"></path>
                                <path d="M45.5502632,35.5471053 L47.0132895,36.2786842 C47.26,35.7938158 47.4981579,35.3005263 47.6682895,34.7305263 L46.2052632,34.0755263 C46.0351316,34.5688158 45.7969737,35.0536842 45.5502632,35.5471053 Z" id="Shape"></path>
                                <path d="M43.9255263,38.2264474 L45.2269737,39.2046053 C45.5502632,38.7197368 45.8819737,38.2264474 46.2051316,37.7415789 L44.8186842,36.925 C44.4955263,37.3332895 44.2488158,37.8181579 43.9255263,38.2264474 Z" id="Shape"></path>
                                <path d="M41.8926316,40.6677632 L43.1089474,41.8076316 C43.4322368,41.3993421 43.8405263,40.9910526 44.2488158,40.5061842 L42.9473684,39.4514474 C42.6240789,39.8511842 42.2157895,40.2594737 41.8926316,40.6677632 Z" id="Shape"></path>
                                <path d="M21.5544737,49.5310526 C22.1243421,49.6160526 22.6943421,49.6926316 23.2642105,49.6926316 L23.3492105,48.0680263 C22.8643421,47.9830263 22.2944737,47.9830263 21.8010526,47.9064474 L21.5544737,49.5310526 Z" id="Shape"></path>
                                <path d="M18.3051316,48.8846053 C18.79,49.0461842 19.3598684,49.2078947 19.9297368,49.2928947 L20.2530263,47.7447368 C19.7681579,47.5831579 19.1982895,47.4980263 18.7048684,47.3364474 L18.3051316,48.8846053 Z" id="Shape"></path>
                                <path d="M7.97026316,40.7527632 L6.75394737,41.8926316 L7.97026316,43.1089474 L9.11013158,41.8926316 C8.70171053,41.4843421 8.29342105,41.1610526 7.97026316,40.7527632 Z" id="Shape"></path>
                                <path d="M26.5135526,0.0765789474 L26.4285526,1.70118421 C26.9134211,1.70118421 27.4832895,1.78618421 27.9767105,1.86276316 L28.2234211,0.238157895 C27.6534211,0.161578947 27.0834211,0.0765789474 26.5135526,0.0765789474 Z" id="Shape"></path>
                                <path d="M23.2642105,1.70973684 C23.7490789,1.70973684 24.3189474,1.62473684 24.8888158,1.62473684 L24.8888158,0 C24.3189474,0 23.7489474,0.085 23.1790789,0.085 L23.2642105,1.70973684 Z" id="Shape"></path>
                                <path d="M28.0617105,47.9064474 L28.3084211,49.5310526 C28.8782895,49.4460526 29.4482895,49.3694737 29.9330263,49.2843421 L29.6097368,47.6597368 C29.1164474,47.7448684 28.5465789,47.8298684 28.0617105,47.9064474 Z" id="Shape"></path>
                                <path d="M29.8478947,0.484868421 L29.5246053,2.10947368 C30.0944737,2.19447368 30.5793421,2.35618421 31.0727632,2.51776316 L31.4810526,0.893157895 C30.9877632,0.731578947 30.4178947,0.569868421 29.8478947,0.484868421 Z" id="Shape"></path>
                                <path d="M24.9739474,48.1531579 L24.9739474,49.7777632 C25.5438158,49.7777632 26.1138158,49.6927632 26.6836842,49.6927632 L26.5986842,48.0681579 C26.0286842,48.1531579 25.5438158,48.1531579 24.9739474,48.1531579 Z" id="Shape"></path>
                            </g>
                            <ellipse id="Oval" fill="#FFFFFF" cx="48.8846053" cy="24.8889474" rx="2.35618421" ry="2.35618421"></ellipse>
                            <g id="Group" transform="translate(45.720395, 18.143553)" fill="#193651">
                                <path d="M3.41092105,1.62460526 C3.32592105,1.05473684 3.16421053,0.569868421 3.00263158,0 L1.45447368,0.408289474 C1.61605263,0.893157895 1.77776316,1.46302632 1.86276316,1.95644737 L3.41092105,1.62460526 Z" id="Shape"></path>
                                <path d="M3.86171053,3.64907895 C3.84473684,3.53855263 3.82763158,3.43644737 3.81921053,3.32578947 L2.19460526,3.5725 C2.20315789,3.615 2.21157895,3.66605263 2.22013158,3.70855263 C0.918684211,4.09986842 0,5.29065789 0,6.74526316 C0,8.53157895 1.46302632,9.91802632 3.17276316,9.91802632 C4.95907895,9.91802632 6.34552632,8.53157895 6.34552632,6.74526316 C6.33697368,5.20578947 5.24828947,3.96381579 3.86171053,3.64907895 Z M3.16421053,8.29342105 C2.27105263,8.29342105 1.61605263,7.56184211 1.61605263,6.74526316 C1.61605263,5.85210526 2.34763158,5.19710526 3.16421053,5.19710526 C4.05736842,5.19710526 4.71236842,5.92868421 4.71236842,6.74526316 C4.71236842,7.63842105 3.98078947,8.29342105 3.16421053,8.29342105 Z" id="Shape"></path>
                            </g>
                            <g id="Group" transform="translate(10.173289, 2.279605)" fill="#FFFFFF">
                                <ellipse id="Oval" cx="2.35618421" cy="2.35618421" rx="2.35618421" ry="2.35618421"></ellipse>
                                <ellipse id="Oval" cx="3.00263158" cy="44.0021053" rx="2.35618421" ry="2.35618421"></ellipse>
                            </g>
                            <g id="Group" transform="translate(9.195132, 1.548158)" fill="#193651">
                                <path d="M7.09407895,44.9122368 C7.11105263,43.8064474 6.52421053,42.7431579 5.52894737,42.1307895 C5.04407895,41.8840789 4.55078947,41.7225 3.98078947,41.7225 C3.38539474,41.7225 2.78986842,41.9011842 2.27960526,42.2413158 C1.82881579,41.9351316 1.4375,41.6288158 1.05473684,41.3226316 L0,42.6240789 C0.416842105,42.9727632 0.774078947,43.2535526 1.16539474,43.5342105 C0.859210526,44.1976316 0.757105263,44.9122368 0.969736842,45.6352632 C1.21644737,46.4518421 1.70131579,47.0982895 2.43276316,47.5065789 C2.91763158,47.7532895 3.41092105,47.9148684 3.98092105,47.9148684 C5.09526316,47.9148684 6.14144737,47.3619737 6.63486842,46.5028947 C6.87302632,46.605 7.12815789,46.7071053 7.40039474,46.7835526 L7.97026316,45.2353947 C7.6725,45.1248684 7.38328947,45.0227632 7.09407895,44.9122368 Z M3.98078947,46.1967105 C3.17276316,46.1967105 2.51776316,45.5417105 2.51776316,44.7336842 C2.51776316,43.9256579 3.17276316,43.2706579 3.98078947,43.2706579 C4.78881579,43.2706579 5.44381579,43.9256579 5.44381579,44.7336842 C5.45236842,45.5417105 4.78894737,46.1967105 3.98078947,46.1967105 Z" id="Shape"></path>
                                <path d="M6.25197368,2.05842105 C6.31157895,2.02434211 6.3625,1.99039474 6.42210526,1.95631579 L5.77565789,0.493289474 C5.6225,0.561315789 5.46947368,0.629342105 5.32486842,0.688947368 C4.78894737,0.246578947 4.07447368,0 3.33447368,0 C2.84960526,0 2.27973684,0.161578947 1.78631579,0.408289474 C0.323289474,1.30144737 -0.246710526,3.25789474 0.646447368,4.72092105 C1.13131579,5.69907895 2.19460526,6.26907895 3.32592105,6.26907895 C3.94684211,6.26907895 5.75868421,5.86078947 6.33710526,3.91289474 C6.52421053,3.27486842 6.47315789,2.64539474 6.25197368,2.05842105 Z M3.33434211,4.61026316 C2.49223684,4.61026316 1.81171053,3.92973684 1.81171053,3.08763158 C1.81171053,2.24552632 2.49223684,1.565 3.33434211,1.565 C4.17644737,1.565 4.85697368,2.24552632 4.85697368,3.08763158 C4.85697368,3.92973684 4.17644737,4.61026316 3.33434211,4.61026316 Z" id="Shape"></path>
                            </g>
                        </g>
                    </g>
                </g>
            </g>
        </g>
    </g>
</svg>