<?xml version="1.0" encoding="UTF-8"?>
<svg width="33px" height="21px" viewBox="0 0 33 21" version="1.1" xmlns="http://www.w3.org/2000/svg" xmlns:xlink="http://www.w3.org/1999/xlink">
    <!-- Generator: Sketch 43.1 (39012) - http://www.bohemiancoding.com/sketch -->
    <title>XMLID_234_</title>
    <desc>Created with Sketch.</desc>
    <defs></defs>
    <g id="Page-1" stroke="none" stroke-width="1" fill="none" fill-rule="evenodd">
        <g id="MD" transform="translate(-359.000000, -6905.000000)" fill-rule="nonzero" fill="#4580E0">
            <g id="About-me-" transform="translate(-264.000000, 6093.000000)">
                <g id="Content" transform="translate(493.000000, 191.000000)">
                    <g id="Info" transform="translate(0.079861, 595.231029)">
                        <g id="mail" transform="translate(40.000000, 25.851216)">
                            <path d="M120.272905,0 L91.6682667,0 C90.7471192,0 90,0.742715279 90,1.65872008 L90,19.1164821 C90,20.0324227 90.7471192,20.7752022 91.6682667,20.7752022 L120.27284,20.7752022 C121.194053,20.7752022 121.941107,20.0324227 121.941107,19.1164821 L121.941107,1.65872008 C121.941172,0.742715279 121.194053,0 120.272905,0 Z M119.179022,16.4632756 C119.631354,16.8369794 119.693673,17.5043625 119.318271,17.9540411 C119.107782,18.2062622 118.804137,18.3365507 118.498554,18.3365507 C118.258844,18.3365507 118.017648,18.2563336 117.819055,18.092557 L110.310562,11.8959141 L106.650537,14.9161396 C106.453495,15.078952 106.211846,15.160069 105.970586,15.160069 C105.72939,15.160069 105.487612,15.078952 105.29057,14.9161396 L101.630675,11.8959141 L94.1221172,18.092557 C93.670303,18.4662608 92.9992081,18.4047481 92.6227071,17.9540411 C92.247499,17.5043625 92.3098182,16.8369794 92.7621495,16.4632756 L99.9635071,10.5199465 L92.7621495,4.57661733 C92.3098182,4.2029136 92.247499,3.53553041 92.6227071,3.08585182 C92.9992081,2.63617323 93.670303,2.5746606 94.1221172,2.94733591 L105.970521,12.7255955 L117.819055,2.94727163 C118.271321,2.57459632 118.942933,2.63610896 119.318271,3.08578755 C119.693673,3.53553041 119.631289,4.20284932 119.179022,4.57655306 L111.977665,10.5198822 L119.179022,16.4632756 Z" id="XMLID_234_"></path>
                        </g>
                    </g>
                </g>
            </g>
        </g>
    </g>
</svg>