<?xml version="1.0" encoding="UTF-8"?>
<svg width="12px" height="15px" viewBox="0 0 12 15" version="1.1" xmlns="http://www.w3.org/2000/svg" xmlns:xlink="http://www.w3.org/1999/xlink">
    <!-- Generator: Sketch 43.1 (39012) - http://www.bohemiancoding.com/sketch -->
    <title>SVGCleanerId_0_1_</title>
    <desc>Created with Sketch.</desc>
    <defs></defs>
    <g id="Page-1" stroke="none" stroke-width="1" fill="none" fill-rule="evenodd">
        <g id="MD" transform="translate(-237.000000, -7209.000000)" fill-rule="nonzero" fill="#FFFFFF">
            <g id="FAQ" transform="translate(230.000000, 7069.000000)">
                <g id="1" transform="translate(0.000000, 135.000000)">
                    <g id="icon">
                        <path d="M14.256979,19.7336433 L11.7688135,19.7336433 L11.7688135,13.3768116 L13.0193443,13.3768116 C14.3871503,13.3768116 15.6376812,12.256452 15.6376812,10.7584748 C15.6376812,9.39066884 14.3871503,8.14013795 13.0193443,8.14013795 C11.6515384,8.14013795 10.4010075,9.26049756 10.4010075,10.7584748 L7.91304348,10.7584748 C7.91304348,7.89269162 10.1535612,5.65217391 13.0193443,5.65217391 C15.8851275,5.65217391 18.1256452,7.89269162 18.1256452,10.7584748 C18.1256452,13.1293653 16.5103929,15.1224366 14.2698752,15.7477021 L14.2698752,19.7338448 L14.256979,19.7338448 L14.256979,19.7336433 Z" id="SVGCleanerId_0_1_"></path>
                    </g>
                </g>
            </g>
        </g>
    </g>
</svg>