<?xml version="1.0" encoding="UTF-8"?>
<svg width="13px" height="14px" viewBox="0 0 13 14" version="1.1" xmlns="http://www.w3.org/2000/svg" xmlns:xlink="http://www.w3.org/1999/xlink">
    <!-- Generator: Sketch 43.1 (39012) - http://www.bohemiancoding.com/sketch -->
    <title>flaticon1492335309-svg</title>
    <desc>Created with Sketch.</desc>
    <defs></defs>
    <g id="Page-1" stroke="none" stroke-width="1" fill="none" fill-rule="evenodd">
        <g id="MD" transform="translate(-449.000000, -8255.000000)" fill-rule="nonzero" fill="#FFFFFF">
            <g id="Partners" transform="translate(-264.000000, 7757.000000)">
                <g id="info-block" transform="translate(494.000000, 466.000000)">
                    <g id="Group-25" transform="translate(8.000000, 27.000000)">
                        <g id="Group-26" transform="translate(135.000000, 0.000000)">
                            <g id="flaticon1492335309-svg" transform="translate(76.005178, 5.000000)">
                                <path d="M0.317726027,11.752411 L2.54123288,11.752411 L2.54123288,13.6584932 C2.54123288,13.7512329 2.57090411,13.8271507 2.63060274,13.8864932 C2.69013699,13.9462192 2.76624658,13.9760822 2.8589589,13.9760822 L4.51654795,13.9760822 C4.60257534,13.9760822 4.6770137,13.9462192 4.73989041,13.8864932 C4.80276712,13.8271507 4.83410959,13.7512055 4.83410959,13.6584932 L4.83410959,11.752411 L9.84682192,11.752411 C9.93934247,11.752411 10.0154795,11.7229315 10.0751507,11.6632055 C10.1348767,11.6035342 10.1645205,11.5275616 10.1645205,11.4348219 L10.1645205,10.1642192 C10.1645205,10.0720274 10.1348767,9.99556164 10.0751507,9.93621918 C10.0156438,9.87649315 9.93934247,9.84663014 9.84682192,9.84663014 L4.83394521,9.84663014 L4.83394521,8.67528767 L8.20884932,8.67528767 C9.53227397,8.67528767 10.612411,8.2720274 11.4497534,7.46435616 C12.2867671,6.65753425 12.7054795,5.61531507 12.7054795,4.33764384 C12.7054795,3.06082192 12.2867671,2.01857534 11.4497534,1.21093151 C10.6125753,0.404082192 9.53224658,0 8.20884932,0 L2.85879452,0 C2.76605479,0 2.69010959,0.0298356164 2.63043836,0.0892054795 C2.57090411,0.14890411 2.54106849,0.225342466 2.54106849,0.317561644 L2.54106849,6.56128767 L0.317726027,6.56128767 C0.225013699,6.56128767 0.149041096,6.59265753 0.089369863,6.65550685 C0.0298630137,6.71838356 0,6.79282192 0,6.87882192 L0,8.35767123 C0,8.45041096 0.0296712329,8.52638356 0.089369863,8.58605479 C0.149068493,8.64578082 0.224849315,8.67526027 0.317726027,8.67526027 L2.54123288,8.67526027 L2.54123288,9.84660274 L0.317726027,9.84660274 C0.225013699,9.84660274 0.149041096,9.87646575 0.089369863,9.93619178 C0.0298630137,9.99553425 0,10.0718356 0,10.1641918 L0,11.4347945 C0,11.5275342 0.0296712329,11.6035068 0.089369863,11.6631781 C0.149041096,11.7229315 0.224986301,11.752411 0.317726027,11.752411 Z M4.83394521,2.11449315 L8.01032877,2.11449315 C8.71169863,2.11449315 9.27739726,2.31956164 9.70767123,2.72983562 C10.137726,3.14013699 10.3528493,3.67632877 10.3528493,4.33780822 C10.3528493,4.99961644 10.137726,5.5359726 9.70767123,5.94578082 C9.27739726,6.35641096 8.71167123,6.56147945 8.01032877,6.56147945 L4.83394521,6.56147945 L4.83394521,2.11449315 Z" id="Shape"></path>
                            </g>
                        </g>
                    </g>
                </g>
            </g>
        </g>
    </g>
</svg>