<?xml version="1.0" encoding="UTF-8"?>
<svg width="87px" height="64px" viewBox="0 0 87 64" version="1.1" xmlns="http://www.w3.org/2000/svg" xmlns:xlink="http://www.w3.org/1999/xlink">
    <!-- Generator: Sketch 43.1 (39012) - http://www.bohemiancoding.com/sketch -->
    <title>Group 21</title>
    <desc>Created with Sketch.</desc>
    <defs>
        <path d="M63.60075,18.801125 C58.955125,12.598375 46.20875,0.06725 32,0.06725 C18.80175,0.06725 6.124,11.157625 0.39925,18.801125 C-0.133,19.51175 -0.133,20.488375 0.39925,21.199 C7.036625,30.060875 19.649875,39.93275 32,39.93275 C45.19825,39.93275 57.876,28.842375 63.60075,21.198875 C64.133125,20.48825 64.133125,19.51175 63.60075,18.801125 Z M32,35.93275 C21.622,35.93275 11.271375,27.97125 4.57025,20.000625 C7.84825,16.106375 19.03375,4.06725 32,4.06725 C42.378,4.06725 52.72875,12.02875 59.42975,19.9995 C56.151625,23.893625 44.96625,35.93275 32,35.93275 Z" id="path-1"></path>
        <filter x="-34.4%" y="-35.1%" width="168.8%" height="210.4%" filterUnits="objectBoundingBox" id="filter-2">
            <feOffset dx="0" dy="8" in="SourceAlpha" result="shadowOffsetOuter1"></feOffset>
            <feGaussianBlur stdDeviation="6" in="shadowOffsetOuter1" result="shadowBlurOuter1"></feGaussianBlur>
            <feColorMatrix values="0 0 0 0 0   0 0 0 0 0   0 0 0 0 0  0 0 0 0.5 0" type="matrix" in="shadowBlurOuter1"></feColorMatrix>
        </filter>
    </defs>
    <g id="Page-1" stroke="none" stroke-width="1" fill="none" fill-rule="evenodd">
        <g id="LG" transform="translate(-1280.000000, -1493.000000)" fill-rule="nonzero">
            <g id="Offers" transform="translate(-1.000000, 970.000000)">
                <g id="For-Business" transform="translate(388.000000, 170.000000)">
                    <g id="Tabs" transform="translate(0.000000, 12.000000)">
                        <g id="Basic-Active" transform="translate(0.500876, 86.000000)">
                            <g id="Content" transform="translate(6.010508, 107.000000)">
                                <g id="Img-Hover" transform="translate(721.000000, 29.000000)">
                                    <g id="Group-6" transform="translate(177.000000, 123.000000)">
                                        <g id="Group-21">
                                            <g id="Shape">
                                                <use fill="black" fill-opacity="1" filter="url(#filter-2)" xlink:href="#path-1"></use>
                                                <use fill="#FFFFFF" fill-rule="evenodd" xlink:href="#path-1"></use>
                                            </g>
                                            <path d="M32,8 C25.38325,8 20,13.38325 20,20 C20,26.61675 25.38325,32 32,32 C38.61675,32 44,26.61675 44,20 C44,13.38325 38.61675,8 32,8 Z M32,28 C27.58875,28 24,24.41125 24,20 C24,15.58875 27.58875,12 32,12 C36.41125,12 40,15.58875 40,20 C40,24.41125 36.41125,28 32,28 Z" id="Shape" fill="#FFFFFF"></path>
                                            <ellipse id="Oval" fill="#FFFFFF" cx="32" cy="20" rx="3.333375" ry="3.333375"></ellipse>
                                        </g>
                                    </g>
                                </g>
                            </g>
                        </g>
                    </g>
                </g>
            </g>
        </g>
    </g>
</svg>