<!-- Generated by IcoMoon.io -->
<svg version="1.1" xmlns="http://www.w3.org/2000/svg" width="37" height="32" viewBox="0 0 37 32">
<title>arrow</title>
<path d="M35.317 14.227l-11.601-11.624c-0.029-0.029-0.061-0.054-0.096-0.074-1.134-0.648-2.382-0.455-3.183 0.348l-0.569 0.57c-0.029 0.029-0.054 0.061-0.074 0.097-0.647 1.136-0.454 2.387 0.348 3.19l4.34 4.349c0.048 0.048 0.086 0.106 0.107 0.171 0.366 1.134-0.4 2.027-1.326 2.027h-21.084c-0.246 0-0.445 0.2-0.445 0.446v4.563c0 0.246 0.199 0.446 0.445 0.446h21.395c0.068 0 0.136 0.014 0.197 0.045 1.059 0.543 1.147 1.717 0.493 2.373l-4.394 4.402c-0.029 0.029-0.054 0.062-0.074 0.097-0.647 1.137-0.453 2.387 0.349 3.19l0.567 0.568c0.029 0.029 0.061 0.054 0.097 0.074 1.134 0.648 2.381 0.455 3.183-0.349l11.601-11.622c0.029-0.029 0.054-0.062 0.074-0.097 0.647-1.136 0.454-2.387-0.348-3.19z"></path>
</svg>
