<!-- Generated by IcoMoon.io -->
<svg version="1.1" xmlns="http://www.w3.org/2000/svg" width="50" height="32" viewBox="0 0 50 32">
<title>icon-mail</title>
<path d="M46.252 0.125h-43.588c-1.404 0-2.542 1.132-2.542 2.528v26.602c0 1.396 1.138 2.528 2.542 2.528h43.588c1.404 0 2.542-1.132 2.542-2.528v-26.602c0-1.396-1.138-2.528-2.542-2.528zM44.585 25.212c0.689 0.569 0.784 1.586 0.212 2.272-0.321 0.384-0.783 0.583-1.249 0.583-0.365 0-0.733-0.122-1.035-0.372l-11.441-9.443-5.577 4.602c-0.3 0.248-0.668 0.372-1.036 0.372s-0.736-0.124-1.036-0.372l-5.577-4.602-11.442 9.443c-0.688 0.569-1.711 0.476-2.285-0.211-0.572-0.685-0.477-1.702 0.212-2.272l10.973-9.056-10.973-9.056c-0.689-0.569-0.784-1.586-0.212-2.272 0.574-0.685 1.596-0.779 2.285-0.211l18.055 14.9 18.055-14.9c0.689-0.568 1.713-0.474 2.285 0.211s0.477 1.702-0.212 2.272l-10.974 9.056 10.974 9.057z"></path>
</svg>
