<!-- Generated by IcoMoon.io -->
<svg version="1.1" xmlns="http://www.w3.org/2000/svg" width="34" height="32" viewBox="0 0 34 32">
<title>icon-any-language</title>
<path fill="#2ea2db" d="M15.929 27.959c-6.609 0-11.971-5.362-11.971-11.971s5.362-11.971 11.971-11.971c6.609 0 11.971 5.362 11.971 11.971s-5.357 11.971-11.971 11.971z"></path>
<path fill="#fff" d="M15.929 6.303v0c-5.362 0-9.685 4.322-9.685 9.685v0c0 5.362 4.322 9.685 9.685 9.685v0c5.362 0 9.685-4.322 9.685-9.685v0c0-5.362-4.323-9.685-9.685-9.685z"></path>
<path fill="#193651" d="M15.929 5.785c-5.624 0-10.202 4.584-10.202 10.202s4.578 10.202 10.202 10.202c5.623 0 10.202-4.578 10.202-10.202s-4.578-10.202-10.202-10.202zM10.725 15.987c0-1.040 0.103-2.085 0.31-3.021h4.371v6.037h-4.371c-0.207-0.931-0.31-1.976-0.31-3.016zM16.452 6.88c1.824 0.31 3.386 2.292 4.11 5.052h-4.11v-5.052zM15.412 6.88v5.052h-4.11c0.724-2.765 2.286-4.742 4.11-5.052zM15.412 20.049v5.052c-1.824-0.31-3.386-2.292-4.11-5.052h4.11zM16.452 25.095v-5.052h4.11c-0.779 2.766-2.292 4.742-4.11 5.052zM16.452 19.009v-6.043h4.371c0.207 0.936 0.31 1.976 0.31 3.021s-0.103 2.085-0.31 3.021h-4.371zM21.863 12.966h2.657c0.31 0.936 0.523 1.976 0.523 3.021s-0.207 2.085-0.523 3.021h-2.657c0.158-0.936 0.261-1.976 0.261-3.021 0.054-1.040-0.049-2.080-0.261-3.021zM24.1 11.926h-2.444c-0.468-1.824-1.252-3.332-2.188-4.426 2.031 0.887 3.696 2.45 4.633 4.426zM12.39 7.555c-0.991 1.094-1.72 2.602-2.188 4.426h-2.444c0.936-2.031 2.602-3.593 4.633-4.426zM7.289 12.966h2.657c-0.158 0.936-0.261 1.976-0.261 3.021s0.103 2.085 0.261 3.021h-2.657c-0.365-0.936-0.523-1.976-0.523-3.021s0.158-2.080 0.523-3.021zM7.703 20.049h2.444c0.468 1.824 1.247 3.332 2.188 4.426-1.976-0.887-3.642-2.45-4.633-4.426zM19.467 24.42c0.991-1.094 1.72-2.602 2.188-4.426h2.444c-0.936 2.031-2.602 3.593-4.633 4.426z"></path>
<path fill="#193651" d="M2.76 9.117l-0.936-0.468c-0.158 0.31-0.31 0.675-0.468 0.991l0.936 0.414c0.103-0.31 0.261-0.626 0.468-0.936z"></path>
<path fill="#193651" d="M6.56 4.484l-0.675-0.833c-0.31 0.261-0.572 0.468-0.833 0.73l0.73 0.73c0.207-0.212 0.468-0.419 0.778-0.626z"></path>
<path fill="#193651" d="M3.745 7.5l-0.833-0.626c-0.207 0.261-0.365 0.572-0.572 0.887l0.887 0.523c0.158-0.316 0.365-0.572 0.517-0.784z"></path>
<path fill="#193651" d="M1.405 12.917l-1.040-0.207c-0.103 0.365-0.158 0.73-0.207 1.094l1.040 0.158c0-0.316 0.103-0.681 0.207-1.045z"></path>
<path fill="#193651" d="M5.052 5.835l-0.778-0.73c-0.261 0.261-0.523 0.572-0.73 0.833l0.833 0.675c0.207-0.256 0.414-0.517 0.675-0.778z"></path>
<path fill="#193651" d="M1.927 11.044l-0.991-0.365c-0.103 0.365-0.207 0.675-0.31 1.040l0.991 0.261c0.049-0.316 0.152-0.626 0.31-0.936z"></path>
<path fill="#193651" d="M2.76 22.912l-0.936 0.468c0.158 0.31 0.31 0.626 0.523 0.936l0.936-0.523c-0.212-0.31-0.37-0.572-0.523-0.882z"></path>
<path fill="#193651" d="M1.040 15.987c0-0.31 0-0.675 0.054-1.040l-1.040-0.054c-0.054 0.365-0.054 0.729-0.054 1.094v0.054h1.040v-0.054z"></path>
<path fill="#193651" d="M1.927 21.039l-0.991 0.365c0.103 0.31 0.261 0.675 0.414 0.991l0.936-0.414c-0.098-0.321-0.256-0.631-0.359-0.942z"></path>
<path fill="#193651" d="M1.094 17.082l-1.040 0.049c0 0.365 0.054 0.73 0.103 1.094l1.040-0.158c-0.054-0.31-0.103-0.675-0.103-0.985z"></path>
<path fill="#193651" d="M1.405 19.112l-1.040 0.207c0.054 0.365 0.158 0.675 0.261 1.040l1.040-0.261c-0.103-0.31-0.207-0.675-0.261-0.985z"></path>
<path fill="#193651" d="M29.931 10.99l0.991-0.365c-0.158-0.31-0.261-0.675-0.414-0.991l-0.936 0.414c0.103 0.316 0.256 0.631 0.359 0.942z"></path>
<path fill="#193651" d="M3.745 24.578l-0.833 0.626c0.207 0.31 0.468 0.626 0.675 0.887l0.778-0.73-0.621-0.784z"></path>
<path fill="#193651" d="M29.098 9.117l0.887-0.468c-0.158-0.31-0.31-0.626-0.523-0.936l-0.887 0.523c0.212 0.31 0.37 0.566 0.523 0.882z"></path>
<path fill="#193651" d="M28.058 7.397l0.833-0.626c-0.207-0.31-0.468-0.626-0.675-0.887l-0.778 0.675c0.207 0.321 0.414 0.577 0.621 0.838z"></path>
<path fill="#193651" d="M11.868 1.67l-0.261-0.991c-0.365 0.103-0.675 0.207-1.040 0.31l0.365 0.991c0.31-0.098 0.626-0.207 0.936-0.31z"></path>
<path fill="#193651" d="M26.757 5.835l0.778-0.73-0.778-0.778-0.73 0.778c0.261 0.212 0.523 0.474 0.73 0.73z"></path>
<path fill="#193651" d="M13.898 1.202l-0.158-1.040c-0.365 0.054-0.73 0.158-1.094 0.207l0.207 1.040c0.37-0.049 0.681-0.103 1.045-0.207z"></path>
<path fill="#193651" d="M23.686 28.688l0.523 0.887c0.31-0.207 0.626-0.419 0.936-0.626l-0.626-0.833c-0.261 0.207-0.523 0.419-0.833 0.572z"></path>
<path fill="#193651" d="M25.298 27.545l0.675 0.778c0.31-0.261 0.572-0.468 0.833-0.675l-0.73-0.778c-0.256 0.256-0.517 0.468-0.778 0.675z"></path>
<path fill="#193651" d="M23.218 1.828l-0.468 0.936c0.31 0.158 0.572 0.365 0.887 0.523l0.523-0.936c-0.316-0.158-0.631-0.365-0.942-0.523z"></path>
<path fill="#193651" d="M25.091 2.971l-0.626 0.833c0.31 0.207 0.572 0.419 0.833 0.626l0.675-0.778c-0.31-0.261-0.572-0.468-0.882-0.68z"></path>
<path fill="#193651" d="M21.242 0.995l-0.365 0.991c0.31 0.103 0.626 0.207 0.936 0.365l0.419-0.936c-0.316-0.158-0.632-0.316-0.991-0.419z"></path>
<path fill="#193651" d="M21.863 29.624l0.414 0.936c0.365-0.158 0.675-0.31 0.991-0.414l-0.468-0.936c-0.31 0.158-0.621 0.261-0.936 0.414z"></path>
<path fill="#193651" d="M30.453 18.954l1.040 0.207c0.103-0.31 0.158-0.675 0.158-1.040l-1.040-0.158c-0.054 0.316-0.103 0.68-0.158 0.991z"></path>
<path fill="#193651" d="M19.99 30.305l0.261 0.991c0.365-0.103 0.675-0.207 1.094-0.31l-0.365-0.991c-0.365 0.098-0.68 0.207-0.991 0.31z"></path>
<path fill="#193651" d="M29.931 20.93l0.991 0.365c0.103-0.365 0.207-0.73 0.31-1.094l-0.991-0.261c-0.098 0.37-0.201 0.681-0.31 0.991z"></path>
<path fill="#193651" d="M29.152 22.809l0.936 0.468c0.158-0.31 0.31-0.626 0.419-0.991l-0.936-0.419c-0.109 0.316-0.261 0.626-0.419 0.942z"></path>
<path fill="#193651" d="M28.112 24.523l0.833 0.626c0.207-0.31 0.419-0.626 0.626-0.936l-0.887-0.523c-0.207 0.261-0.365 0.572-0.572 0.833z"></path>
<path fill="#193651" d="M26.811 26.086l0.778 0.73c0.207-0.261 0.468-0.523 0.73-0.833l-0.833-0.675c-0.207 0.256-0.468 0.517-0.675 0.778z"></path>
<path fill="#193651" d="M13.795 31.758c0.365 0.054 0.73 0.103 1.094 0.103l0.054-1.040c-0.31-0.054-0.675-0.054-0.991-0.103l-0.158 1.040z"></path>
<path fill="#193651" d="M11.715 31.345c0.31 0.103 0.675 0.207 1.040 0.261l0.207-0.991c-0.31-0.103-0.675-0.158-0.991-0.261l-0.256 0.991z"></path>
<path fill="#193651" d="M5.101 26.14l-0.778 0.73 0.778 0.778 0.73-0.778c-0.261-0.261-0.523-0.468-0.73-0.73z"></path>
<path fill="#193651" d="M16.969 0.108l-0.054 1.040c0.31 0 0.675 0.054 0.991 0.103l0.158-1.040c-0.365-0.049-0.73-0.103-1.094-0.103z"></path>
<path fill="#193651" d="M14.889 1.153c0.31 0 0.675-0.054 1.040-0.054v-1.040c-0.365 0-0.73 0.054-1.094 0.054l0.054 1.040z"></path>
<path fill="#193651" d="M17.959 30.719l0.158 1.040c0.365-0.054 0.73-0.103 1.040-0.158l-0.207-1.040c-0.316 0.054-0.68 0.109-0.991 0.158z"></path>
<path fill="#193651" d="M19.103 0.369l-0.207 1.040c0.365 0.054 0.675 0.158 0.991 0.261l0.261-1.040c-0.316-0.103-0.68-0.207-1.045-0.261z"></path>
<path fill="#193651" d="M15.983 30.877v1.040c0.365 0 0.73-0.054 1.094-0.054l-0.054-1.040c-0.365 0.054-0.675 0.054-1.040 0.054z"></path>
<path fill="#fff" d="M32.794 15.987c0 0.833-0.675 1.508-1.508 1.508s-1.508-0.675-1.508-1.508c0-0.833 0.675-1.508 1.508-1.508s1.508 0.675 1.508 1.508z"></path>
<path fill="#193651" d="M31.444 12.71c-0.054-0.365-0.158-0.675-0.261-1.040l-0.991 0.261c0.103 0.31 0.207 0.675 0.261 0.991l0.991-0.212z"></path>
<path fill="#193651" d="M31.733 14.006c-0.011-0.071-0.022-0.136-0.027-0.207l-1.040 0.158c0.005 0.027 0.011 0.060 0.016 0.087-0.833 0.25-1.421 1.013-1.421 1.944 0 1.143 0.936 2.031 2.031 2.031 1.143 0 2.031-0.887 2.031-2.031-0.005-0.985-0.702-1.78-1.59-1.982zM31.286 16.978c-0.572 0-0.991-0.468-0.991-0.991 0-0.572 0.468-0.991 0.991-0.991 0.572 0 0.991 0.468 0.991 0.991 0 0.572-0.468 0.991-0.991 0.991z"></path>
<path fill="#fff" d="M9.527 3.025c0 0.833-0.675 1.508-1.508 1.508s-1.508-0.675-1.508-1.508c0-0.833 0.675-1.508 1.508-1.508s1.508 0.675 1.508 1.508z"></path>
<path fill="#fff" d="M9.941 29.679c0 0.833-0.675 1.508-1.508 1.508s-1.508-0.675-1.508-1.508c0-0.833 0.675-1.508 1.508-1.508s1.508 0.675 1.508 1.508z"></path>
<path fill="#193651" d="M10.425 29.793c0.011-0.708-0.365-1.388-1.002-1.78-0.31-0.158-0.626-0.261-0.991-0.261-0.381 0-0.762 0.114-1.089 0.332-0.288-0.196-0.539-0.392-0.784-0.588l-0.675 0.833c0.267 0.223 0.495 0.403 0.746 0.582-0.196 0.425-0.261 0.882-0.125 1.345 0.158 0.523 0.468 0.936 0.936 1.198 0.31 0.158 0.626 0.261 0.991 0.261 0.713 0 1.383-0.354 1.699-0.904 0.152 0.065 0.316 0.131 0.49 0.18l0.365-0.991c-0.191-0.071-0.376-0.136-0.561-0.207zM8.433 30.615c-0.517 0-0.936-0.419-0.936-0.936s0.419-0.936 0.936-0.936c0.517 0 0.936 0.419 0.936 0.936 0.005 0.517-0.419 0.936-0.936 0.936z"></path>
<path fill="#193651" d="M9.886 2.367c0.038-0.022 0.071-0.044 0.109-0.065l-0.414-0.936c-0.098 0.044-0.196 0.087-0.289 0.125-0.343-0.283-0.8-0.441-1.274-0.441-0.31 0-0.675 0.103-0.991 0.261-0.936 0.572-1.301 1.824-0.73 2.76 0.31 0.626 0.991 0.991 1.715 0.991 0.397 0 1.557-0.261 1.927-1.508 0.12-0.408 0.087-0.811-0.054-1.187zM8.019 4c-0.539 0-0.974-0.436-0.974-0.974s0.436-0.974 0.974-0.974c0.539 0 0.974 0.436 0.974 0.974s-0.436 0.974-0.974 0.974z"></path>
</svg>
