<!-- Generated by IcoMoon.io -->
<svg version="1.1" xmlns="http://www.w3.org/2000/svg" width="36" height="32" viewBox="0 0 36 32">
<title>icon-telegramm</title>
<path d="M4.129 13.858l6.554 2.446 2.537 8.159c0.162 0.523 0.801 0.716 1.225 0.369l3.653-2.978c0.383-0.312 0.928-0.328 1.329-0.037l6.589 4.784c0.454 0.33 1.096 0.081 1.21-0.467l4.827-23.219c0.124-0.599-0.464-1.098-1.034-0.878l-26.898 10.377c-0.664 0.256-0.658 1.196 0.008 1.445zM12.811 15.002l12.809-7.889c0.23-0.141 0.467 0.17 0.269 0.353l-10.571 9.827c-0.372 0.346-0.611 0.809-0.679 1.311l-0.36 2.669c-0.048 0.356-0.548 0.392-0.647 0.047l-1.385-4.866c-0.159-0.555 0.073-1.148 0.563-1.451z"></path>
</svg>
