<!-- Generated by IcoMoon.io -->
<svg version="1.1" xmlns="http://www.w3.org/2000/svg" width="31" height="32" viewBox="0 0 31 32">
<title>icon-order</title>
<path fill="#fff" d="M16.070 0.503v0c-4.907 0-8.914 4.006-8.914 8.914v0c0 4.907 4.006 8.914 8.914 8.914v0c4.907 0 8.914-4.006 8.914-8.914v0c0.005-4.907-4.001-8.914-8.914-8.914z"></path>
<path fill="#193651" d="M16.070 18.828c-5.206 0-9.416-4.205-9.416-9.416s4.211-9.411 9.416-9.411c5.206 0 9.416 4.205 9.416 9.416s-4.205 9.411-9.416 9.411zM16.070 1c-4.656 0-8.411 3.755-8.411 8.411s3.755 8.411 8.411 8.411c4.656 0 8.411-3.755 8.411-8.411s-3.75-8.411-8.411-8.411z"></path>
<path fill="#fdbf5e" d="M16.070 16.324c-3.807 0-6.913-3.106-6.913-6.913s3.106-6.913 6.913-6.913c3.807 0 6.913 3.106 6.913 6.913s-3.106 6.913-6.913 6.913z"></path>
<path fill="#fff" d="M0.547 18.33h4.755v10.967h-4.755v-10.967z"></path>
<path fill="#193651" d="M16.070 8.966c-0.649 0-1.205-0.55-1.205-1.199s0.55-1.199 1.205-1.199c0.655 0 1.205 0.55 1.205 1.199h1c0-1.053-0.749-1.901-1.702-2.152v-0.801h-1v0.801c-1 0.251-1.702 1.1-1.702 2.152 0 1.199 1 2.205 2.205 2.205 0.649 0 1.205 0.55 1.205 1.205s-0.55 1.199-1.205 1.199c-0.649 0-1.205-0.55-1.205-1.199h-1c0 1.053 0.749 1.901 1.702 2.152v0.702h1v-0.702c1-0.251 1.702-1.1 1.702-2.152 0-1.21-1-2.21-2.205-2.21z"></path>
<path fill="#193651" d="M2.401 20.535h1v1h-1v-1z"></path>
<path fill="#193651" d="M2.401 23.337h1v1h-1v-1z"></path>
<path fill="#193651" d="M2.401 26.144h1v1h-1v-1z"></path>
<path fill="#193651" d="M20.228 8.867h1v1.1h-1v-1.1z"></path>
<path fill="#193651" d="M10.916 8.867h1v1.1h-1v-1.1z"></path>
<path fill="#193651" d="M31.095 22.886c-0.503-1.053-1.702-1.55-2.755-1.152l-6.808 2.304c0.052-0.152 0.052-0.351 0.052-0.55 0-1.304-1.053-2.351-2.351-2.351h-5.059c-0.152 0-0.351-0.052-0.503-0.099l-3.258-1.702-0.052-0.052c-0.299-0.099-0.602-0.152-0.901-0.152h-3.656v-1.351h-5.756v11.967h5.761v-1.053h1.252l9.317 3.106c0.351 0.099 0.702 0.199 1.1 0.199 0.55 0 1.1-0.152 1.603-0.403l11.066-5.86c1-0.492 1.451-1.749 0.948-2.849zM4.804 28.794v0.052h-3.755v-10.019h3.755v9.966zM29.644 24.939l-11.066 5.808c-0.602 0.299-1.304 0.351-1.953 0.152l-9.464-3.153h-1.404v-7.562h3.656c0.199 0 0.351 0.052 0.55 0.099l3.258 1.702 0.052 0.052c0.251 0.099 0.55 0.152 0.854 0.152h5.059c0.749 0 1.351 0.602 1.351 1.351 0 0.398-0.199 0.749-0.45 1l-0.953 0.351h-4.106c-1.053 0-1.901 0.854-1.901 1.901h1c0-0.503 0.398-0.901 0.901-0.901h4.158c0.503 0 0.953-0.152 1.351-0.45l8.065-2.755c0.602-0.199 1.252 0.052 1.503 0.649 0.341 0.55 0.142 1.304-0.461 1.603z"></path>
</svg>
