<!-- Generated by IcoMoon.io -->
<svg version="1.1" xmlns="http://www.w3.org/2000/svg" width="55" height="32" viewBox="0 0 55 32">
<title>icon-vk</title>
<path d="M47.113 19.708c1.816 1.773 3.732 3.441 5.361 5.393 0.719 0.867 1.401 1.762 1.922 2.769 0.738 1.431 0.070 3.005-1.213 3.091l-7.975-0.004c-2.057 0.171-3.698-0.657-5.077-2.064-1.104-1.125-2.127-2.322-3.188-3.484-0.435-0.475-0.891-0.922-1.435-1.276-1.089-0.707-2.034-0.49-2.656 0.645-0.634 1.155-0.777 2.434-0.84 3.721-0.085 1.878-0.653 2.372-2.539 2.458-4.031 0.19-7.857-0.42-11.412-2.453-3.133-1.793-5.563-4.324-7.678-7.189-4.118-5.579-7.271-11.71-10.106-18.013-0.638-1.42-0.171-2.182 1.395-2.209 2.602-0.051 5.203-0.047 7.808-0.004 1.057 0.015 1.757 0.622 2.166 1.621 1.408 3.461 3.13 6.754 5.292 9.806 0.576 0.813 1.163 1.625 1.999 2.197 0.925 0.633 1.629 0.423 2.064-0.607 0.276-0.653 0.397-1.357 0.459-2.056 0.206-2.407 0.233-4.81-0.128-7.209-0.222-1.497-1.065-2.466-2.559-2.749-0.762-0.144-0.649-0.428-0.28-0.863 0.641-0.75 1.244-1.217 2.446-1.217h9.013c1.419 0.28 1.734 0.917 1.928 2.345l0.008 10.012c-0.015 0.553 0.276 2.193 1.272 2.559 0.797 0.26 1.322-0.377 1.8-0.882 2.158-2.29 3.698-4.997 5.074-7.8 0.611-1.232 1.136-2.512 1.644-3.791 0.377-0.949 0.969-1.416 2.037-1.395l8.674 0.008c0.257 0 0.517 0.004 0.767 0.046 1.462 0.249 1.862 0.878 1.411 2.305-0.711 2.239-2.095 4.106-3.449 5.981-1.447 2.002-2.994 3.935-4.428 5.948-1.318 1.839-1.213 2.766 0.424 4.363v0z"></path>
</svg>
