<!-- Generated by IcoMoon.io -->
<svg version="1.1" xmlns="http://www.w3.org/2000/svg" width="35" height="32" viewBox="0 0 35 32">
<title>icon-writing-text</title>
<path fill="#fff" d="M3.529 9.883h27.559v17.469h-27.559v-17.469z"></path>
<path fill="#2ea2db" d="M5.65 12.005h23.311v13.221h-23.311v-13.221z"></path>
<path fill="#fff" d="M0.533 27.353c0 2.282 2.518 4.087 4.745 4.087h25.010c2.177 0 3.981-1.805 3.981-4.087h-33.737z"></path>
<path fill="#193651" d="M14.518 28.841h1.061v1.061h-1.061v-1.061z"></path>
<path fill="#193651" d="M17.228 28.841h1.061v1.061h-1.061v-1.061z"></path>
<path fill="#193651" d="M19.988 28.841h1.061v1.061h-1.061v-1.061z"></path>
<path fill="#fff" d="M14.251 0.538l-4.936 4.937v16.037h15.981v-20.973z"></path>
<path fill="#d3d7da" d="M14.251 0.538l-5.259 5.253h5.259z"></path>
<path fill="#193651" d="M31.615 9.35h-5.842v-9.345h-11.733l-5.259 5.259v4.087h-5.842v17.414h-2.94v0.533c0 2.549 2.779 4.62 5.278 4.62h25.010c2.493 0 4.515-2.071 4.515-4.62v-0.533h-3.187v-17.414zM9.842 5.685l4.62-4.62h10.251v19.913h-14.871v-15.293zM4.056 10.411h4.781v11.628h16.992v-11.628h4.781v16.353h-26.554v-16.353zM30.288 30.857h-25.010c-1.699 0-3.895-1.327-4.162-3.026h32.57c-0.267 1.749-1.699 3.026-3.398 3.026z"></path>
<path fill="#193651" d="M12.874 12.538h8.868v1.061h-8.868v-1.061z"></path>
<path fill="#193651" d="M12.874 15.458h8.868v1.061h-8.868v-1.061z"></path>
</svg>
