<svg width="87" height="64" viewBox="0 0 87 64" xmlns="http://www.w3.org/2000/svg" xmlns:xlink="http://www.w3.org/1999/xlink"><title>Group 21</title><defs><path d="M63.6 18.801C58.956 12.598 46.21.067 32 .067 18.802.067 6.124 11.157.4 18.801a2 2 0 0 0 0 2.398C7.036 30.061 19.65 39.933 32 39.933c13.198 0 25.876-11.09 31.6-18.734a2 2 0 0 0 0-2.398zM32 35.933C21.622 35.933 11.271 27.97 4.57 20 7.848 16.106 19.034 4.067 32 4.067c10.378 0 20.729 7.962 27.43 15.933C56.152 23.894 44.966 35.933 32 35.933z" id="b"/><filter x="-34.4%" y="-35.1%" width="168.8%" height="210.4%" filterUnits="objectBoundingBox" id="a"><feOffset dy="8" in="SourceAlpha" result="shadowOffsetOuter1"/><feGaussianBlur stdDeviation="6" in="shadowOffsetOuter1" result="shadowBlurOuter1"/><feColorMatrix values="0 0 0 0 0 0 0 0 0 0 0 0 0 0 0 0 0 0 0.5 0" in="shadowBlurOuter1"/></filter></defs><g transform="translate(11.511 4)" fill="none"><use fill="#000" filter="url(#a)" xlink:href="#b"/><use fill="#FFF" fill-rule="evenodd" xlink:href="#b"/><path d="M32 8c-6.617 0-12 5.383-12 12s5.383 12 12 12 12-5.383 12-12S38.617 8 32 8zm0 20c-4.411 0-8-3.589-8-8s3.589-8 8-8 8 3.589 8 8-3.589 8-8 8z" fill="#FFF"/><ellipse fill="#FFF" cx="32" cy="20" rx="3.333" ry="3.333"/></g></svg>