<?xml version="1.0" encoding="UTF-8"?><!DOCTYPE svg PUBLIC "-//W3C//DTD SVG 1.1//EN" "http://www.w3.org/Graphics/SVG/1.1/DTD/svg11.dtd"><svg xmlns="http://www.w3.org/2000/svg"><symbol id="arrow-cl" viewBox="0 0 50 32"><title>arrow-cl</title><path d="M23.874 16.484L9.283 1.893a4.518 4.518 0 0 0-6.372 0L1.316 3.488a4.516 4.516 0 0 0 0 6.374l19.121 19.121c.939.941 2.201 1.359 3.439 1.292 1.236.067 2.498-.351 3.437-1.292L46.432 9.862a4.516 4.516 0 0 0 0-6.374l-1.595-1.595c-1.749-1.753-4.618-1.753-6.369 0L23.874 16.484z"/></symbol><symbol id="arrow" viewBox="0 0 37 32"><title>arrow</title><path d="M35.317 14.227L23.716 2.603a.456.456 0 0 0-.096-.074c-1.134-.648-2.382-.455-3.183.348l-.569.57a.437.437 0 0 0-.074.097c-.647 1.136-.454 2.387.348 3.19l4.34 4.349a.431.431 0 0 1 .107.171c.366 1.134-.4 2.027-1.326 2.027H2.179c-.246 0-.445.2-.445.446v4.563c0 .246.199.446.445.446h21.395c.068 0 .136.014.197.045 1.059.543 1.147 1.717.493 2.373l-4.394 4.402a.462.462 0 0 0-.074.097c-.647 1.137-.453 2.387.349 3.19l.567.568a.437.437 0 0 0 .097.074c1.134.648 2.381.455 3.183-.349l11.601-11.622a.462.462 0 0 0 .074-.097c.647-1.136.454-2.387-.348-3.19z"/></symbol><symbol id="icon-any-complexity" viewBox="0 0 25 32"><title>icon-any-complexity</title><path fill="#d3d7da" d="M16.522 7.409h5.909L16.522 1.5z"/><path fill="#193651" d="M22.828 26.483H2.207V1.104h14.752l5.869 5.869v19.51zM3 25.69h19.034V7.29l-5.393-5.393H3V25.69z"/><path fill="#f16051" d="M6.648 10.938a3.589 3.589 0 0 0 1.943.555 3.653 3.653 0 0 0 3.569-2.895l-3.41-.436-2.102 2.776z"/><path fill="#fdbf5e" d="M12.279 7.884v-.198c0-1.903-1.467-3.49-3.371-3.609v3.371l3.371.436z"/><path fill="#2ea2db" d="M8.234 4.078c-1.864.159-3.371 1.705-3.371 3.609 0 1.11.476 2.062 1.229 2.736l2.102-2.816V4.078h.04z"/><path fill="#193651" d="M9.345 22.359h.793v.793h-.793v-.793z"/><path fill="#f16051" d="M5.855 21.803h1.864v1.864H5.855v-1.864z"/><path fill="#193651" d="M9.345 18.79h.793v.793h-.793v-.793z"/><path fill="#f16051" d="M5.855 18.234h1.864v1.864H5.855v-1.864z"/><path fill="#193651" d="M9.345 15.221h.793v.793h-.793v-.793zM11.209 22.359h7.931v.793h-7.931v-.793zM11.209 18.79h7.931v.793h-7.931v-.793zM11.209 15.221h7.931v.793h-7.931v-.793z"/><path fill="#f16051" d="M5.855 14.666h1.864v1.864H5.855v-1.864zM13.57 10.673h2.98v17.554h-2.98V10.673z"/><path fill="#fdbf5e" d="M8.17 16.399h2.98v11.827H8.17V16.399z"/><path fill="#4fbf9f" d="M2.722 20.45h2.98v7.776h-2.98V20.45z"/><path fill="#193651" d="M17.018 28.689h-3.91V6.666h3.91v22.023zm-2.98-.93h2.05V7.6h-2.05v20.159zM11.618 28.689h-3.91V12.815h3.91v15.874zm-2.98-.93h2.05V13.745h-2.05v14.014zM6.169 28.689h-3.91V17.144h3.91v11.545zm-2.98-.93h2.05v-9.685h-2.05v9.685z"/></symbol><symbol id="icon-any-language" viewBox="0 0 34 32"><title>icon-any-language</title><path fill="#2ea2db" d="M15.929 27.959c-6.609 0-11.971-5.362-11.971-11.971S9.32 4.017 15.929 4.017 27.9 9.379 27.9 15.988s-5.357 11.971-11.971 11.971z"/><path fill="#fff" d="M15.929 6.303a9.668 9.668 0 0 0-9.685 9.685 9.668 9.668 0 0 0 9.685 9.685 9.668 9.668 0 0 0 9.685-9.685 9.668 9.668 0 0 0-9.685-9.685z"/><path fill="#193651" d="M15.929 5.785c-5.624 0-10.202 4.584-10.202 10.202s4.578 10.202 10.202 10.202c5.623 0 10.202-4.578 10.202-10.202S21.553 5.785 15.929 5.785zm-5.204 10.202c0-1.04.103-2.085.31-3.021h4.371v6.037h-4.371a14.15 14.15 0 0 1-.31-3.016zm5.727-9.107c1.824.31 3.386 2.292 4.11 5.052h-4.11V6.88zm-1.04 0v5.052h-4.11c.724-2.765 2.286-4.742 4.11-5.052zm0 13.169v5.052c-1.824-.31-3.386-2.292-4.11-5.052h4.11zm1.04 5.046v-5.052h4.11c-.779 2.766-2.292 4.742-4.11 5.052zm0-6.086v-6.043h4.371c.207.936.31 1.976.31 3.021s-.103 2.085-.31 3.021h-4.371zm5.411-6.043h2.657c.31.936.523 1.976.523 3.021s-.207 2.085-.523 3.021h-2.657c.158-.936.261-1.976.261-3.021.054-1.04-.049-2.08-.261-3.021zm2.237-1.04h-2.444c-.468-1.824-1.252-3.332-2.188-4.426 2.031.887 3.696 2.45 4.633 4.426zM12.39 7.555c-.991 1.094-1.72 2.602-2.188 4.426H7.758a8.738 8.738 0 0 1 4.633-4.426zm-5.101 5.411h2.657c-.158.936-.261 1.976-.261 3.021s.103 2.085.261 3.021H7.289c-.365-.936-.523-1.976-.523-3.021s.158-2.08.523-3.021zm.414 7.083h2.444c.468 1.824 1.247 3.332 2.188 4.426a9.598 9.598 0 0 1-4.633-4.426zm11.764 4.371c.991-1.094 1.72-2.602 2.188-4.426h2.444a8.738 8.738 0 0 1-4.633 4.426zM2.76 9.117l-.936-.468c-.158.31-.31.675-.468.991l.936.414c.103-.31.261-.626.468-.936zM6.56 4.484l-.675-.833c-.31.261-.572.468-.833.73l.73.73c.207-.212.468-.419.778-.626zM3.745 7.5l-.833-.626c-.207.261-.365.572-.572.887l.887.523c.158-.316.365-.572.517-.784zM1.405 12.917l-1.04-.207c-.103.365-.158.73-.207 1.094l1.04.158c0-.316.103-.681.207-1.045zM5.052 5.835l-.778-.73c-.261.261-.523.572-.73.833l.833.675c.207-.256.414-.517.675-.778zM1.927 11.044l-.991-.365c-.103.365-.207.675-.31 1.04l.991.261c.049-.316.152-.626.31-.936zM2.76 22.912l-.936.468c.158.31.31.626.523.936l.936-.523a6.912 6.912 0 0 1-.523-.882zM1.04 15.987c0-.31 0-.675.054-1.04l-1.04-.054C0 15.258 0 15.622 0 15.987v.054h1.04v-.054zM1.927 21.039l-.991.365c.103.31.261.675.414.991l.936-.414c-.098-.321-.256-.631-.359-.942zM1.094 17.082l-1.04.049c0 .365.054.73.103 1.094l1.04-.158a6.098 6.098 0 0 1-.103-.985zM1.405 19.112l-1.04.207c.054.365.158.675.261 1.04l1.04-.261a7.316 7.316 0 0 1-.261-.985zM29.931 10.99l.991-.365c-.158-.31-.261-.675-.414-.991l-.936.414c.103.316.256.631.359.942zM3.745 24.578l-.833.626c.207.31.468.626.675.887l.778-.73-.621-.784zM29.098 9.117l.887-.468c-.158-.31-.31-.626-.523-.936l-.887.523c.212.31.37.566.523.882zM28.058 7.397l.833-.626c-.207-.31-.468-.626-.675-.887l-.778.675c.207.321.414.577.621.838zM11.868 1.67l-.261-.991c-.365.103-.675.207-1.04.31l.365.991c.31-.098.626-.207.936-.31zM26.757 5.835l.778-.73-.778-.778-.73.778c.261.212.523.474.73.73zM13.898 1.202L13.74.162c-.365.054-.73.158-1.094.207l.207 1.04c.37-.049.681-.103 1.045-.207zM23.686 28.688l.523.887.936-.626-.626-.833c-.261.207-.523.419-.833.572zM25.298 27.545l.675.778c.31-.261.572-.468.833-.675l-.73-.778a8.781 8.781 0 0 1-.778.675zM23.218 1.828l-.468.936c.31.158.572.365.887.523l.523-.936c-.316-.158-.631-.365-.942-.523zM25.091 2.971l-.626.833c.31.207.572.419.833.626l.675-.778c-.31-.261-.572-.468-.882-.68zM21.242.995l-.365.991c.31.103.626.207.936.365l.419-.936c-.316-.158-.632-.316-.991-.419zM21.863 29.624l.414.936c.365-.158.675-.31.991-.414l-.468-.936c-.31.158-.621.261-.936.414zM30.453 18.954l1.04.207c.103-.31.158-.675.158-1.04l-1.04-.158c-.054.316-.103.68-.158.991zM19.99 30.305l.261.991c.365-.103.675-.207 1.094-.31l-.365-.991c-.365.098-.68.207-.991.31zM29.931 20.93l.991.365.31-1.094-.991-.261c-.098.37-.201.681-.31.991zM29.152 22.809l.936.468c.158-.31.31-.626.419-.991l-.936-.419a7.92 7.92 0 0 1-.419.942zM28.112 24.523l.833.626.626-.936-.887-.523c-.207.261-.365.572-.572.833zM26.811 26.086l.778.73c.207-.261.468-.523.73-.833l-.833-.675c-.207.256-.468.517-.675.778zM13.795 31.758c.365.054.73.103 1.094.103l.054-1.04c-.31-.054-.675-.054-.991-.103l-.158 1.04zM11.715 31.345c.31.103.675.207 1.04.261l.207-.991c-.31-.103-.675-.158-.991-.261l-.256.991zM5.101 26.14l-.778.73.778.778.73-.778c-.261-.261-.523-.468-.73-.73zM16.969.108l-.054 1.04c.31 0 .675.054.991.103l.158-1.04c-.365-.049-.73-.103-1.094-.103zM14.889 1.153c.31 0 .675-.054 1.04-.054V.059c-.365 0-.73.054-1.094.054l.054 1.04zM17.959 30.719l.158 1.04c.365-.054.73-.103 1.04-.158l-.207-1.04c-.316.054-.68.109-.991.158zM19.103.369l-.207 1.04c.365.054.675.158.991.261l.261-1.04a6.516 6.516 0 0 0-1.045-.261zM15.983 30.877v1.04c.365 0 .73-.054 1.094-.054l-.054-1.04c-.365.054-.675.054-1.04.054z"/><path fill="#fff" d="M32.794 15.987a1.508 1.508 0 1 1-3.016 0 1.508 1.508 0 0 1 3.016 0z"/><path fill="#193651" d="M31.444 12.71c-.054-.365-.158-.675-.261-1.04l-.991.261c.103.31.207.675.261.991l.991-.212zM31.733 14.006c-.011-.071-.022-.136-.027-.207l-1.04.158.016.087c-.833.25-1.421 1.013-1.421 1.944 0 1.143.936 2.031 2.031 2.031a2.004 2.004 0 0 0 2.031-2.031 2.046 2.046 0 0 0-1.59-1.982zm-.447 2.972a.99.99 0 1 1 0-1.981.99.99 0 0 1 0 1.981z"/><path fill="#fff" d="M9.527 3.025a1.508 1.508 0 1 1-3.016 0 1.508 1.508 0 0 1 3.016 0zM9.941 29.679a1.508 1.508 0 1 1-3.016 0 1.508 1.508 0 0 1 3.016 0z"/><path fill="#193651" d="M10.425 29.793a2.067 2.067 0 0 0-1.002-1.78c-.31-.158-.626-.261-.991-.261-.381 0-.762.114-1.089.332a12.405 12.405 0 0 1-.784-.588l-.675.833c.267.223.495.403.746.582-.196.425-.261.882-.125 1.345.158.523.468.936.936 1.198.31.158.626.261.991.261.713 0 1.383-.354 1.699-.904.152.065.316.131.49.18l.365-.991c-.191-.071-.376-.136-.561-.207zm-1.992.822a.936.936 0 1 1 0-1.872.936.936 0 0 1 0 1.872zM9.886 2.367c.038-.022.071-.044.109-.065l-.414-.936a9.381 9.381 0 0 1-.289.125 2.01 2.01 0 0 0-1.274-.441c-.31 0-.675.103-.991.261-.936.572-1.301 1.824-.73 2.76.31.626.991.991 1.715.991.397 0 1.557-.261 1.927-1.508.12-.408.087-.811-.054-1.187zM8.019 4a.973.973 0 1 1-.001-1.947A.973.973 0 0 1 8.019 4z"/></symbol><symbol id="icon-business" viewBox="0 0 37 32"><title>icon-business</title><path fill="#fff" d="M34.666 30.65H2.196L.841 26.718h35.367zM2.897 26.343h31.022V4.574H2.897z"/><path fill="#e1e6e9" d="M31.827 22.139v2.143H5.201V6.687h26.626z"/><path fill="#193651" d="M16.116 29.427h4.736v-1.156h-4.736zM23.334 29.427h1.154v-1.156h-1.154zM12.474 29.427h1.154v-1.156h-1.154z"/><path fill="#193651" d="M32.057 30.474H4.911c-1.848 0-3.407-1.447-3.697-3.299h34.6c-.29 1.852-1.848 3.299-3.757 3.299zM3.467 4.949h11.67l18.36.047.009 17.724v3.299H3.467V4.949zm11.61-1.162H2.313v22.226H-.001v.581c0 2.778 2.193 5.036 4.911 5.036h27.206c2.712 0 4.911-2.258 4.911-5.036v-.581h-2.368v-3.299l.052-18.927H15.076z"/><path fill="#fff" d="M5.76 14.842h26.013V.422H5.76z"/><path fill="#4fbf9f" d="M7.436 11.057V4.203a2.077 2.077 0 0 0 2.097-2.101h18.462c0 1.178.922 2.101 2.097 2.101v6.854a2.077 2.077 0 0 0-2.097 2.101H9.533a2.077 2.077 0 0 0-2.097-2.101z"/><path fill="#febe00" d="M19.058 19.757c2.308 1.051 5.037 0 6.085-2.312-2.308-1.051-5.037 0-6.085 2.312zM12.596 21.23a4.638 4.638 0 0 0 5.958 2.691c-.882-2.396-3.567-3.574-5.958-2.691z"/><path fill="#193651" d="M6.177 14.42V.84h25.174v13.58H6.177zm17.076 3.024c.461 0 .882.084 1.299.211-.715 1.301-2.097 2.101-3.606 2.101-.461 0-.882-.083-1.299-.211.755-1.301 2.097-2.101 3.606-2.101zm-6.336 6.349c-1.593 0-3.018-.923-3.734-2.312a4.565 4.565 0 0 1 1.092-.128c1.593 0 3.019.923 3.734 2.313a4.625 4.625 0 0 1-1.092.127zm15.273-8.534V0H5.339v15.259h13.004v7.408c-.934-1.319-2.47-2.15-4.111-2.15-.627 0-1.215.128-1.803.334l-.377.167.167.378c.755 1.934 2.641 3.236 4.699 3.236.496 0 .965-.079 1.426-.215v1.644H5.761v.844h26.013v-.84H19.187v-5.808c.575.22 1.154.343 1.764.343 1.97 0 3.778-1.178 4.616-2.985l.167-.378-.377-.167c-.671-.295-1.343-.462-2.058-.462a5.047 5.047 0 0 0-4.111 2.102v-3.447l13.004-.004z"/><path fill="#4680e0" d="M7.436 11.057V4.203a2.077 2.077 0 0 0 2.097-2.101h18.462c0 1.178.922 2.101 2.097 2.101v6.854a2.077 2.077 0 0 0-2.097 2.101H9.533a2.077 2.077 0 0 0-2.097-2.101z"/><path fill="#fff" d="M18.764 4.247c1.854 0 3.356 1.506 3.356 3.363s-1.503 3.363-3.356 3.363-3.356-1.506-3.356-3.363a3.36 3.36 0 0 1 3.356-3.363zM26.776 6.559a1.05 1.05 0 1 1-.002 2.1 1.05 1.05 0 0 1 .002-2.1zM10.753 6.559a1.05 1.05 0 1 1-.002 2.1 1.05 1.05 0 0 1 .002-2.1z"/></symbol><symbol id="icon-cooperation" viewBox="0 0 32 32"><title>icon-cooperation</title><path fill="#4580e0" d="M3.495 6.12h24.976v16.184H3.495V6.12z"/><path fill="#fff" d="M31.469.525H.501v3.594h.998v20.18h28.972V4.119h.998z"/><path fill="#2fc0ff" d="M3.394 6.303H28.37v16.184H3.394V6.303z"/><path fill="#fff" d="M16.143 14.114c-.615 0-1.14-.521-1.14-1.136s.521-1.136 1.14-1.136c.62 0 1.14.521 1.14 1.136h.947c0-.997-.709-1.8-1.612-2.038v-.759h-.947v.759c-.947.238-1.612 1.041-1.612 2.038 0 1.136.947 2.088 2.088 2.088.615 0 1.14.521 1.14 1.14s-.521 1.136-1.14 1.136c-.615 0-1.14-.521-1.14-1.136h-.947c0 .997.709 1.8 1.612 2.038v.664h.947v-.664c.947-.238 1.612-1.041 1.612-2.038a2.105 2.105 0 0 0-2.088-2.093zM23.991 10.514c-.355 0-.659-.301-.659-.656s.301-.656.659-.656c.358 0 .659.301.659.656h.547c0-.576-.41-1.04-.931-1.178v-.438h-.547v.438a1.204 1.204 0 0 0-.931 1.178c0 .656.547 1.206 1.206 1.206.355 0 .659.301.659.659s-.301.656-.659.656a.668.668 0 0 1-.659-.656h-.547c0 .576.41 1.04.931 1.178v.384h.547v-.384c.547-.138.931-.602.931-1.178 0-.662-.547-1.209-1.206-1.209zM8.845 13.205c-.321 0-.596-.272-.596-.593s.272-.593.596-.593c.324 0 .596.272.596.593h.495c0-.521-.37-.94-.842-1.064v-.396h-.495v.396a1.087 1.087 0 0 0-.842 1.064 1.1 1.1 0 0 0 1.09 1.09c.321 0 .596.272.596.596s-.272.593-.596.593a.604.604 0 0 1-.596-.593h-.495c0 .521.37.94.842 1.064v.347h.495v-.347c.495-.124.842-.544.842-1.064a1.1 1.1 0 0 0-1.09-1.093z"/><path fill="#193651" d="M0 .024v4.597h.998v20.18h14.486V27c-1.149.251-2.001 1.249-2.001 2.45 0 1.4 1.149 2.497 2.497 2.497 1.4 0 2.497-1.149 2.497-2.497 0-1.202-.648-2.1-2.001-2.45v-2.246h14.486V4.621h1.008V.024H-.001zm17.485 29.473c0 .851-.7 1.499-1.499 1.499-.851 0-1.499-.7-1.499-1.499 0-.851.7-1.499 1.499-1.499.852-.052 1.447.648 1.499 1.499zm12.49-5.694H2.001V4.621h27.974v19.182zm.998-20.185H.998V1.022h29.975v2.596z"/><path fill="#193651" d="M12.187 1.821h.998v.998h-.998v-.998zM15.484 1.821h.998v.998h-.998v-.998zM18.78 1.821h.998v.998h-.998v-.998z"/></symbol><symbol id="icon-experience" viewBox="0 0 32 32"><title>icon-experience</title><path fill="#e1e6e9" d="M31.489 13.53c0 3.798-3.098 6.896-6.896 6.896h-2.696c1.196-1.301 1.849-3.046 1.849-4.947 0-4.399-3.699-7.993-8.191-7.742-3.996.199-7.246 3.547-7.345 7.543a7.818 7.818 0 0 0 1.646 4.994c.042.052.078.099.115.151H7.406c-3.798 0-6.896-3.098-6.896-6.896s3.046-6.843 6.843-6.896C8.502 3.284 11.6.787 15.293.537c.251-.052.449-.052.7-.052h.7a9.126 9.126 0 0 1 3.495.998c.998-.601 2.147-.998 3.396-.998 3.396 0 6.143 2.748 6.143 6.196 0 .7-.099 1.348-.298 1.949 1.259 1.254 2.058 3.004 2.058 4.9z"/><path fill="#fff" d="M23.747 15.479c0-4.393-3.699-7.993-8.191-7.742-3.996.199-7.246 3.547-7.345 7.543a7.793 7.793 0 0 0 1.651 4.994c1.301 1.651 2.1 3.699 2.1 5.846v3.349h7.94v-3.296c0-2.1.648-4.148 2.001-5.746 1.196-1.301 1.844-3.045 1.844-4.947z"/><path fill="#fff" d="M16.303 31.464h-.549a1.79 1.79 0 0 1-1.797-1.797v-.199h4.148v.199c-.052.998-.852 1.797-1.802 1.797z"/><path fill="#193651" d="M29.995 8.489c.151-.601.251-1.196.251-1.797C30.246 2.993 27.247 0 23.601 0c-1.202 0-2.398.35-3.448.951a10.3 10.3 0 0 0-3.396-.898 6.725 6.725 0 0 0-1.447 0 9.582 9.582 0 0 0-8.29 6.096c-3.902.24-7 3.49-7 7.381a7.375 7.375 0 0 0 7.392 7.392h2.346c.851 1.202 1.4 2.45 1.651 3.798h-.648v.998h.747v1.097h-.799v.998h.799v1.149h-.799v.998h2.748c.152 1.149 1.097 2.001 2.246 2.001h.549c1.149 0 2.1-.898 2.246-2.001h2.748v-.998h-.799v-1.097h.799v-.998h-.799V25.77h.799v-.998h-.695a8.334 8.334 0 0 1 1.599-3.798h2.398a7.375 7.375 0 0 0 7.392-7.392c.052-1.949-.648-3.699-1.943-5.093zM16.303 30.968h-.549c-.601 0-1.149-.449-1.249-.998h3.046c-.146.549-.648.998-1.248.998zm3.15-2.001h-6.896V27.87H19.5v1.097h-.047zm0-2.095h-6.896v-1.097H19.5c0 .094-.047 1.097-.047 1.097zm.151-2.152h-7.199c-.251-1.698-.951-3.296-2.1-4.743a7.26 7.26 0 0 1-1.546-4.696c.099-3.746 3.098-6.843 6.843-7.042 4.195-.199 7.643 3.098 7.643 7.246a7.193 7.193 0 0 1-1.698 4.644 9.019 9.019 0 0 0-1.943 4.592zm4.994-4.796h-1.651a8.112 8.112 0 0 0 1.301-4.446c0-4.696-3.944-8.494-8.693-8.243-4.247.251-7.695 3.746-7.794 7.993a8.194 8.194 0 0 0 1.301 4.696H7.411a6.374 6.374 0 0 1-6.394-6.394c0-3.495 2.847-6.342 6.342-6.394h.35l.099-.35c1.149-3.249 4.096-5.543 7.543-5.793.251 0 2.649 0 4.597.951l.251.151.251-.151c.951-.601 2.001-.951 3.145-.951a5.694 5.694 0 0 1 5.694 5.694 5.67 5.67 0 0 1-.298 1.797l-.099.298.199.199c1.249 1.196 1.896 2.847 1.896 4.545a6.368 6.368 0 0 1-6.389 6.399z"/><path fill="#ffbe00" d="M16.005 21.026c-3.046 0-5.496-2.45-5.496-5.496s2.45-5.496 5.496-5.496a5.482 5.482 0 0 1 5.496 5.496c0 2.999-2.45 5.496-5.496 5.496z"/><path fill="#193651" d="M15.608 5.088h.998v1.097h-.998V5.088zM11.321 6.182l.549.95-.864.499-.549-.95.864-.499zM7.331 9.785l.95.549-.499.864-.95-.549.499-.864zM5.614 14.883h1.097v.998H5.614v-.998zM25.246 14.883h1.097v.998h-1.097v-.998zM24.699 9.737l.499.864-.95.548-.499-.864.95-.548zM20.653 6.161l.864.499-.548.95-.864-.499.548-.95zM12.709 14.93h.998v1.097h-.998V14.93zM15.503 14.93h.998v1.097h-.998V14.93zM18.303 14.93h.998v1.097h-.998V14.93z"/></symbol><symbol id="icon-fb" viewBox="0 0 17 32"><title>icon-fb</title><path d="M10.833 10.532V7.793c0-.411.021-.73.063-.955s.137-.447.284-.666c.147-.219.385-.37.714-.453s.767-.125 1.314-.125h2.984V.117h-4.77c-2.76 0-4.742.601-5.947 1.803S3.668 4.893 3.668 7.234v3.298H.095v5.477h3.573v15.892h7.166V16.009h4.77l.63-5.477h-5.4z"/></symbol><symbol id="icon-info" viewBox="0 0 39 32"><title>icon-info</title><path fill="#fff" d="M35.693 30.495H2.261l-1.395-4.03H37.28zM2.982 26.081h31.94V3.771H2.982z"/><path fill="#e1e6e9" d="M32.77 21.771v2.196H5.355V5.934H32.77z"/><path fill="#193651" d="M16.593 29.24h4.876v-1.185h-4.876zM24.025 29.24h1.188v-1.185h-1.188zM12.843 29.24h1.188v-1.185h-1.188z"/><path fill="#193651" d="M33.006 30.313H5.056c-1.903 0-3.508-1.483-3.806-3.381h35.625c-.299 1.898-1.903 3.381-3.868 3.381zM3.57 4.154h12.016l18.904.048.009 18.165v3.381H3.57V4.154zm11.954-1.191H2.382v22.779H0v.596c0 2.847 2.258 5.161 5.056 5.161h28.012c2.793 0 5.056-2.314 5.056-5.161v-.596h-2.438v-3.381l.054-19.398H15.523z"/><path fill="#fff" d="M8.146 26.134h21.759V.449H8.146z"/><path fill="#193651" d="M8.596 25.685V.894h20.863v24.791H8.596zm-.896.893h22.655V0H7.7v26.578z"/><path fill="#febe00" d="M9.943 24.342h18.17V2.237H9.943z"/><path fill="#fff" d="M25.856 12.213H12.185v4.029h13.727v-4.029z"/><path fill="#4680e0" d="M21.784 15.793v-3.13h3.678v3.13h-3.678zm-4.574 0v-3.13h3.678v3.13H17.21zm-4.574 0v-3.13h3.678v3.13h-3.678zm-.901.898h14.623v-4.923H11.735v4.923z"/><path fill="#fff" d="M11.735 4.698h5.024v-.894h-5.024zM11.735 7.201h14.581v-.894H11.735zM11.735 9.663h14.581v-.894H11.735z"/><path fill="#4680e0" d="M15.638 22.774h.896v-.894h-.896zM18.599 22.774h.896v-.894h-.896zM21.559 22.774h.896v-.894h-.896zM30.588 13.289c3.296 0 5.969 2.665 5.969 5.953s-2.672 5.953-5.969 5.953c-3.296 0-5.969-2.665-5.969-5.953s2.672-5.953 5.969-5.953z"/><path fill="#fff" d="M29.578 22.661l-2.981-3.583.975-.788 2.07 2.548 6.395-6.925.911.788z"/></symbol><symbol id="icon-mail" viewBox="0 0 50 32"><title>icon-mail</title><path d="M46.252.125H2.664A2.535 2.535 0 0 0 .122 2.653v26.602a2.535 2.535 0 0 0 2.542 2.528h43.588a2.535 2.535 0 0 0 2.542-2.528V2.653A2.535 2.535 0 0 0 46.252.125zm-1.667 25.087c.689.569.784 1.586.212 2.272a1.624 1.624 0 0 1-2.284.211l-11.441-9.443-5.577 4.602c-.3.248-.668.372-1.036.372s-.736-.124-1.036-.372l-5.577-4.602-11.442 9.443a1.628 1.628 0 0 1-2.285-.211 1.608 1.608 0 0 1 .212-2.272l10.973-9.056L4.331 7.1a1.608 1.608 0 0 1-.212-2.272 1.63 1.63 0 0 1 2.285-.211l18.055 14.9 18.055-14.9c.689-.568 1.713-.474 2.285.211s.477 1.702-.212 2.272l-10.974 9.056 10.974 9.057z"/></symbol><symbol id="icon-order" viewBox="0 0 31 32"><title>icon-order</title><path fill="#fff" d="M16.07.503c-4.907 0-8.914 4.006-8.914 8.914 0 4.907 4.006 8.914 8.914 8.914 4.907 0 8.914-4.006 8.914-8.914C24.989 4.51 20.983.503 16.07.503z"/><path fill="#193651" d="M16.07 18.828c-5.206 0-9.416-4.205-9.416-9.416S10.865.001 16.07.001c5.206 0 9.416 4.205 9.416 9.416s-4.205 9.411-9.416 9.411zM16.07 1c-4.656 0-8.411 3.755-8.411 8.411s3.755 8.411 8.411 8.411 8.411-3.755 8.411-8.411S20.731 1 16.07 1z"/><path fill="#fdbf5e" d="M16.07 16.324c-3.807 0-6.913-3.106-6.913-6.913s3.106-6.913 6.913-6.913c3.807 0 6.913 3.106 6.913 6.913s-3.106 6.913-6.913 6.913z"/><path fill="#fff" d="M.547 18.33h4.755v10.967H.547V18.33z"/><path fill="#193651" d="M16.07 8.966c-.649 0-1.205-.55-1.205-1.199s.55-1.199 1.205-1.199 1.205.55 1.205 1.199h1c0-1.053-.749-1.901-1.702-2.152v-.801h-1v.801c-1 .251-1.702 1.1-1.702 2.152 0 1.199 1 2.205 2.205 2.205.649 0 1.205.55 1.205 1.205s-.55 1.199-1.205 1.199c-.649 0-1.205-.55-1.205-1.199h-1c0 1.053.749 1.901 1.702 2.152v.702h1v-.702c1-.251 1.702-1.1 1.702-2.152 0-1.21-1-2.21-2.205-2.21zM2.401 20.535h1v1h-1v-1zM2.401 23.337h1v1h-1v-1zM2.401 26.144h1v1h-1v-1zM20.228 8.867h1v1.1h-1v-1.1zM10.916 8.867h1v1.1h-1v-1.1z"/><path fill="#193651" d="M31.095 22.886c-.503-1.053-1.702-1.55-2.755-1.152l-6.808 2.304c.052-.152.052-.351.052-.55a2.348 2.348 0 0 0-2.351-2.351h-5.059c-.152 0-.351-.052-.503-.099l-3.258-1.702-.052-.052a2.869 2.869 0 0 0-.901-.152H5.804v-1.351H.048v11.967h5.761v-1.053h1.252l9.317 3.106c.351.099.702.199 1.1.199.55 0 1.1-.152 1.603-.403l11.066-5.86c1-.492 1.451-1.749.948-2.849zM4.804 28.794v.052H1.049V18.827h3.755v9.966zm24.84-3.855l-11.066 5.808a2.651 2.651 0 0 1-1.953.152l-9.464-3.153H5.757v-7.562h3.656c.199 0 .351.052.55.099l3.258 1.702.052.052c.251.099.55.152.854.152h5.059c.749 0 1.351.602 1.351 1.351 0 .398-.199.749-.45 1l-.953.351h-4.106a1.9 1.9 0 0 0-1.901 1.901h1c0-.503.398-.901.901-.901h4.158c.503 0 .953-.152 1.351-.45l8.065-2.755c.602-.199 1.252.052 1.503.649.341.55.142 1.304-.461 1.603z"/></symbol><symbol id="icon-orders" viewBox="0 0 32 32"><title>icon-orders</title><path fill="#fff" d="M19.083 31.469l-2.267-4.973a2.001 2.001 0 1 0-1.662 0l-2.267 4.973h6.196z"/><path fill="#d3d7da" d="M21.032 5.543a5.046 5.046 0 1 1-10.092 0 5.046 5.046 0 0 1 10.092 0z"/><path fill="#fff" d="M17.986 24.678a2.001 2.001 0 1 1-4.002 0 2.001 2.001 0 0 1 4.002 0zM7.543 24.678a2.001 2.001 0 1 1-4.002 0 2.001 2.001 0 0 1 4.002 0z"/><path fill="#193651" d="M20.53 19.13h.998v.998h-.998v-.998zM20.53 22.928h.998v.998h-.998v-.998zM20.53 26.773h.998v.998h-.998v-.998zM10.443 19.13h.998v.998h-.998v-.998zM10.443 22.928h.998v.998h-.998v-.998zM10.443 26.773h.998v.998h-.998v-.998z"/><path fill="#4fbf9f" d="M10.589 14.585a5.046 5.046 0 1 1-10.092 0 5.046 5.046 0 0 1 10.092 0z"/><path fill="#fdbf5e" d="M31.474 14.585a5.046 5.046 0 1 1-10.092 0 5.046 5.046 0 0 1 10.092 0z"/><path fill="#fff" d="M29.521 31.469l-2.267-4.973a2.001 2.001 0 1 0-1.662 0l-2.267 4.973h6.196z"/><path fill="#193651" d="M31.971 14.538c0-3.046-2.497-5.543-5.543-5.543s-5.543 2.497-5.543 5.543c0 2.878 2.231 5.266 5.046 5.522v2.173a2.501 2.501 0 0 0-2.006 2.445c0 .851.402 1.546 1.05 2.001l-2.445 5.292h7.742l-2.398-5.297c.601-.449 1.05-1.202 1.05-2.001a2.501 2.501 0 0 0-1.996-2.445V20.06c2.811-.256 5.041-2.643 5.041-5.522zm-10.093.047c0-2.497 2.048-4.545 4.545-4.545s4.545 2.048 4.545 4.545-2.048 4.545-4.545 4.545-4.545-2.048-4.545-4.545zm6.843 16.388h-4.644l1.797-3.897c.199.052.951.052 1.097 0l1.75 3.897zm-.799-6.295a1.47 1.47 0 0 1-1.499 1.499c-.851-.052-1.499-.7-1.499-1.499s.648-1.499 1.499-1.499c.805 0 1.499.648 1.499 1.499z"/><path fill="#fff" d="M8.64 31.469l-2.267-4.973a2.001 2.001 0 1 0-1.662 0l-2.267 4.973H8.64z"/><path fill="#193651" d="M26.924 17.135h-.998v-2.549h.502c.549 0 1.05-.449 1.05-1.05 0-.549-.502-1.05-1.05-1.05s-1.05.449-1.05 1.05h-.998c0-1.149.898-2.048 2.048-2.048s2.048.899 2.048 2.048c0 .951-.648 1.75-1.546 2.001v1.599h-.005zM5.543 13.838c-.35 0-.648-.298-.648-.648s.298-.648.648-.648c.35 0 .648.298.648.648h.998a1.66 1.66 0 0 0-1.149-1.567v-.381h-.993v.381a1.66 1.66 0 0 0-1.149 1.567c0 .899.747 1.651 1.651 1.651.35 0 .648.298.648.648s-.298.648-.648.648a.658.658 0 0 1-.648-.648H3.898a1.66 1.66 0 0 0 1.149 1.567v.329h.998v-.329a1.66 1.66 0 0 0 1.149-1.567c0-.904-.747-1.651-1.651-1.651zM14.188 5.046h.998v.998h-.998v-.998zM16.785 5.046h.998v.998h-.998v-.998z"/><path fill="#193651" d="M21.528 5.543C21.528 2.497 19.031 0 15.985 0s-5.543 2.497-5.543 5.595c0 2.878 2.231 5.266 5.046 5.522v11.122a2.467 2.467 0 0 0-1.949 2.44c0 .851.397 1.546 1.05 2.001l-2.502 5.292h7.794l-2.398-5.297c.601-.449 1.05-1.202 1.05-2.001a2.506 2.506 0 0 0-2.048-2.455V11.118c2.816-.256 5.041-2.643 5.041-5.574zm-3.244 25.43H13.64l1.797-3.897c.199.052.951.052 1.097 0l1.75 3.897zm-.799-6.295c0 .851-.648 1.499-1.499 1.499s-1.499-.7-1.499-1.499c0-.799.648-1.499 1.499-1.499s1.499.648 1.499 1.499zm-1.5-14.585c-2.497 0-4.545-2.048-4.545-4.545s2.048-4.545 4.545-4.545 4.545 2.048 4.545 4.545-2.048 4.545-4.545 4.545z"/><path fill="#193651" d="M11.09 14.538c0-3.046-2.497-5.543-5.543-5.543s-5.548 2.492-5.548 5.543c0 2.878 2.231 5.266 5.046 5.522v2.173a2.502 2.502 0 0 0-2.001 2.445c0 .851.402 1.546 1.05 2.001l-2.445 5.292h7.742l-2.398-5.297c.601-.449 1.05-1.202 1.05-2.001a2.501 2.501 0 0 0-1.996-2.445V20.06c2.811-.256 5.041-2.643 5.041-5.522zm-10.092.047c0-2.497 2.048-4.545 4.545-4.545s4.545 2.048 4.545 4.545S8.04 19.13 5.543 19.13.998 17.082.998 14.585zm6.843 16.388H3.197l1.797-3.897c.199.052.951.052 1.097 0l1.75 3.897zm-.799-6.295a1.47 1.47 0 0 1-1.499 1.499c-.851-.052-1.499-.7-1.499-1.499s.648-1.499 1.499-1.499c.799 0 1.499.648 1.499 1.499z"/></symbol><symbol id="icon-partners" viewBox="0 0 32 32"><title>icon-partners</title><path fill="#193651" d="M20.781 14.99h.998v.998h-.998v-.998zM15.484 23.683h.998v.998h-.998v-.998zM10.192 14.99h.998v.998h-.998v-.998z"/><path fill="#fdbf5e" d="M15.985 12.739c2.1 0 3.944-1.05 5.046-2.696-1.097-1.599-2.946-2.649-5.046-2.649s-3.944 1.05-5.046 2.649a6.024 6.024 0 0 0 5.046 2.696zM17.882 4.448a1.896 1.896 0 1 1-3.792 0 1.896 1.896 0 0 1 3.792 0z"/><path fill="#f16051" d="M6.645 31.472c2.1 0 3.944-1.05 5.046-2.696-1.097-1.599-2.946-2.649-5.046-2.649s-3.944 1.05-5.046 2.649c1.05 1.651 2.899 2.696 5.046 2.696zM8.541 23.181a1.896 1.896 0 1 1-3.792 0 1.896 1.896 0 0 1 3.792 0z"/><path fill="#2ea2db" d="M25.326 31.472c2.1 0 3.944-1.05 5.046-2.696-1.097-1.599-2.946-2.649-5.046-2.649s-3.944 1.05-5.046 2.649a6.03 6.03 0 0 0 5.046 2.696zM27.222 23.181a1.896 1.896 0 1 1-3.792 0 1.896 1.896 0 0 1 3.792 0z"/><path fill="#193651" d="M25.326 18.736c-1.75 0-3.296.7-4.498 1.75l-4.346-2.497v-4.743c3.396-.251 6.143-3.098 6.143-6.593.005-3.704-2.993-6.65-6.64-6.65S9.34 2.949 9.34 6.648a6.606 6.606 0 0 0 6.143 6.593v4.743l-4.346 2.497a6.575 6.575 0 0 0-4.498-1.75c-3.693.005-6.64 2.952-6.64 6.598a6.608 6.608 0 0 0 6.645 6.645 6.642 6.642 0 0 0 6.645-6.645c0-1.546-.549-2.946-1.447-4.096l4.195-2.398 4.195 2.398c-.898 1.149-1.447 2.549-1.447 4.096a6.642 6.642 0 0 0 6.645 6.645c3.599 0 6.546-2.946 6.546-6.645-.005-3.646-2.951-6.593-6.65-6.593zM6.645 30.975a5.61 5.61 0 0 1-5.647-5.647 5.64 5.64 0 0 1 5.647-5.647 5.64 5.64 0 0 1 5.647 5.647c-.052 3.15-2.549 5.647-5.647 5.647zm3.693-24.328C10.338 3.502 12.887 1 15.985 1s5.647 2.497 5.647 5.647a5.64 5.64 0 0 1-5.647 5.647c-3.098-.052-5.647-2.549-5.647-5.647zm14.988 24.328a5.64 5.64 0 0 1-5.647-5.647 5.64 5.64 0 0 1 5.647-5.647c3.098 0 5.647 2.497 5.647 5.647s-2.497 5.647-5.647 5.647z"/></symbol><symbol id="icon-skype" viewBox="0 0 32 32"><title>icon-skype</title><path d="M30.681 18.285c.119-.75.182-1.517.182-2.299 0-8.136-6.633-14.731-14.817-14.731-.785 0-1.559.064-2.312.181A8.94 8.94 0 0 0 9.033.111C4.088.111.08 4.096.08 9.013c0 1.716.489 3.316 1.333 4.675a14.887 14.887 0 0 0-.181 2.298c0 8.137 6.633 14.73 14.814 14.73.786 0 1.56-.06 2.313-.178a8.96 8.96 0 0 0 4.701 1.325c4.946 0 8.954-3.986 8.954-8.903a8.814 8.814 0 0 0-1.333-4.674zm-7.6 4.401c-.627.897-1.547 1.598-2.751 2.102-1.206.505-2.63.757-4.276.757-1.972 0-3.605-.343-4.894-1.036-.914-.496-1.657-1.162-2.228-1.992s-.863-1.644-.863-2.437c0-.468.179-.875.529-1.207.353-.334.808-.502 1.344-.502.44 0 .817.132 1.124.392.305.261.561.64.77 1.14.251.579.523 1.064.813 1.45.288.382.694.7 1.219.95.519.25 1.211.375 2.076.375 1.184 0 2.141-.255 2.873-.757.736-.507 1.089-1.124 1.089-1.869 0-.594-.191-1.066-.581-1.434-.394-.373-.904-.657-1.536-.855-.634-.2-1.486-.412-2.554-.636-1.434-.311-2.632-.673-3.603-1.089-.972-.417-1.746-.988-2.32-1.709-.575-.728-.862-1.632-.862-2.704 0-1.022.303-1.935.909-2.731.606-.797 1.482-1.408 2.625-1.833 1.139-.425 2.479-.638 4.015-.638 1.228 0 2.29.141 3.19.422.897.283 1.644.657 2.242 1.126.594.468 1.031.961 1.308 1.479.277.519.416 1.027.416 1.522 0 .46-.179.878-.529 1.244s-.797.553-1.319.551c-.471 0-.84-.108-1.096-.337-.249-.221-.511-.573-.795-1.064-.358-.685-.787-1.218-1.286-1.6-.486-.374-1.287-.569-2.403-.567-1.032 0-1.857.21-2.481.62-.627.417-.927.9-.928 1.466.001.355.104.654.31.91.21.258.501.482.876.671.375.192.757.34 1.14.446a53.49 53.49 0 0 0 1.926.477c1.122.24 2.14.509 3.054.802.913.294 1.692.649 2.335 1.072a4.528 4.528 0 0 1 1.517 1.608c.364.65.546 1.444.546 2.379a5.154 5.154 0 0 1-.942 3.033z"/></symbol><symbol id="icon-telegramm" viewBox="0 0 36 32"><title>icon-telegramm</title><path d="M4.129 13.858l6.554 2.446 2.537 8.159a.77.77 0 0 0 1.225.369l3.653-2.978a1.09 1.09 0 0 1 1.329-.037l6.589 4.784a.772.772 0 0 0 1.21-.467l4.827-23.219a.773.773 0 0 0-1.034-.878L4.121 12.414c-.664.256-.658 1.196.008 1.445zm8.682 1.144L25.62 7.113c.23-.141.467.17.269.353l-10.571 9.827a2.19 2.19 0 0 0-.679 1.311l-.36 2.669c-.048.356-.548.392-.647.047l-1.385-4.866a1.29 1.29 0 0 1 .563-1.451z"/></symbol><symbol id="icon-vk" viewBox="0 0 55 32"><title>icon-vk</title><path d="M47.113 19.708c1.816 1.773 3.732 3.441 5.361 5.393.719.867 1.401 1.762 1.922 2.769.738 1.431.07 3.005-1.213 3.091l-7.975-.004c-2.057.171-3.698-.657-5.077-2.064-1.104-1.125-2.127-2.322-3.188-3.484-.435-.475-.891-.922-1.435-1.276-1.089-.707-2.034-.49-2.656.645-.634 1.155-.777 2.434-.84 3.721-.085 1.878-.653 2.372-2.539 2.458-4.031.19-7.857-.42-11.412-2.453-3.133-1.793-5.563-4.324-7.678-7.189C6.265 15.736 3.112 9.605.277 3.302-.361 1.882.106 1.12 1.672 1.093c2.602-.051 5.203-.047 7.808-.004 1.057.015 1.757.622 2.166 1.621 1.408 3.461 3.13 6.754 5.292 9.806.576.813 1.163 1.625 1.999 2.197.925.633 1.629.423 2.064-.607.276-.653.397-1.357.459-2.056.206-2.407.233-4.81-.128-7.209-.222-1.497-1.065-2.466-2.559-2.749-.762-.144-.649-.428-.28-.863.641-.75 1.244-1.217 2.446-1.217h9.013c1.419.28 1.734.917 1.928 2.345l.008 10.012c-.015.553.276 2.193 1.272 2.559.797.26 1.322-.377 1.8-.882 2.158-2.29 3.698-4.997 5.074-7.8.611-1.232 1.136-2.512 1.644-3.791.377-.949.969-1.416 2.037-1.395l8.674.008c.257 0 .517.004.767.046 1.462.249 1.862.878 1.411 2.305-.711 2.239-2.095 4.106-3.449 5.981-1.447 2.002-2.994 3.935-4.428 5.948-1.318 1.839-1.213 2.766.424 4.363z"/></symbol><symbol id="icon-writing-text" viewBox="0 0 35 32"><title>icon-writing-text</title><path fill="#fff" d="M3.529 9.883h27.559v17.469H3.529V9.883z"/><path fill="#2ea2db" d="M5.65 12.005h23.311v13.221H5.65V12.005z"/><path fill="#fff" d="M.533 27.353c0 2.282 2.518 4.087 4.745 4.087h25.01c2.177 0 3.981-1.805 3.981-4.087H.532z"/><path fill="#193651" d="M14.518 28.841h1.061v1.061h-1.061v-1.061zM17.228 28.841h1.061v1.061h-1.061v-1.061zM19.988 28.841h1.061v1.061h-1.061v-1.061z"/><path fill="#fff" d="M14.251.538L9.315 5.475v16.037h15.981V.539z"/><path fill="#d3d7da" d="M14.251.538L8.992 5.791h5.259z"/><path fill="#193651" d="M31.615 9.35h-5.842V.005H14.04L8.781 5.264v4.087H2.939v17.414h-2.94v.533c0 2.549 2.779 4.62 5.278 4.62h25.01c2.493 0 4.515-2.071 4.515-4.62v-.533h-3.187V9.351zM9.842 5.685l4.62-4.62h10.251v19.913H9.842V5.685zm-5.786 4.726h4.781v11.628h16.992V10.411h4.781v16.353H4.056V10.411zm26.232 20.446H5.278c-1.699 0-3.895-1.327-4.162-3.026h32.57c-.267 1.749-1.699 3.026-3.398 3.026z"/><path fill="#193651" d="M12.874 12.538h8.868v1.061h-8.868v-1.061zM12.874 15.458h8.868v1.061h-8.868v-1.061z"/></symbol>


    <symbol id="progress-2" viewBox="0 0 32 32"><title>progress-2</title><path stroke-width="2.4615" stroke-miterlimit="4" stroke-linecap="butt" stroke-linejoin="miter" d="M2.49 1.231h7.402v29.538h-7.402v-29.538z"></path></symbol>
    <symbol id="progress-3" viewBox="0 0 32 32"><title>progress-3</title><path stroke-width="1.8824" stroke-miterlimit="4" stroke-linecap="butt" stroke-linejoin="miter" d="M1.924 0.941h5.66v30.118h-5.66v-30.118z"></path></symbol>
    <symbol id="progress" viewBox="0 0 32 32"><title>progress</title><path d="M1.781 0h14.247v32h-14.247v-32z"></path></symbol>

</svg>